<?xml version="1.0" standalone="no"?>
<!DOCTYPE svg PUBLIC "-//W3C//DTD SVG 1.1//EN" "http://www.w3.org/Graphics/SVG/1.1/DTD/svg11.dtd" >
<svg xmlns="http://www.w3.org/2000/svg" xmlns:xlink="http://www.w3.org/1999/xlink" version="1.1">
<metadata>
Created by FontForge 20170924 at Sun Dec  6 23:32:19 2020
 By www-data
\(c\) 2020 Ethan Cohen
</metadata>
<defs>
<font id="Decibelv0.2Trial-Louderer" horiz-adv-x="0" >
  <font-face 
    font-family="Decibel v0.2 Trial Bold"
    font-weight="800"
    font-stretch="normal"
    units-per-em="1000"
    panose-1="0 0 9 0 0 0 0 0 0 0"
    ascent="800"
    descent="-200"
    x-height="525"
    cap-height="680"
    bbox="-150 -288 1384 820"
    underline-thickness="50"
    underline-position="-100"
    stemh="158"
    stemv="225"
    unicode-range="U+0020-FB02"
  />
<missing-glyph horiz-adv-x="684" 
d="M654 690l-1 -690h-622l-1 690h624zM346 436l86 123h-172zM273 345l-86 122l1 -244zM497 465l-85 -122l84 -119zM339 252l-83 -118h166z" />
    <glyph glyph-name="fi" unicode="fi" horiz-adv-x="697" 
d="M535 548c-82 0 -126 45 -126 115c0 71 56 115 126 115c82 0 126 -46 126 -115c0 -71 -57 -115 -126 -115zM652 525v-393h48v-132h-321v132h48v261h-122v-261h45v-132h-323v132h53v261h-77v132h57c-9 22 -13 44 -13 66c0 100 79 149 203 149c102 0 156 -53 136 -154
l-127 -24c-1 35 -9 48 -21 48c-9 0 -16 -9 -16 -23c0 -21 7 -42 22 -62h408z" />
    <glyph glyph-name="fl" unicode="fl" horiz-adv-x="708" 
d="M663 730v-598h48v-132h-321v132h48v449l-102 -16c4 29 -7 39 -27 39c-32 0 -39 -31 -39 -59c0 -7 1 -13 2 -20h111v-132h-78v-261h58v-132h-336v132h53v261h-77v132h77c7 145 94 215 240 215c31 0 58 -3 81 -10h262z" />
    <glyph glyph-name="T_h.liga" unicode="Th" horiz-adv-x="1385" 
d="M1343 355v-223h41v-132h-305v132h39v159c0 62 -17 86 -49 86c-36 0 -56 -30 -56 -85v-160h39v-132h-312v132h48v466h-48v132h273v-325c25 108 108 130 172 130c107 0 158 -74 158 -180zM164 384h-154v296h695v-296h-153v153h-80v-394h82v-143h-393v143h82v394h-79v-153z
" />
    <glyph glyph-name=".notdef" horiz-adv-x="684" 
d="M654 690l-1 -690h-622l-1 690h624zM346 436l86 123h-172zM273 345l-86 122l1 -244zM497 465l-85 -122l84 -119zM339 252l-83 -118h166z" />
    <glyph glyph-name="space" unicode=" " horiz-adv-x="165" 
 />
    <glyph glyph-name="A" unicode="A" horiz-adv-x="750" 
d="M538 680l161 -537h46v-143h-353v143h68l-23 76h-190l-23 -76h86v-143h-305v143h45l140 394h-64v143h412zM341 539l-52 -177h105z" />
    <glyph glyph-name="Aacute" unicode="&#xc1;" horiz-adv-x="750" 
d="M538 680l161 -537h46v-143h-353v143h68l-23 76h-190l-23 -76h86v-143h-305v143h45l140 394h-64v143h412zM341 539l-52 -177h105z" />
    <glyph glyph-name="Abreve" unicode="&#x102;" horiz-adv-x="750" 
d="M538 680l161 -537h46v-143h-353v143h68l-23 76h-190l-23 -76h86v-143h-305v143h45l140 394h-64v143h412zM341 539l-52 -177h105z" />
    <glyph glyph-name="Acircumflex" unicode="&#xc2;" horiz-adv-x="750" 
d="M538 680l161 -537h46v-143h-353v143h68l-23 76h-190l-23 -76h86v-143h-305v143h45l140 394h-64v143h412zM341 539l-52 -177h105z" />
    <glyph glyph-name="Adieresis" unicode="&#xc4;" horiz-adv-x="750" 
d="M538 680l161 -537h46v-143h-353v143h68l-23 76h-190l-23 -76h86v-143h-305v143h45l140 394h-64v143h412zM341 539l-52 -177h105z" />
    <glyph glyph-name="Agrave" unicode="&#xc0;" horiz-adv-x="750" 
d="M538 680l161 -537h46v-143h-353v143h68l-23 76h-190l-23 -76h86v-143h-305v143h45l140 394h-64v143h412zM341 539l-52 -177h105z" />
    <glyph glyph-name="Amacron" unicode="&#x100;" horiz-adv-x="750" 
d="M538 680l161 -537h46v-143h-353v143h68l-23 76h-190l-23 -76h86v-143h-305v143h45l140 394h-64v143h412zM341 539l-52 -177h105z" />
    <glyph glyph-name="Aogonek" unicode="&#x104;" horiz-adv-x="750" 
d="M538 680l161 -537h46v-143h-353v143h68l-23 76h-190l-23 -76h86v-143h-305v143h45l140 394h-64v143h412zM341 539l-52 -177h105z" />
    <glyph glyph-name="Aring" unicode="&#xc5;" horiz-adv-x="750" 
d="M538 680l161 -537h46v-143h-353v143h68l-23 76h-190l-23 -76h86v-143h-305v143h45l140 394h-64v143h412zM341 539l-52 -177h105z" />
    <glyph glyph-name="Atilde" unicode="&#xc3;" horiz-adv-x="750" 
d="M538 680l161 -537h46v-143h-353v143h68l-23 76h-190l-23 -76h86v-143h-305v143h45l140 394h-64v143h412zM341 539l-52 -177h105z" />
    <glyph glyph-name="AE" unicode="&#xc6;" horiz-adv-x="1061" 
d="M875 143v109h163v-252h-638v143h65v78h-188l-46 -78h69v-143h-295v143h44l255 394h-95v143h822v-232h-163v89h-173v-125h38v44h110v-232h-110v45h-38v-126h180zM465 543l-110 -189h110v189z" />
    <glyph glyph-name="B" unicode="B" horiz-adv-x="766" 
d="M570 354c128 -28 167 -92 167 -161c0 -128 -130 -193 -339 -193h-353v143h65v394h-65v143h369c196 0 306 -41 306 -178c0 -63 -37 -123 -150 -148zM387 537h-47v-123h39c79 0 100 26 100 66c0 36 -25 57 -92 57zM340 143h34c90 0 122 21 122 62c0 40 -27 65 -102 65h-54
v-127z" />
    <glyph glyph-name="C" unicode="C" horiz-adv-x="673" 
d="M470 258h182c11 -159 -93 -268 -286 -268c-215 0 -330 109 -330 347c0 239 136 353 289 353c89 0 144 -44 160 -114v117h158v-257h-158c0 74 -46 107 -96 107c-75 0 -116 -51 -116 -192c0 -159 35 -212 111 -212s88 46 86 119z" />
    <glyph glyph-name="Cacute" unicode="&#x106;" horiz-adv-x="673" 
d="M470 258h182c11 -159 -93 -268 -286 -268c-215 0 -330 109 -330 347c0 239 136 353 289 353c89 0 144 -44 160 -114v117h158v-257h-158c0 74 -46 107 -96 107c-75 0 -116 -51 -116 -192c0 -159 35 -212 111 -212s88 46 86 119z" />
    <glyph glyph-name="Ccaron" unicode="&#x10c;" horiz-adv-x="673" 
d="M470 258h182c11 -159 -93 -268 -286 -268c-215 0 -330 109 -330 347c0 239 136 353 289 353c89 0 144 -44 160 -114v117h158v-257h-158c0 74 -46 107 -96 107c-75 0 -116 -51 -116 -192c0 -159 35 -212 111 -212s88 46 86 119z" />
    <glyph glyph-name="Ccedilla" unicode="&#xc7;" horiz-adv-x="673" 
d="M470 258h182c11 -159 -93 -268 -286 -268c-215 0 -330 109 -330 347c0 239 136 353 289 353c89 0 144 -44 160 -114v117h158v-257h-158c0 74 -46 107 -96 107c-75 0 -116 -51 -116 -192c0 -159 35 -212 111 -212s88 46 86 119z" />
    <glyph glyph-name="Cdotaccent" unicode="&#x10a;" horiz-adv-x="673" 
d="M470 258h182c11 -159 -93 -268 -286 -268c-215 0 -330 109 -330 347c0 239 136 353 289 353c89 0 144 -44 160 -114v117h158v-257h-158c0 74 -46 107 -96 107c-75 0 -116 -51 -116 -192c0 -159 35 -212 111 -212s88 46 86 119z" />
    <glyph glyph-name="D" unicode="D" horiz-adv-x="773" 
d="M394 0h-349v143h65v394h-65v143h365c210 0 327 -114 327 -331c0 -230 -163 -349 -343 -349zM340 537v-394h31c89 0 125 43 125 199c0 141 -33 195 -121 195h-35z" />
    <glyph glyph-name="Eth" unicode="&#xd0;" horiz-adv-x="773" 
d="M45 680h365c210 0 327 -114 327 -331c0 -230 -163 -349 -343 -349h-349v143h65v135h-81v135h81v124h-65v143zM340 143h31c89 0 125 43 125 199c0 141 -33 195 -121 195h-35v-124h85v-135h-85v-135z" />
    <glyph glyph-name="Dcaron" unicode="&#x10e;" horiz-adv-x="773" 
d="M394 0h-349v143h65v394h-65v143h365c210 0 327 -114 327 -331c0 -230 -163 -349 -343 -349zM340 537v-394h31c89 0 125 43 125 199c0 141 -33 195 -121 195h-35z" />
    <glyph glyph-name="Dcroat" unicode="&#x110;" horiz-adv-x="773" 
d="M45 680h365c210 0 327 -114 327 -331c0 -230 -163 -349 -343 -349h-349v143h65v135h-81v135h81v124h-65v143zM340 143h31c89 0 125 43 125 199c0 141 -33 195 -121 195h-35v-124h85v-135h-85v-135z" />
    <glyph glyph-name="E" unicode="E" horiz-adv-x="706" 
d="M683 0h-638v143h65v394h-65v143h631v-232h-163v89h-173v-125h38v44h110v-232h-110v45h-38v-126h180v109h163v-252z" />
    <glyph glyph-name="Eacute" unicode="&#xc9;" horiz-adv-x="706" 
d="M683 0h-638v143h65v394h-65v143h631v-232h-163v89h-173v-125h38v44h110v-232h-110v45h-38v-126h180v109h163v-252z" />
    <glyph glyph-name="Ecaron" unicode="&#x11a;" horiz-adv-x="706" 
d="M683 0h-638v143h65v394h-65v143h631v-232h-163v89h-173v-125h38v44h110v-232h-110v45h-38v-126h180v109h163v-252z" />
    <glyph glyph-name="Ecircumflex" unicode="&#xca;" horiz-adv-x="706" 
d="M683 0h-638v143h65v394h-65v143h631v-232h-163v89h-173v-125h38v44h110v-232h-110v45h-38v-126h180v109h163v-252z" />
    <glyph glyph-name="Edieresis" unicode="&#xcb;" horiz-adv-x="706" 
d="M683 0h-638v143h65v394h-65v143h631v-232h-163v89h-173v-125h38v44h110v-232h-110v45h-38v-126h180v109h163v-252z" />
    <glyph glyph-name="Edotaccent" unicode="&#x116;" horiz-adv-x="706" 
d="M683 0h-638v143h65v394h-65v143h631v-232h-163v89h-173v-125h38v44h110v-232h-110v45h-38v-126h180v109h163v-252z" />
    <glyph glyph-name="Egrave" unicode="&#xc8;" horiz-adv-x="706" 
d="M683 0h-638v143h65v394h-65v143h631v-232h-163v89h-173v-125h38v44h110v-232h-110v45h-38v-126h180v109h163v-252z" />
    <glyph glyph-name="Emacron" unicode="&#x112;" horiz-adv-x="706" 
d="M683 0h-638v143h65v394h-65v143h631v-232h-163v89h-173v-125h38v44h110v-232h-110v45h-38v-126h180v109h163v-252z" />
    <glyph glyph-name="Eogonek" unicode="&#x118;" horiz-adv-x="706" 
d="M683 0h-638v143h65v394h-65v143h631v-232h-163v89h-173v-125h38v44h110v-232h-110v45h-38v-126h180v109h163v-252z" />
    <glyph glyph-name="F" unicode="F" horiz-adv-x="632" 
d="M428 0h-383v143h65v394h-65v143h577v-218h-164v75h-118v-153h57v49h139v-241h-139v49h-57v-98h88v-143z" />
    <glyph glyph-name="G" unicode="G" horiz-adv-x="727" 
d="M380 229v141h332v-141h-42v-229h-198v106c-21 -69 -85 -116 -181 -116c-157 0 -255 109 -255 347c0 239 139 353 296 353c92 0 149 -45 166 -115v118h158v-257h-158c0 74 -48 107 -102 107c-80 0 -123 -51 -123 -192c0 -159 41 -214 109 -214c37 0 75 21 75 78v14h-77z
" />
    <glyph glyph-name="Gbreve" unicode="&#x11e;" horiz-adv-x="727" 
d="M380 229v141h332v-141h-42v-229h-198v106c-21 -69 -85 -116 -181 -116c-157 0 -255 109 -255 347c0 239 139 353 296 353c92 0 149 -45 166 -115v118h158v-257h-158c0 74 -48 107 -102 107c-80 0 -123 -51 -123 -192c0 -159 41 -214 109 -214c37 0 75 21 75 78v14h-77z
" />
    <glyph glyph-name="uni0122" unicode="&#x122;" horiz-adv-x="727" 
d="M380 229v141h332v-141h-42v-229h-198v106c-21 -69 -85 -116 -181 -116c-157 0 -255 109 -255 347c0 239 139 353 296 353c92 0 149 -45 166 -115v118h158v-257h-158c0 74 -48 107 -102 107c-80 0 -123 -51 -123 -192c0 -159 41 -214 109 -214c37 0 75 21 75 78v14h-77z
" />
    <glyph glyph-name="Gdotaccent" unicode="&#x120;" horiz-adv-x="727" 
d="M380 229v141h332v-141h-42v-229h-198v106c-21 -69 -85 -116 -181 -116c-157 0 -255 109 -255 347c0 239 139 353 296 353c92 0 149 -45 166 -115v118h158v-257h-158c0 74 -48 107 -102 107c-80 0 -123 -51 -123 -192c0 -159 41 -214 109 -214c37 0 75 21 75 78v14h-77z
" />
    <glyph glyph-name="H" unicode="H" horiz-adv-x="854" 
d="M394 0h-349v143h65v394h-65v143h349v-143h-54v-121h173v121h-54v143h350v-143h-67v-394h67v-143h-350v143h54v130h-173v-130h54v-143z" />
    <glyph glyph-name="Hbar" unicode="&#x126;" horiz-adv-x="854" 
d="M825 502v-115h-83v-244h67v-143h-350v143h54v69h-173v-69h54v-143h-349v143h65v244h-81v115h81v35h-65v143h349v-143h-54v-35h173v35h-54v143h350v-143h-67v-35h83zM340 348h173v39h-173v-39z" />
    <glyph glyph-name="I" unicode="I" horiz-adv-x="452" 
d="M407 0h-362v143h67v394h-67v143h362v-143h-66v-394h66v-143z" />
    <glyph glyph-name="Iacute" unicode="&#xcd;" horiz-adv-x="452" 
d="M407 0h-362v143h67v394h-67v143h362v-143h-66v-394h66v-143z" />
    <glyph glyph-name="Icircumflex" unicode="&#xce;" horiz-adv-x="452" 
d="M407 0h-362v143h67v394h-67v143h362v-143h-66v-394h66v-143z" />
    <glyph glyph-name="Idieresis" unicode="&#xcf;" horiz-adv-x="452" 
d="M407 0h-362v143h67v394h-67v143h362v-143h-66v-394h66v-143z" />
    <glyph glyph-name="Idotaccent" unicode="&#x130;" horiz-adv-x="452" 
d="M407 0h-362v143h67v394h-67v143h362v-143h-66v-394h66v-143z" />
    <glyph glyph-name="Igrave" unicode="&#xcc;" horiz-adv-x="452" 
d="M407 0h-362v143h67v394h-67v143h362v-143h-66v-394h66v-143z" />
    <glyph glyph-name="Imacron" unicode="&#x12a;" horiz-adv-x="452" 
d="M407 0h-362v143h67v394h-67v143h362v-143h-66v-394h66v-143z" />
    <glyph glyph-name="Iogonek" unicode="&#x12e;" horiz-adv-x="452" 
d="M407 0h-362v143h67v394h-67v143h362v-143h-66v-394h66v-143z" />
    <glyph glyph-name="J" unicode="J" horiz-adv-x="572" 
d="M235 -10c-168 0 -240 67 -240 195c0 29 4 58 12 96l199 17c-25 -109 -5 -149 26 -149c24 0 33 8 33 67v321h-87v143h383v-143h-67v-285c0 -180 -72 -262 -259 -262z" />
    <glyph glyph-name="uni004A0301" horiz-adv-x="572" 
d="M235 -10c-168 0 -240 67 -240 195c0 29 4 58 12 96l199 17c-25 -109 -5 -149 26 -149c24 0 33 8 33 67v321h-87v143h383v-143h-67v-285c0 -180 -72 -262 -259 -262z" />
    <glyph glyph-name="K" unicode="K" horiz-adv-x="830" 
d="M572 424l181 -281h46v-143h-353v143h38l-95 149l-49 -35v-114h49v-143h-344v143h65v394h-65v143h359v-143h-64v-140l194 140h-69v143h321v-143h-55z" />
    <glyph glyph-name="uni0136" unicode="&#x136;" horiz-adv-x="830" 
d="M572 424l181 -281h46v-143h-353v143h38l-95 149l-49 -35v-114h49v-143h-344v143h65v394h-65v143h359v-143h-64v-140l194 140h-69v143h321v-143h-55z" />
    <glyph glyph-name="L" unicode="L" horiz-adv-x="640" 
d="M610 308v-308h-565v143h65v394h-65v143h367v-143h-72v-394h106v165h164z" />
    <glyph glyph-name="Lacute" unicode="&#x139;" horiz-adv-x="640" 
d="M610 308v-308h-565v143h65v394h-65v143h367v-143h-72v-394h106v165h164z" />
    <glyph glyph-name="Lcaron" unicode="&#x13d;" horiz-adv-x="640" 
d="M610 308v-308h-565v143h65v394h-65v143h367v-143h-72v-394h106v165h164z" />
    <glyph glyph-name="uni013B" unicode="&#x13b;" horiz-adv-x="640" 
d="M610 308v-308h-565v143h65v394h-65v143h367v-143h-72v-394h106v165h164z" />
    <glyph glyph-name="Ldot" unicode="&#x13f;" horiz-adv-x="613" 
d="M610 0h-565v143h65v394h-65v143h367v-143h-72v-394h106v85h164v-228zM529 265c-71 0 -115 49 -115 117c0 69 44 118 115 118c72 0 115 -49 115 -118c0 -68 -43 -117 -115 -117z" />
    <glyph glyph-name="Lslash" unicode="&#x141;" horiz-adv-x="640" 
d="M446 143v165h164v-308h-565v143h65v93l-69 -29l-43 110l112 48v172h-65v143h367v-143h-72v-80l81 36l44 -110l-125 -56v-184h106z" />
    <glyph glyph-name="M" unicode="M" horiz-adv-x="1083" 
d="M1038 680v-141h-68v-398h68v-141h-371v141h76v404l-125 -470h-191l-144 448v-382h75v-141h-313v141h69v398h-69v141h410l99 -304l75 304h409z" />
    <glyph glyph-name="N" unicode="N" horiz-adv-x="843" 
d="M520 539v141h307v-141h-69v-539h-295l-179 408v-267h68v-141h-307v141h69v398h-69v141h347l196 -426v285h-68z" />
    <glyph glyph-name="Nacute" unicode="&#x143;" horiz-adv-x="843" 
d="M520 539v141h307v-141h-69v-539h-295l-179 408v-267h68v-141h-307v141h69v398h-69v141h347l196 -426v285h-68z" />
    <glyph glyph-name="Ncaron" unicode="&#x147;" horiz-adv-x="843" 
d="M520 539v141h307v-141h-69v-539h-295l-179 408v-267h68v-141h-307v141h69v398h-69v141h347l196 -426v285h-68z" />
    <glyph glyph-name="uni0145" unicode="&#x145;" horiz-adv-x="843" 
d="M520 539v141h307v-141h-69v-539h-295l-179 408v-267h68v-141h-307v141h69v398h-69v141h347l196 -426v285h-68z" />
    <glyph glyph-name="Eng" unicode="&#x14a;" horiz-adv-x="859" 
d="M533 539v141h310v-141h-69v-492c0 -193 -59 -272 -218 -272c-165 0 -213 81 -183 181l157 9c-5 -22 5 -41 33 -41s38 17 38 67v9h-135l-179 441v-300h68v-141h-310v141h69v398h-69v141h370l186 -442v301h-68z" />
    <glyph glyph-name="Ntilde" unicode="&#xd1;" horiz-adv-x="843" 
d="M520 539v141h307v-141h-69v-539h-295l-179 408v-267h68v-141h-307v141h69v398h-69v141h347l196 -426v285h-68z" />
    <glyph glyph-name="O" unicode="O" horiz-adv-x="745" 
d="M366 -10c-198 0 -330 121 -330 349c0 231 134 351 343 351c198 0 330 -121 330 -349c0 -231 -134 -351 -343 -351zM372 139c61 0 96 46 96 198c0 149 -32 204 -95 204c-61 0 -96 -46 -96 -198c0 -149 32 -204 95 -204z" />
    <glyph glyph-name="Oacute" unicode="&#xd3;" horiz-adv-x="745" 
d="M366 -10c-198 0 -330 121 -330 349c0 231 134 351 343 351c198 0 330 -121 330 -349c0 -231 -134 -351 -343 -351zM372 139c61 0 96 46 96 198c0 149 -32 204 -95 204c-61 0 -96 -46 -96 -198c0 -149 32 -204 95 -204z" />
    <glyph glyph-name="Ocircumflex" unicode="&#xd4;" horiz-adv-x="745" 
d="M366 -10c-198 0 -330 121 -330 349c0 231 134 351 343 351c198 0 330 -121 330 -349c0 -231 -134 -351 -343 -351zM372 139c61 0 96 46 96 198c0 149 -32 204 -95 204c-61 0 -96 -46 -96 -198c0 -149 32 -204 95 -204z" />
    <glyph glyph-name="Odieresis" unicode="&#xd6;" horiz-adv-x="745" 
d="M366 -10c-198 0 -330 121 -330 349c0 231 134 351 343 351c198 0 330 -121 330 -349c0 -231 -134 -351 -343 -351zM372 139c61 0 96 46 96 198c0 149 -32 204 -95 204c-61 0 -96 -46 -96 -198c0 -149 32 -204 95 -204z" />
    <glyph glyph-name="Ograve" unicode="&#xd2;" horiz-adv-x="745" 
d="M366 -10c-198 0 -330 121 -330 349c0 231 134 351 343 351c198 0 330 -121 330 -349c0 -231 -134 -351 -343 -351zM372 139c61 0 96 46 96 198c0 149 -32 204 -95 204c-61 0 -96 -46 -96 -198c0 -149 32 -204 95 -204z" />
    <glyph glyph-name="Ohungarumlaut" unicode="&#x150;" horiz-adv-x="745" 
d="M366 -10c-198 0 -330 121 -330 349c0 231 134 351 343 351c198 0 330 -121 330 -349c0 -231 -134 -351 -343 -351zM372 139c61 0 96 46 96 198c0 149 -32 204 -95 204c-61 0 -96 -46 -96 -198c0 -149 32 -204 95 -204z" />
    <glyph glyph-name="Omacron" unicode="&#x14c;" horiz-adv-x="745" 
d="M366 -10c-198 0 -330 121 -330 349c0 231 134 351 343 351c198 0 330 -121 330 -349c0 -231 -134 -351 -343 -351zM372 139c61 0 96 46 96 198c0 149 -32 204 -95 204c-61 0 -96 -46 -96 -198c0 -149 32 -204 95 -204z" />
    <glyph glyph-name="Oslash" unicode="&#xd8;" horiz-adv-x="742" 
d="M669 712l-60 -102c64 -59 100 -149 100 -269c0 -231 -134 -351 -343 -351c-39 0 -76 5 -110 14l-69 -119l-125 70l70 119c-61 59 -96 148 -96 265c0 231 134 351 343 351c37 0 72 -4 105 -13l61 105zM277 343v-20l125 213c-9 4 -19 5 -29 5c-61 0 -96 -46 -96 -198z
M372 139c61 0 96 46 96 198v29l-129 -220c10 -5 21 -7 33 -7z" />
    <glyph glyph-name="Otilde" unicode="&#xd5;" horiz-adv-x="745" 
d="M366 -10c-198 0 -330 121 -330 349c0 231 134 351 343 351c198 0 330 -121 330 -349c0 -231 -134 -351 -343 -351zM372 139c61 0 96 46 96 198c0 149 -32 204 -95 204c-61 0 -96 -46 -96 -198c0 -149 32 -204 95 -204z" />
    <glyph glyph-name="OE" unicode="&#x152;" horiz-adv-x="1050" 
d="M36 341c0 222 183 339 410 339h574v-232h-163v89h-173v-125h38v44h110v-232h-110v45h-38v-126h180v109h163v-252h-594c-254 0 -397 112 -397 341zM277 349c0 -149 58 -206 162 -206h15v394h-14c-107 0 -163 -42 -163 -188z" />
    <glyph glyph-name="P" unicode="P" horiz-adv-x="704" 
d="M412 241h-74v-98h83v-143h-376v143h65v394h-65v143h376c162 0 263 -52 263 -208c0 -144 -83 -231 -272 -231zM392 537h-54v-153h45c50 0 67 30 67 77c0 51 -19 76 -58 76z" />
    <glyph glyph-name="Thorn" unicode="&#xde;" horiz-adv-x="677" 
d="M407 0h-362v143h67v394h-67v143h362v-143h-66v-27h53c162 0 263 -39 263 -158c0 -113 -83 -181 -272 -181h-44v-28h66v-143zM341 387v-93h25c43 0 57 18 57 47c0 31 -16 46 -48 46h-34z" />
    <glyph glyph-name="Q" unicode="Q" horiz-adv-x="745" 
d="M666 50h95c0 -128 -65 -183 -164 -183c-109 0 -145 60 -162 128c-22 -3 -45 -5 -69 -5c-198 0 -330 121 -330 349c0 231 134 351 343 351c198 0 330 -121 330 -349c0 -125 -39 -217 -108 -276c12 -37 22 -64 37 -64c14 0 28 5 28 49zM373 541c-66 0 -104 -46 -104 -198
c0 -31 2 -59 5 -84c23 31 63 48 116 48c33 0 61 -8 84 -23c1 16 2 34 2 53c0 149 -35 204 -103 204zM372 125c14 0 27 2 38 7c-9 32 -25 53 -58 53c-25 0 -38 -12 -38 -26c0 -21 22 -34 58 -34z" />
    <glyph glyph-name="R" unicode="R" horiz-adv-x="759" 
d="M663 212h98c0 -171 -48 -222 -180 -222c-272 0 -104 286 -213 286h-30v-133h45v-143h-338v143h65v394h-65v143h388c164 0 266 -45 266 -177c0 -71 -30 -134 -149 -149c133 -45 63 -228 95 -228c15 0 18 16 18 86zM338 419h56c53 0 71 21 71 56c0 42 -20 62 -61 62h-66
v-118z" />
    <glyph glyph-name="Racute" unicode="&#x154;" horiz-adv-x="759" 
d="M663 212h98c0 -171 -48 -222 -180 -222c-272 0 -104 286 -213 286h-30v-133h45v-143h-338v143h65v394h-65v143h388c164 0 266 -45 266 -177c0 -71 -30 -134 -149 -149c133 -45 63 -228 95 -228c15 0 18 16 18 86zM338 419h56c53 0 71 21 71 56c0 42 -20 62 -61 62h-66
v-118z" />
    <glyph glyph-name="Rcaron" unicode="&#x158;" horiz-adv-x="759" 
d="M663 212h98c0 -171 -48 -222 -180 -222c-272 0 -104 286 -213 286h-30v-133h45v-143h-338v143h65v394h-65v143h388c164 0 266 -45 266 -177c0 -71 -30 -134 -149 -149c133 -45 63 -228 95 -228c15 0 18 16 18 86zM338 419h56c53 0 71 21 71 56c0 42 -20 62 -61 62h-66
v-118z" />
    <glyph glyph-name="uni0156" unicode="&#x156;" horiz-adv-x="759" 
d="M663 212h98c0 -171 -48 -222 -180 -222c-272 0 -104 286 -213 286h-30v-133h45v-143h-338v143h65v394h-65v143h388c164 0 266 -45 266 -177c0 -71 -30 -134 -149 -149c133 -45 63 -228 95 -228c15 0 18 16 18 86zM338 419h56c53 0 71 21 71 56c0 42 -20 62 -61 62h-66
v-118z" />
    <glyph glyph-name="S" unicode="S" horiz-adv-x="668" 
d="M262 515c0 -106 379 -9 379 -302c0 -139 -96 -223 -238 -223c-79 0 -163 36 -193 114v-113h-162v238h162c0 -75 78 -102 152 -102c45 0 64 14 64 35c0 108 -379 14 -379 310c0 135 94 218 238 218c82 0 150 -34 176 -110v105h162v-227h-161c0 63 -64 93 -135 93
c-41 0 -65 -15 -65 -36z" />
    <glyph glyph-name="Sacute" unicode="&#x15a;" horiz-adv-x="668" 
d="M262 515c0 -106 379 -9 379 -302c0 -139 -96 -223 -238 -223c-79 0 -163 36 -193 114v-113h-162v238h162c0 -75 78 -102 152 -102c45 0 64 14 64 35c0 108 -379 14 -379 310c0 135 94 218 238 218c82 0 150 -34 176 -110v105h162v-227h-161c0 63 -64 93 -135 93
c-41 0 -65 -15 -65 -36z" />
    <glyph glyph-name="Scaron" unicode="&#x160;" horiz-adv-x="668" 
d="M262 515c0 -106 379 -9 379 -302c0 -139 -96 -223 -238 -223c-79 0 -163 36 -193 114v-113h-162v238h162c0 -75 78 -102 152 -102c45 0 64 14 64 35c0 108 -379 14 -379 310c0 135 94 218 238 218c82 0 150 -34 176 -110v105h162v-227h-161c0 63 -64 93 -135 93
c-41 0 -65 -15 -65 -36z" />
    <glyph glyph-name="Scedilla" unicode="&#x15e;" horiz-adv-x="668" 
d="M262 515c0 -106 379 -9 379 -302c0 -139 -96 -223 -238 -223c-79 0 -163 36 -193 114v-113h-162v238h162c0 -75 78 -102 152 -102c45 0 64 14 64 35c0 108 -379 14 -379 310c0 135 94 218 238 218c82 0 150 -34 176 -110v105h162v-227h-161c0 63 -64 93 -135 93
c-41 0 -65 -15 -65 -36z" />
    <glyph glyph-name="uni0218" unicode="&#x218;" horiz-adv-x="668" 
d="M262 515c0 -106 379 -9 379 -302c0 -139 -96 -223 -238 -223c-79 0 -163 36 -193 114v-113h-162v238h162c0 -75 78 -102 152 -102c45 0 64 14 64 35c0 108 -379 14 -379 310c0 135 94 218 238 218c82 0 150 -34 176 -110v105h162v-227h-161c0 63 -64 93 -135 93
c-41 0 -65 -15 -65 -36z" />
    <glyph glyph-name="T" unicode="T" horiz-adv-x="715" 
d="M164 537v-153h-154v296h695v-296h-153v153h-80v-394h82v-143h-393v143h82v394h-79z" />
    <glyph glyph-name="Tbar" unicode="&#x166;" horiz-adv-x="725" 
d="M705 680v-296h-153v153h-80v-193h132v-116h-132v-85h82v-143h-393v143h82v85h-132v116h132v193h-79v-153h-154v296h695z" />
    <glyph glyph-name="Tcaron" unicode="&#x164;" horiz-adv-x="715" 
d="M164 384h-154v296h695v-296h-153v153h-80v-394h82v-143h-393v143h82v394h-79v-153z" />
    <glyph glyph-name="uni0162" unicode="&#x162;" horiz-adv-x="715" 
d="M164 384h-154v296h695v-296h-153v153h-80v-394h82v-143h-393v143h82v394h-79v-153z" />
    <glyph glyph-name="uni021A" unicode="&#x21a;" horiz-adv-x="715" 
d="M164 384h-154v296h695v-296h-153v153h-80v-394h82v-143h-393v143h82v394h-79v-153z" />
    <glyph glyph-name="U" unicode="U" horiz-adv-x="754" 
d="M388 -10c-222 0 -306 98 -306 295v252h-65v143h358v-143h-66v-237c0 -122 27 -163 98 -163c70 0 96 40 96 148v252h-67v143h301v-143h-65v-246c0 -188 -76 -301 -284 -301z" />
    <glyph glyph-name="Uacute" unicode="&#xda;" horiz-adv-x="754" 
d="M388 -10c-222 0 -306 98 -306 295v252h-65v143h358v-143h-66v-237c0 -122 27 -163 98 -163c70 0 96 40 96 148v252h-67v143h301v-143h-65v-246c0 -188 -76 -301 -284 -301z" />
    <glyph glyph-name="Ucircumflex" unicode="&#xdb;" horiz-adv-x="754" 
d="M388 -10c-222 0 -306 98 -306 295v252h-65v143h358v-143h-66v-237c0 -122 27 -163 98 -163c70 0 96 40 96 148v252h-67v143h301v-143h-65v-246c0 -188 -76 -301 -284 -301z" />
    <glyph glyph-name="Udieresis" unicode="&#xdc;" horiz-adv-x="754" 
d="M388 -10c-222 0 -306 98 -306 295v252h-65v143h358v-143h-66v-237c0 -122 27 -163 98 -163c70 0 96 40 96 148v252h-67v143h301v-143h-65v-246c0 -188 -76 -301 -284 -301z" />
    <glyph glyph-name="Ugrave" unicode="&#xd9;" horiz-adv-x="754" 
d="M388 -10c-222 0 -306 98 -306 295v252h-65v143h358v-143h-66v-237c0 -122 27 -163 98 -163c70 0 96 40 96 148v252h-67v143h301v-143h-65v-246c0 -188 -76 -301 -284 -301z" />
    <glyph glyph-name="Uhungarumlaut" unicode="&#x170;" horiz-adv-x="754" 
d="M388 -10c-222 0 -306 98 -306 295v252h-65v143h358v-143h-66v-237c0 -122 27 -163 98 -163c70 0 96 40 96 148v252h-67v143h301v-143h-65v-246c0 -188 -76 -301 -284 -301z" />
    <glyph glyph-name="Umacron" unicode="&#x16a;" horiz-adv-x="754" 
d="M388 -10c-222 0 -306 98 -306 295v252h-65v143h358v-143h-66v-237c0 -122 27 -163 98 -163c70 0 96 40 96 148v252h-67v143h301v-143h-65v-246c0 -188 -76 -301 -284 -301z" />
    <glyph glyph-name="Uogonek" unicode="&#x172;" horiz-adv-x="754" 
d="M459 -185c-78 0 -119 37 -119 90c0 33 17 64 73 86c0 0 -15 -1 -25 -1c-222 0 -306 98 -306 295v254h-65v141h358v-141h-66v-239c0 -122 27 -163 98 -163c70 0 96 40 96 148v254h-67v141h301v-141h-65v-248c0 -249 -116 -247 -166 -297c-13 -13 -22 -31 -22 -54
c0 -21 7 -33 20 -33c9 0 15 3 16 16l67 -9c-4 -67 -47 -99 -128 -99z" />
    <glyph glyph-name="Uring" unicode="&#x16e;" horiz-adv-x="754" 
d="M388 -10c-222 0 -306 98 -306 295v252h-65v143h358v-143h-66v-237c0 -122 27 -163 98 -163c70 0 96 40 96 148v252h-67v143h301v-143h-65v-246c0 -188 -76 -301 -284 -301z" />
    <glyph glyph-name="V" unicode="V" horiz-adv-x="746" 
d="M440 680h304v-143h-53l-184 -537h-289l-162 537h-54v143h372v-143h-81l111 -368l116 368h-80v143z" />
    <glyph glyph-name="W" unicode="W" horiz-adv-x="1104" 
d="M819 680h283v-143h-54l-142 -537h-289l-73 241l-75 -241h-290l-122 537h-55v143h337v-143h-49l80 -365l95 327l-11 38h-49v143h348v-143h-62l105 -349l84 349h-61v143z" />
    <glyph glyph-name="Wacute" unicode="&#x1e82;" horiz-adv-x="1104" 
d="M819 680h283v-143h-54l-142 -537h-289l-73 241l-75 -241h-290l-122 537h-55v143h337v-143h-49l80 -365l95 327l-11 38h-49v143h348v-143h-62l105 -349l84 349h-61v143z" />
    <glyph glyph-name="Wcircumflex" unicode="&#x174;" horiz-adv-x="1104" 
d="M819 680h283v-143h-54l-142 -537h-289l-73 241l-75 -241h-290l-122 537h-55v143h337v-143h-49l80 -365l95 327l-11 38h-49v143h348v-143h-62l105 -349l84 349h-61v143z" />
    <glyph glyph-name="Wdieresis" unicode="&#x1e84;" horiz-adv-x="1104" 
d="M819 680h283v-143h-54l-142 -537h-289l-73 241l-75 -241h-290l-122 537h-55v143h337v-143h-49l80 -365l95 327l-11 38h-49v143h348v-143h-62l105 -349l84 349h-61v143z" />
    <glyph glyph-name="Wgrave" unicode="&#x1e80;" horiz-adv-x="1104" 
d="M819 680h283v-143h-54l-142 -537h-289l-73 241l-75 -241h-290l-122 537h-55v143h337v-143h-49l80 -365l95 327l-11 38h-49v143h348v-143h-62l105 -349l84 349h-61v143z" />
    <glyph glyph-name="X" unicode="X" horiz-adv-x="769" 
d="M544 338l177 -197h28v-141h-381v141h55l-104 115l-83 -115h47v-141h-263v141h34l167 224l-157 174h-39v141h377v-141h-39l82 -91l67 91h-36v141h257l1 -141h-34z" />
    <glyph glyph-name="Y" unicode="Y" horiz-adv-x="670" 
d="M668 537h-42l-179 -294v-103h69v-140h-365v140h69v92l-174 305h-44v143h343v-143h-43l78 -138l76 138h-46v143h258v-143z" />
    <glyph glyph-name="Yacute" unicode="&#xdd;" horiz-adv-x="670" 
d="M668 537h-42l-179 -294v-103h69v-140h-365v140h69v92l-174 305h-44v143h343v-143h-43l78 -138l76 138h-46v143h258v-143z" />
    <glyph glyph-name="Ycircumflex" unicode="&#x176;" horiz-adv-x="670" 
d="M668 537h-42l-179 -294v-103h69v-140h-365v140h69v92l-174 305h-44v143h343v-143h-43l78 -138l76 138h-46v143h258v-143z" />
    <glyph glyph-name="Ydieresis" unicode="&#x178;" horiz-adv-x="670" 
d="M668 537h-42l-179 -294v-103h69v-140h-365v140h69v92l-174 305h-44v143h343v-143h-43l78 -138l76 138h-46v143h258v-143z" />
    <glyph glyph-name="Ygrave" unicode="&#x1ef2;" horiz-adv-x="670" 
d="M668 537h-42l-179 -294v-103h69v-140h-365v140h69v92l-174 305h-44v143h343v-143h-43l78 -138l76 138h-46v143h258v-143z" />
    <glyph glyph-name="Z" unicode="Z" horiz-adv-x="667" 
d="M478 141v131h166v-272h-606v141l318 398h-145v-131h-166v272h584v-141l-314 -398h163z" />
    <glyph glyph-name="Zacute" unicode="&#x179;" horiz-adv-x="667" 
d="M478 141v131h166v-272h-606v141l318 398h-145v-131h-166v272h584v-141l-314 -398h163z" />
    <glyph glyph-name="Zcaron" unicode="&#x17d;" horiz-adv-x="667" 
d="M478 141v131h166v-272h-606v141l318 398h-145v-131h-166v272h584v-141l-314 -398h163z" />
    <glyph glyph-name="Zdotaccent" unicode="&#x17b;" horiz-adv-x="667" 
d="M478 141v131h166v-272h-606v141l318 398h-145v-131h-166v272h584v-141l-314 -398h163z" />
    <glyph glyph-name="uni0162.001" horiz-adv-x="715" 
d="M164 384h-154v296h695v-296h-153v153h-80v-394h82v-143h-393v143h82v394h-79v-153z" />
    <glyph glyph-name="Q.alt" horiz-adv-x="745" 
d="M666 50h95c0 -128 -65 -183 -164 -183c-109 0 -145 60 -162 128c-22 -3 -45 -5 -69 -5c-198 0 -330 121 -330 349c0 231 134 351 343 351c198 0 330 -121 330 -349c0 -125 -39 -217 -108 -276c12 -37 22 -64 37 -64c14 0 28 5 28 49zM373 541c-66 0 -104 -46 -104 -198
c0 -31 2 -59 5 -84c23 31 63 48 116 48c33 0 61 -8 84 -23c1 16 2 34 2 53c0 149 -35 204 -103 204zM372 125c14 0 27 2 38 7c-9 32 -25 53 -58 53c-25 0 -38 -12 -38 -26c0 -21 22 -34 58 -34z" />
    <glyph glyph-name="Q.alt2" horiz-adv-x="745" 
d="M666 50h95c0 -128 -65 -183 -164 -183c-109 0 -145 60 -162 128c-22 -3 -45 -5 -69 -5c-198 0 -330 121 -330 349c0 231 134 351 343 351c198 0 330 -121 330 -349c0 -125 -39 -217 -108 -276c12 -37 22 -64 37 -64c14 0 28 5 28 49zM373 541c-66 0 -104 -46 -104 -198
c0 -31 2 -59 5 -84c23 31 63 48 116 48c33 0 61 -8 84 -23c1 16 2 34 2 53c0 149 -35 204 -103 204zM372 125c14 0 27 2 38 7c-9 32 -25 53 -58 53c-25 0 -38 -12 -38 -26c0 -21 22 -34 58 -34z" />
    <glyph glyph-name="Ccedilla.ss01" horiz-adv-x="673" 
d="M470 258h182c11 -159 -93 -268 -286 -268c-215 0 -330 109 -330 347c0 239 136 353 289 353c89 0 144 -44 160 -114v117h158v-257h-158c0 74 -46 107 -96 107c-75 0 -116 -51 -116 -192c0 -159 35 -212 111 -212s88 46 86 119z" />
    <glyph glyph-name="Scedilla.ss01" horiz-adv-x="668" 
d="M262 515c0 -106 379 -9 379 -302c0 -139 -96 -223 -238 -223c-79 0 -163 36 -193 114v-113h-162v238h162c0 -75 78 -102 152 -102c45 0 64 14 64 35c0 108 -379 14 -379 310c0 135 94 218 238 218c82 0 150 -34 176 -110v105h162v-227h-161c0 63 -64 93 -135 93
c-41 0 -65 -15 -65 -36z" />
    <glyph glyph-name="a" unicode="a" horiz-adv-x="628" 
d="M568 202h68c-1 -134 -35 -212 -173 -212c-98 0 -134 44 -146 99c-24 -74 -97 -99 -145 -99c-94 0 -155 54 -155 154c0 112 74 159 225 159c30 0 55 -3 75 -7c0 60 -24 81 -56 81c-30 0 -44 -12 -45 -44h-173v195h176v-119c16 85 86 126 165 126c113 0 158 -75 158 -194
c1 -45 -5 -124 -5 -164c0 -28 5 -36 14 -36c16 0 15 26 17 61zM279 132c14 0 32 7 35 17l1 72c-9 2 -19 3 -28 3c-33 0 -49 -17 -49 -45c0 -33 17 -47 41 -47z" />
    <glyph glyph-name="aacute" unicode="&#xe1;" horiz-adv-x="628" 
d="M568 202h68c-1 -134 -35 -212 -173 -212c-98 0 -134 44 -146 99c-24 -74 -97 -99 -145 -99c-94 0 -155 54 -155 154c0 112 74 159 225 159c30 0 55 -3 75 -7c0 60 -24 81 -56 81c-30 0 -44 -12 -45 -44h-173v195h176v-119c16 85 86 126 165 126c113 0 158 -75 158 -194
c1 -45 -5 -124 -5 -164c0 -28 5 -36 14 -36c16 0 15 26 17 61zM279 132c14 0 32 7 35 17l1 72c-9 2 -19 3 -28 3c-33 0 -49 -17 -49 -45c0 -33 17 -47 41 -47z" />
    <glyph glyph-name="abreve" unicode="&#x103;" horiz-adv-x="628" 
d="M568 202h68c-1 -134 -35 -212 -173 -212c-98 0 -134 44 -146 99c-24 -74 -97 -99 -145 -99c-94 0 -155 54 -155 154c0 112 74 159 225 159c30 0 55 -3 75 -7c0 60 -24 81 -56 81c-30 0 -44 -12 -45 -44h-173v195h176v-119c16 85 86 126 165 126c113 0 158 -75 158 -194
c1 -45 -5 -124 -5 -164c0 -28 5 -36 14 -36c16 0 15 26 17 61zM279 132c14 0 32 7 35 17l1 72c-9 2 -19 3 -28 3c-33 0 -49 -17 -49 -45c0 -33 17 -47 41 -47z" />
    <glyph glyph-name="acircumflex" unicode="&#xe2;" horiz-adv-x="628" 
d="M568 202h68c-1 -134 -35 -212 -173 -212c-98 0 -134 44 -146 99c-24 -74 -97 -99 -145 -99c-94 0 -155 54 -155 154c0 112 74 159 225 159c30 0 55 -3 75 -7c0 60 -24 81 -56 81c-30 0 -44 -12 -45 -44h-173v195h176v-119c16 85 86 126 165 126c113 0 158 -75 158 -194
c1 -45 -5 -124 -5 -164c0 -28 5 -36 14 -36c16 0 15 26 17 61zM279 132c14 0 32 7 35 17l1 72c-9 2 -19 3 -28 3c-33 0 -49 -17 -49 -45c0 -33 17 -47 41 -47z" />
    <glyph glyph-name="adieresis" unicode="&#xe4;" horiz-adv-x="628" 
d="M568 202h68c-1 -134 -35 -212 -173 -212c-98 0 -134 44 -146 99c-24 -74 -97 -99 -145 -99c-94 0 -155 54 -155 154c0 112 74 159 225 159c30 0 55 -3 75 -7c0 60 -24 81 -56 81c-30 0 -44 -12 -45 -44h-173v195h176v-119c16 85 86 126 165 126c113 0 158 -75 158 -194
c1 -45 -5 -124 -5 -164c0 -28 5 -36 14 -36c16 0 15 26 17 61zM279 132c14 0 32 7 35 17l1 72c-9 2 -19 3 -28 3c-33 0 -49 -17 -49 -45c0 -33 17 -47 41 -47z" />
    <glyph glyph-name="agrave" unicode="&#xe0;" horiz-adv-x="628" 
d="M568 202h68c-1 -134 -35 -212 -173 -212c-98 0 -134 44 -146 99c-24 -74 -97 -99 -145 -99c-94 0 -155 54 -155 154c0 112 74 159 225 159c30 0 55 -3 75 -7c0 60 -24 81 -56 81c-30 0 -44 -12 -45 -44h-173v195h176v-119c16 85 86 126 165 126c113 0 158 -75 158 -194
c1 -45 -5 -124 -5 -164c0 -28 5 -36 14 -36c16 0 15 26 17 61zM279 132c14 0 32 7 35 17l1 72c-9 2 -19 3 -28 3c-33 0 -49 -17 -49 -45c0 -33 17 -47 41 -47z" />
    <glyph glyph-name="amacron" unicode="&#x101;" horiz-adv-x="628" 
d="M568 202h68c-1 -134 -35 -212 -173 -212c-98 0 -134 44 -146 99c-24 -74 -97 -99 -145 -99c-94 0 -155 54 -155 154c0 112 74 159 225 159c30 0 55 -3 75 -7c0 60 -24 81 -56 81c-30 0 -44 -12 -45 -44h-173v195h176v-119c16 85 86 126 165 126c113 0 158 -75 158 -194
c1 -45 -5 -124 -5 -164c0 -28 5 -36 14 -36c16 0 15 26 17 61zM279 132c14 0 32 7 35 17l1 72c-9 2 -19 3 -28 3c-33 0 -49 -17 -49 -45c0 -33 17 -47 41 -47z" />
    <glyph glyph-name="aogonek" unicode="&#x105;" horiz-adv-x="620" 
d="M536 -97c15 0 22 6 25 20l67 -9c-4 -67 -53 -99 -134 -99c-76 0 -119 34 -119 82c0 34 13 69 94 93h-9c-95 0 -131 43 -142 104c-21 -78 -95 -104 -145 -104c-94 0 -156 53 -156 150c0 112 71 158 212 158c42 0 71 -4 91 -9c2 70 -23 95 -59 95s-50 -14 -51 -49h-166v193
h168v-121c17 86 89 128 176 128c105 0 147 -77 147 -197c0 -46 -7 -124 -7 -163c0 -32 6 -41 18 -41c17 0 19 22 19 68h63c0 -184 -75 -184 -107 -219c-6 -10 -12 -23 -12 -43c0 -24 10 -37 27 -37zM283 124c13 0 28 8 32 22l3 72c-12 4 -25 6 -36 6c-22 0 -41 -19 -41 -49
c0 -35 19 -51 42 -51z" />
    <glyph glyph-name="aring" unicode="&#xe5;" horiz-adv-x="628" 
d="M568 202h68c-1 -134 -35 -212 -173 -212c-98 0 -134 44 -146 99c-24 -74 -97 -99 -145 -99c-94 0 -155 54 -155 154c0 112 74 159 225 159c30 0 55 -3 75 -7c0 60 -24 81 -56 81c-30 0 -44 -12 -45 -44h-173v195h176v-119c16 85 86 126 165 126c113 0 158 -75 158 -194
c1 -45 -5 -124 -5 -164c0 -28 5 -36 14 -36c16 0 15 26 17 61zM279 132c14 0 32 7 35 17l1 72c-9 2 -19 3 -28 3c-33 0 -49 -17 -49 -45c0 -33 17 -47 41 -47z" />
    <glyph glyph-name="atilde" unicode="&#xe3;" horiz-adv-x="628" 
d="M568 202h68c-1 -134 -35 -212 -173 -212c-98 0 -134 44 -146 99c-24 -74 -97 -99 -145 -99c-94 0 -155 54 -155 154c0 112 74 159 225 159c30 0 55 -3 75 -7c0 60 -24 81 -56 81c-30 0 -44 -12 -45 -44h-173v195h176v-119c16 85 86 126 165 126c113 0 158 -75 158 -194
c1 -45 -5 -124 -5 -164c0 -28 5 -36 14 -36c16 0 15 26 17 61zM279 132c14 0 32 7 35 17l1 72c-9 2 -19 3 -28 3c-33 0 -49 -17 -49 -45c0 -33 17 -47 41 -47z" />
    <glyph glyph-name="ae" unicode="&#xe6;" horiz-adv-x="849" 
d="M628 186h199c13 -135 -95 -196 -248 -196c-117 0 -198 37 -238 121c-18 -84 -79 -121 -163 -121c-100 0 -161 56 -161 159c0 116 74 164 225 164c30 0 55 -3 75 -7c-3 52 -26 71 -56 71s-44 -11 -45 -40h-173v191h176v-113c17 81 79 120 150 120c54 0 89 -19 111 -53
c31 35 79 53 142 53c138 0 210 -83 210 -244c0 -30 -1 -47 -5 -75h-291c3 -64 15 -90 53 -90c27 0 42 15 39 60zM581 405c-25 0 -41 -18 -45 -93h78c1 5 1 10 1 17c0 54 -8 76 -34 76zM279 132c14 0 32 7 35 17l2 82c-10 2 -20 3 -29 3c-33 0 -49 -19 -49 -50
c0 -37 17 -52 41 -52z" />
    <glyph glyph-name="b" unicode="b" horiz-adv-x="619" 
d="M420 535c133 0 186 -120 186 -258c0 -154 -61 -287 -210 -287c-70 0 -119 35 -137 114l-45 -104h-170v598h-53v132h277v-313c20 84 82 118 152 118zM317 141c29 0 56 26 56 118c0 87 -24 125 -61 125c-26 0 -44 -14 -44 -58v-134c0 -30 22 -51 49 -51z" />
    <glyph glyph-name="c" unicode="c" horiz-adv-x="512" 
d="M327 217h182c18 -162 -96 -227 -239 -227c-169 0 -257 84 -257 271c0 184 75 274 204 274c67 0 112 -32 125 -112v105h156v-220h-161c1 68 -14 87 -42 87c-31 0 -49 -20 -49 -120c0 -122 12 -149 45 -149s42 29 36 91z" />
    <glyph glyph-name="cacute" unicode="&#x107;" horiz-adv-x="512" 
d="M327 217h182c18 -162 -96 -227 -239 -227c-169 0 -257 84 -257 271c0 184 75 274 204 274c67 0 112 -32 125 -112v105h156v-220h-161c1 68 -14 87 -42 87c-31 0 -49 -20 -49 -120c0 -122 12 -149 45 -149s42 29 36 91z" />
    <glyph glyph-name="ccaron" unicode="&#x10d;" horiz-adv-x="512" 
d="M327 217h182c18 -162 -96 -227 -239 -227c-169 0 -257 84 -257 271c0 184 75 274 204 274c67 0 112 -32 125 -112v105h156v-220h-161c1 68 -14 87 -42 87c-31 0 -49 -20 -49 -120c0 -122 12 -149 45 -149s42 29 36 91z" />
    <glyph glyph-name="ccedilla" unicode="&#xe7;" horiz-adv-x="512" 
d="M327 217h182c18 -162 -96 -227 -239 -227c-169 0 -257 84 -257 271c0 184 75 274 204 274c67 0 112 -32 125 -112v105h156v-220h-161c1 68 -14 87 -42 87c-31 0 -49 -20 -49 -120c0 -122 12 -149 45 -149s42 29 36 91z" />
    <glyph glyph-name="cdotaccent" unicode="&#x10b;" horiz-adv-x="512" 
d="M327 217h182c18 -162 -96 -227 -239 -227c-169 0 -257 84 -257 271c0 184 75 274 204 274c67 0 112 -32 125 -112v105h156v-220h-161c1 68 -14 87 -42 87c-31 0 -49 -20 -49 -120c0 -122 12 -149 45 -149s42 29 36 91z" />
    <glyph glyph-name="d" unicode="d" horiz-adv-x="620" 
d="M575 730v-598h48v-132h-264v119c-19 -93 -85 -129 -160 -129c-133 0 -186 119 -186 259c0 166 60 286 202 286c70 0 118 -32 136 -105v168h-53v132h277zM307 141c26 0 44 14 44 58v134c0 30 -22 51 -49 51c-29 0 -56 -26 -56 -118c0 -87 24 -125 61 -125z" />
    <glyph glyph-name="eth" unicode="&#xf0;" horiz-adv-x="594" 
d="M518 651l-95 -41c116 -92 158 -207 158 -311c0 -204 -124 -309 -292 -309c-172 0 -276 84 -276 248c0 145 66 237 202 237c60 0 109 -25 133 -94c-11 47 -42 102 -87 154l-106 -45l-38 89l69 30c-21 17 -45 34 -69 48l35 83c67 -18 124 -41 173 -66l155 66zM294 125
c33 0 54 24 54 107c0 76 -12 108 -48 108c-33 0 -54 -24 -54 -107c0 -76 12 -108 48 -108z" />
    <glyph glyph-name="dcaron" unicode="&#x10f;" horiz-adv-x="758" 
d="M575 730v-598h48v-132h-264v119c-19 -93 -85 -129 -160 -129c-133 0 -186 119 -186 259c0 166 60 286 202 286c70 0 118 -32 136 -105v168h-53v132h277zM307 141c26 0 44 14 44 58v134c0 30 -22 51 -49 51c-29 0 -56 -26 -56 -118c0 -87 24 -125 61 -125z" />
    <glyph glyph-name="dcroat" unicode="&#x111;" horiz-adv-x="616" 
d="M639 686v-129h-64v-425h48v-132h-258l-5 117c-20 -92 -85 -127 -161 -127c-133 0 -186 119 -186 259c0 166 60 286 206 286c68 0 113 -31 132 -102v124h-94v129h94v54h224v-54h64zM307 141c26 0 44 14 44 58v134c0 30 -22 51 -49 51c-29 0 -56 -26 -56 -118
c0 -87 24 -125 61 -125z" />
    <glyph glyph-name="e" unicode="e" horiz-adv-x="560" 
d="M339 186h199c13 -135 -95 -196 -248 -196c-182 0 -277 82 -277 263c0 191 111 282 293 282c156 0 237 -83 237 -244c0 -30 -1 -47 -5 -75h-291c3 -64 15 -90 53 -90c27 0 42 15 39 60zM292 405c-25 0 -41 -18 -45 -93h78c1 5 1 10 1 17c0 54 -8 76 -34 76z" />
    <glyph glyph-name="eacute" unicode="&#xe9;" horiz-adv-x="560" 
d="M339 186h199c13 -135 -95 -196 -248 -196c-182 0 -277 82 -277 263c0 191 111 282 293 282c156 0 237 -83 237 -244c0 -30 -1 -47 -5 -75h-291c3 -64 15 -90 53 -90c27 0 42 15 39 60zM292 405c-25 0 -41 -18 -45 -93h78c1 5 1 10 1 17c0 54 -8 76 -34 76z" />
    <glyph glyph-name="ecaron" unicode="&#x11b;" horiz-adv-x="560" 
d="M339 186h199c13 -135 -95 -196 -248 -196c-182 0 -277 82 -277 263c0 191 111 282 293 282c156 0 237 -83 237 -244c0 -30 -1 -47 -5 -75h-291c3 -64 15 -90 53 -90c27 0 42 15 39 60zM292 405c-25 0 -41 -18 -45 -93h78c1 5 1 10 1 17c0 54 -8 76 -34 76z" />
    <glyph glyph-name="ecircumflex" unicode="&#xea;" horiz-adv-x="560" 
d="M339 186h199c13 -135 -95 -196 -248 -196c-182 0 -277 82 -277 263c0 191 111 282 293 282c156 0 237 -83 237 -244c0 -30 -1 -47 -5 -75h-291c3 -64 15 -90 53 -90c27 0 42 15 39 60zM292 405c-25 0 -41 -18 -45 -93h78c1 5 1 10 1 17c0 54 -8 76 -34 76z" />
    <glyph glyph-name="edieresis" unicode="&#xeb;" horiz-adv-x="560" 
d="M339 186h199c13 -135 -95 -196 -248 -196c-182 0 -277 82 -277 263c0 191 111 282 293 282c156 0 237 -83 237 -244c0 -30 -1 -47 -5 -75h-291c3 -64 15 -90 53 -90c27 0 42 15 39 60zM292 405c-25 0 -41 -18 -45 -93h78c1 5 1 10 1 17c0 54 -8 76 -34 76z" />
    <glyph glyph-name="edotaccent" unicode="&#x117;" horiz-adv-x="560" 
d="M339 186h199c13 -135 -95 -196 -248 -196c-182 0 -277 82 -277 263c0 191 111 282 293 282c156 0 237 -83 237 -244c0 -30 -1 -47 -5 -75h-291c3 -64 15 -90 53 -90c27 0 42 15 39 60zM292 405c-25 0 -41 -18 -45 -93h78c1 5 1 10 1 17c0 54 -8 76 -34 76z" />
    <glyph glyph-name="egrave" unicode="&#xe8;" horiz-adv-x="560" 
d="M339 186h199c13 -135 -95 -196 -248 -196c-182 0 -277 82 -277 263c0 191 111 282 293 282c156 0 237 -83 237 -244c0 -30 -1 -47 -5 -75h-291c3 -64 15 -90 53 -90c27 0 42 15 39 60zM292 405c-25 0 -41 -18 -45 -93h78c1 5 1 10 1 17c0 54 -8 76 -34 76z" />
    <glyph glyph-name="emacron" unicode="&#x113;" horiz-adv-x="560" 
d="M339 186h199c13 -135 -95 -196 -248 -196c-182 0 -277 82 -277 263c0 191 111 282 293 282c156 0 237 -83 237 -244c0 -30 -1 -47 -5 -75h-291c3 -64 15 -90 53 -90c27 0 42 15 39 60zM292 405c-25 0 -41 -18 -45 -93h78c1 5 1 10 1 17c0 54 -8 76 -34 76z" />
    <glyph glyph-name="eogonek" unicode="&#x119;" horiz-adv-x="550" 
d="M533 293c0 -30 -2 -46 -7 -75h-291c4 -70 19 -100 63 -100c19 0 43 6 39 68h187c14 -134 -65 -138 -108 -183c-9 -10 -18 -29 -18 -62c0 -25 9 -38 31 -38c10 0 19 4 21 20l66 -9c-3 -67 -55 -99 -132 -99c-76 0 -120 38 -120 90c0 38 18 68 76 88c-17 -2 -35 -3 -54 -3
c-180 0 -273 81 -273 264c0 191 108 281 288 281c152 0 232 -82 232 -242zM287 412c-29 0 -48 -20 -52 -103h91c1 6 1 13 1 21c0 30 1 82 -40 82z" />
    <glyph glyph-name="f" unicode="f" horiz-adv-x="390" 
d="M487 578l-151 -23c4 36 -7 49 -27 49c-32 0 -39 -31 -39 -59c0 -7 1 -13 2 -20h123v-132h-90v-261h64v-132h-342v132h53v261h-77v132h77c7 145 94 215 240 215c126 0 171 -57 171 -127c0 -11 -1 -21 -4 -35z" />
    <glyph glyph-name="g" unicode="g" horiz-adv-x="582" 
d="M228 165h157c165 0 210 -70 210 -161c0 -108 -71 -189 -351 -189c-207 0 -257 42 -257 91c0 40 42 67 128 78c-72 15 -106 53 -106 107c0 59 41 106 134 127c-77 23 -121 71 -121 145c0 116 117 171 275 171c33 0 63 -2 91 -7c0 38 -1 74 -3 112l188 22
c11 -89 -14 -143 -124 -149c68 -25 107 -72 107 -141c0 -117 -118 -171 -274 -171c-30 0 -59 2 -84 6c-11 -7 -14 -13 -14 -22c0 -12 12 -19 44 -19zM290 425c-21 0 -37 -12 -37 -60c0 -39 10 -56 35 -56c20 0 38 10 38 60c0 40 -12 56 -36 56zM265 -64c131 0 149 9 149 21
c0 10 -9 19 -48 19h-169c-8 0 -16 0 -23 1c-4 -7 -5 -11 -5 -14c0 -17 12 -27 96 -27z" />
    <glyph glyph-name="gbreve" unicode="&#x11f;" horiz-adv-x="582" 
d="M250 563c-89 0 -136 54 -149 156l85 16c6 -38 26 -56 64 -56c37 0 57 18 64 56l85 -16c-13 -102 -60 -156 -149 -156zM228 165h157c165 0 210 -70 210 -161c0 -108 -71 -189 -351 -189c-207 0 -257 42 -257 91c0 40 42 67 128 78c-72 15 -106 53 -106 107
c0 59 41 106 134 127c-77 23 -121 71 -121 145c0 116 117 171 275 171c39 0 74 -3 105 -9c0 38 -1 76 -3 114l174 22c11 -91 -11 -147 -108 -156c58 -26 91 -70 91 -134c0 -117 -118 -171 -274 -171c-30 0 -59 2 -84 6c-11 -7 -14 -13 -14 -22c0 -12 12 -19 44 -19zM290 425
c-20 0 -35 -12 -35 -60c0 -39 9 -56 33 -56c19 0 36 10 36 60c0 40 -11 56 -34 56zM265 -64c131 0 149 9 149 21c0 10 -9 19 -48 19h-169c-8 0 -16 0 -23 1c-4 -7 -5 -11 -5 -14c0 -17 12 -27 96 -27z" />
    <glyph glyph-name="uni0123" unicode="&#x123;" horiz-adv-x="582" 
d="M228 165h157c165 0 210 -70 210 -161c0 -108 -71 -189 -351 -189c-207 0 -257 42 -257 91c0 40 42 67 128 78c-72 15 -106 53 -106 107c0 59 41 106 134 127c-77 23 -121 71 -121 145c0 116 117 171 275 171c33 0 63 -2 91 -7c0 38 -1 74 -3 112l188 22
c11 -89 -14 -143 -124 -149c68 -25 107 -72 107 -141c0 -117 -118 -171 -274 -171c-30 0 -59 2 -84 6c-11 -7 -14 -13 -14 -22c0 -12 12 -19 44 -19zM290 425c-21 0 -37 -12 -37 -60c0 -39 10 -56 35 -56c20 0 38 10 38 60c0 40 -12 56 -36 56zM265 -64c131 0 149 9 149 21
c0 10 -9 19 -48 19h-169c-8 0 -16 0 -23 1c-4 -7 -5 -11 -5 -14c0 -17 12 -27 96 -27z" />
    <glyph glyph-name="gdotaccent" unicode="&#x121;" horiz-adv-x="582" 
d="M228 165h157c165 0 210 -70 210 -161c0 -108 -71 -189 -351 -189c-207 0 -257 42 -257 91c0 40 42 67 128 78c-72 15 -106 53 -106 107c0 59 41 106 134 127c-77 23 -121 71 -121 145c0 116 117 171 275 171c33 0 63 -2 91 -7c0 38 -1 74 -3 112l188 22
c11 -89 -14 -143 -124 -149c68 -25 107 -72 107 -141c0 -117 -118 -171 -274 -171c-30 0 -59 2 -84 6c-11 -7 -14 -13 -14 -22c0 -12 12 -19 44 -19zM290 425c-21 0 -37 -12 -37 -60c0 -39 10 -56 35 -56c20 0 38 10 38 60c0 40 -12 56 -36 56zM265 -64c131 0 149 9 149 21
c0 10 -9 19 -48 19h-169c-8 0 -16 0 -23 1c-4 -7 -5 -11 -5 -14c0 -17 12 -27 96 -27z" />
    <glyph glyph-name="h" unicode="h" horiz-adv-x="670" 
d="M628 355v-223h41v-132h-305v132h39v159c0 62 -17 86 -49 86c-36 0 -56 -30 -56 -85v-160h39v-132h-312v132h48v466h-48v132h273v-325c25 108 108 130 172 130c107 0 158 -74 158 -180z" />
    <glyph glyph-name="hbar" unicode="&#x127;" horiz-adv-x="670" 
d="M628 355v-223h41v-132h-305v132h39v159c0 62 -17 86 -49 86c-36 0 -56 -30 -56 -85v-160h39v-132h-312v132h48v425h-64v129h64v54h225v-54h93v-129h-93v-152c25 108 108 130 172 130c107 0 158 -74 158 -180z" />
    <glyph glyph-name="i" unicode="i" horiz-adv-x="343" 
d="M181 548c-82 0 -126 45 -126 115c0 71 56 115 126 115c82 0 126 -46 126 -115c0 -71 -57 -115 -126 -115zM346 0h-321v132h48v261h-48v132h273v-393h48v-132z" />
    <glyph glyph-name="dotlessi" unicode="&#x131;" horiz-adv-x="343" 
d="M346 0h-321v132h48v261h-48v132h273v-393h48v-132z" />
    <glyph glyph-name="iacute" unicode="&#xed;" horiz-adv-x="343" 
d="M346 0h-321v132h48v261h-48v132h273v-393h48v-132z" />
    <glyph glyph-name="icircumflex" unicode="&#xee;" horiz-adv-x="343" 
d="M346 0h-321v132h48v261h-48v132h273v-393h48v-132z" />
    <glyph glyph-name="idieresis" unicode="&#xef;" horiz-adv-x="343" 
d="M346 0h-321v132h48v261h-48v132h273v-393h48v-132z" />
    <glyph glyph-name="i.loclTRK" horiz-adv-x="343" 
d="M181 548c-82 0 -126 45 -126 115c0 71 56 115 126 115c82 0 126 -46 126 -115c0 -71 -57 -115 -126 -115zM346 0h-321v132h48v261h-48v132h273v-393h48v-132z" />
    <glyph glyph-name="igrave" unicode="&#xec;" horiz-adv-x="343" 
d="M346 0h-321v132h48v261h-48v132h273v-393h48v-132z" />
    <glyph glyph-name="imacron" unicode="&#x12b;" horiz-adv-x="343" 
d="M346 0h-321v132h48v261h-48v132h273v-393h48v-132z" />
    <glyph glyph-name="iogonek" unicode="&#x12f;" horiz-adv-x="343" 
d="M181 548c-82 0 -126 45 -126 115c0 71 56 115 126 115c82 0 126 -46 126 -115c0 -71 -57 -115 -126 -115zM346 0h-321v132h48v261h-48v132h273v-393h48v-132z" />
    <glyph glyph-name="j" unicode="j" horiz-adv-x="314" 
d="M165 548c-82 0 -126 45 -126 115c0 71 56 115 126 115c82 0 126 -46 126 -115c0 -71 -56 -115 -126 -115zM29 -185c-106 0 -179 42 -179 120c0 12 1 24 4 38h156c-2 -13 5 -24 20 -24c18 0 27 11 27 62v382h-48v132h273v-467c0 -164 -78 -243 -253 -243z" />
    <glyph glyph-name="uni0237" unicode="&#x237;" horiz-adv-x="315" 
d="M29 -185c-106 0 -179 42 -179 120c0 12 1 24 4 38h156c-2 -13 5 -24 20 -24c18 0 27 11 27 62v382h-48v132h273v-467c0 -164 -78 -243 -253 -243z" />
    <glyph glyph-name="uni006A0301" horiz-adv-x="315" 
d="M29 -185c-106 0 -179 42 -179 120c0 12 1 24 4 38h156c-2 -13 5 -24 20 -24c18 0 27 11 27 62v382h-48v132h273v-467c0 -164 -78 -243 -253 -243z" />
    <glyph glyph-name="k" unicode="k" horiz-adv-x="651" 
d="M505 337l118 -205h27v-132h-304v132h26l-55 96l-19 -10v-86h21v-132h-294v132h48v466h-48v132h273v-402l109 65h-61v132h285v-132h-30z" />
    <glyph glyph-name="uni0137" unicode="&#x137;" horiz-adv-x="651" 
d="M505 337l118 -205h27v-132h-304v132h26l-55 96l-19 -10v-86h21v-132h-294v132h48v466h-48v132h273v-402l109 65h-61v132h285v-132h-30z" />
    <glyph glyph-name="l" unicode="l" horiz-adv-x="343" 
d="M346 0h-321v132h48v466h-48v132h273v-598h48v-132z" />
    <glyph glyph-name="lacute" unicode="&#x13a;" horiz-adv-x="343" 
d="M346 0h-321v132h48v466h-48v132h273v-598h48v-132z" />
    <glyph glyph-name="lcaron" unicode="&#x13e;" horiz-adv-x="481" 
d="M346 0h-321v132h48v466h-48v132h273v-598h48v-132z" />
    <glyph glyph-name="uni013C" unicode="&#x13c;" horiz-adv-x="343" 
d="M346 0h-321v132h48v466h-48v132h273v-598h48v-132z" />
    <glyph glyph-name="ldot" unicode="&#x140;" horiz-adv-x="513" 
d="M346 0h-321v132h48v466h-48v132h273v-598h48v-132zM440 263c-71 0 -115 49 -115 117c0 69 44 118 115 118c72 0 115 -49 115 -118c0 -68 -43 -117 -115 -117z" />
    <glyph glyph-name="lslash" unicode="&#x142;" horiz-adv-x="338" 
d="M392 404l-94 -41v-231h48v-132h-321v132h48v145l-52 -21l-43 110l95 41v191h-48v132h273v-237l51 21z" />
    <glyph glyph-name="m" unicode="m" horiz-adv-x="1000" 
d="M958 355v-223h41v-132h-305v132h39v159c0 62 -17 86 -49 86c-36 0 -56 -30 -56 -85v-160h39v-132h-303v132h39v159c0 62 -17 86 -49 86c-36 0 -56 -30 -56 -85v-160h39v-132h-312v132h48v261h-48v132h265v-136c20 122 112 146 180 146c89 0 139 -51 153 -128
c26 107 112 128 177 128c107 0 158 -74 158 -180z" />
    <glyph glyph-name="n" unicode="n" horiz-adv-x="670" 
d="M628 355v-223h41v-132h-305v132h39v159c0 62 -17 86 -49 86c-36 0 -56 -30 -56 -85v-160h39v-132h-312v132h48v261h-48v132h265v-136c20 122 112 146 180 146c107 0 158 -74 158 -180z" />
    <glyph glyph-name="nacute" unicode="&#x144;" horiz-adv-x="670" 
d="M628 355v-223h41v-132h-305v132h39v159c0 62 -17 86 -49 86c-36 0 -56 -30 -56 -85v-160h39v-132h-312v132h48v261h-48v132h265v-136c20 122 112 146 180 146c107 0 158 -74 158 -180z" />
    <glyph glyph-name="ncaron" unicode="&#x148;" horiz-adv-x="670" 
d="M628 355v-223h41v-132h-305v132h39v159c0 62 -17 86 -49 86c-36 0 -56 -30 -56 -85v-160h39v-132h-312v132h48v261h-48v132h265v-136c20 122 112 146 180 146c107 0 158 -74 158 -180z" />
    <glyph glyph-name="uni0146" unicode="&#x146;" horiz-adv-x="670" 
d="M628 355v-223h41v-132h-305v132h39v159c0 62 -17 86 -49 86c-36 0 -56 -30 -56 -85v-160h39v-132h-312v132h48v261h-48v132h265v-136c20 122 112 146 180 146c107 0 158 -74 158 -180z" />
    <glyph glyph-name="eng" unicode="&#x14b;" horiz-adv-x="661" 
d="M470 535c107 0 158 -74 158 -180v-297c0 -164 -78 -243 -253 -243c-106 0 -179 41 -179 118c0 10 1 21 4 33l158 7c-1 -17 5 -24 18 -24c18 0 27 11 27 62v280c0 62 -17 86 -49 86c-36 0 -56 -30 -56 -85v-160h39v-132h-312v132h48v261h-48v132h265v-136
c20 122 112 146 180 146z" />
    <glyph glyph-name="ntilde" unicode="&#xf1;" horiz-adv-x="670" 
d="M628 355v-223h41v-132h-305v132h39v159c0 62 -17 86 -49 86c-36 0 -56 -30 -56 -85v-160h39v-132h-312v132h48v261h-48v132h265v-136c20 122 112 146 180 146c107 0 158 -74 158 -180z" />
    <glyph glyph-name="o" unicode="o" horiz-adv-x="594" 
d="M289 -10c-172 0 -276 87 -276 266c0 184 124 279 292 279c172 0 276 -87 276 -266c0 -184 -124 -279 -292 -279zM294 125c33 0 54 31 54 137c0 97 -12 138 -48 138c-33 0 -54 -31 -54 -137c0 -97 12 -138 48 -138z" />
    <glyph glyph-name="oacute" unicode="&#xf3;" horiz-adv-x="594" 
d="M289 -10c-172 0 -276 87 -276 266c0 184 124 279 292 279c172 0 276 -87 276 -266c0 -184 -124 -279 -292 -279zM294 125c33 0 54 31 54 137c0 97 -12 138 -48 138c-33 0 -54 -31 -54 -137c0 -97 12 -138 48 -138z" />
    <glyph glyph-name="ocircumflex" unicode="&#xf4;" horiz-adv-x="594" 
d="M289 -10c-172 0 -276 87 -276 266c0 184 124 279 292 279c172 0 276 -87 276 -266c0 -184 -124 -279 -292 -279zM294 125c33 0 54 31 54 137c0 97 -12 138 -48 138c-33 0 -54 -31 -54 -137c0 -97 12 -138 48 -138z" />
    <glyph glyph-name="odieresis" unicode="&#xf6;" horiz-adv-x="594" 
d="M289 -10c-172 0 -276 87 -276 266c0 184 124 279 292 279c172 0 276 -87 276 -266c0 -184 -124 -279 -292 -279zM294 125c33 0 54 31 54 137c0 97 -12 138 -48 138c-33 0 -54 -31 -54 -137c0 -97 12 -138 48 -138z" />
    <glyph glyph-name="ograve" unicode="&#xf2;" horiz-adv-x="594" 
d="M289 -10c-172 0 -276 87 -276 266c0 184 124 279 292 279c172 0 276 -87 276 -266c0 -184 -124 -279 -292 -279zM294 125c33 0 54 31 54 137c0 97 -12 138 -48 138c-33 0 -54 -31 -54 -137c0 -97 12 -138 48 -138z" />
    <glyph glyph-name="ohungarumlaut" unicode="&#x151;" horiz-adv-x="594" 
d="M289 -10c-172 0 -276 87 -276 266c0 184 124 279 292 279c172 0 276 -87 276 -266c0 -184 -124 -279 -292 -279zM294 125c33 0 54 31 54 137c0 97 -12 138 -48 138c-33 0 -54 -31 -54 -137c0 -97 12 -138 48 -138z" />
    <glyph glyph-name="omacron" unicode="&#x14d;" horiz-adv-x="594" 
d="M289 -10c-172 0 -276 87 -276 266c0 184 124 279 292 279c172 0 276 -87 276 -266c0 -184 -124 -279 -292 -279zM294 125c33 0 54 31 54 137c0 97 -12 138 -48 138c-33 0 -54 -31 -54 -137c0 -97 12 -138 48 -138z" />
    <glyph glyph-name="oslash" unicode="&#xf8;" horiz-adv-x="594" 
d="M548 581l-55 -99c57 -44 88 -115 88 -213c0 -184 -124 -279 -292 -279c-26 0 -51 2 -74 6l-60 -106l-117 63l55 97c-52 44 -80 113 -80 206c0 184 124 279 292 279c22 0 42 -1 62 -4l64 115zM294 125c33 0 54 31 54 137c0 97 -12 138 -48 138c-33 0 -54 -31 -54 -137
c0 -97 12 -138 48 -138z" />
    <glyph glyph-name="otilde" unicode="&#xf5;" horiz-adv-x="594" 
d="M289 -10c-172 0 -276 87 -276 266c0 184 124 279 292 279c172 0 276 -87 276 -266c0 -184 -124 -279 -292 -279zM294 125c33 0 54 31 54 137c0 97 -12 138 -48 138c-33 0 -54 -31 -54 -137c0 -97 12 -138 48 -138z" />
    <glyph glyph-name="oe" unicode="&#x153;" horiz-adv-x="890" 
d="M665 186h203c13 -135 -92 -196 -241 -196c-78 0 -138 21 -178 65c-43 -43 -102 -65 -170 -65c-166 0 -266 87 -266 266c0 184 120 279 282 279c72 0 129 -21 169 -65c43 44 104 65 179 65c151 0 230 -83 230 -244c0 -30 -1 -47 -5 -75h-297c3 -64 15 -90 54 -90
c28 0 43 15 40 60zM619 405c-26 0 -43 -18 -48 -93h84c1 5 1 10 1 17c0 54 -9 76 -37 76zM294 125c33 0 54 31 54 137c0 97 -12 138 -48 138c-33 0 -54 -31 -54 -137c0 -97 12 -138 48 -138z" />
    <glyph glyph-name="p" unicode="p" horiz-adv-x="650" 
d="M451 535c133 0 186 -119 186 -257c0 -155 -62 -288 -202 -288c-70 0 -118 32 -136 105v-138h53v-132h-325v132h48v436h-48v132h264v-119c19 93 85 129 160 129zM348 141c29 0 56 26 56 118c0 87 -24 125 -61 125c-26 0 -44 -14 -44 -58v-134c0 -30 22 -51 49 -51z" />
    <glyph glyph-name="thorn" unicode="&#xfe;" horiz-adv-x="614" 
d="M415 535c133 0 186 -120 186 -257c0 -155 -62 -288 -202 -288c-71 0 -118 32 -136 106v-139h53v-132h-325v132h48v641h-48v132h271v-316c20 86 82 121 153 121zM312 141c29 0 56 26 56 118c0 87 -24 125 -61 125c-26 0 -44 -14 -44 -58v-134c0 -30 22 -51 49 -51z" />
    <glyph glyph-name="q" unicode="q" horiz-adv-x="602" 
d="M575 525v-568h50v-132h-329v132h55v151c-20 -84 -82 -118 -152 -118c-133 0 -186 120 -186 258c0 154 61 287 210 287c70 0 118 -36 135 -118l47 108h170zM307 141c26 0 44 14 44 58v134c0 30 -22 51 -49 51c-29 0 -56 -26 -56 -118c0 -87 24 -125 61 -125z" />
    <glyph glyph-name="r" unicode="r" horiz-adv-x="536" 
d="M539 317l-189 -39c2 17 4 35 4 50c0 28 -6 49 -24 49c-19 0 -32 -16 -32 -83v-162h79v-132h-352v132h48v262h-48v131h255v-139c11 124 92 149 151 149c79 0 117 -43 117 -127c0 -23 -3 -56 -9 -91z" />
    <glyph glyph-name="racute" unicode="&#x155;" horiz-adv-x="536" 
d="M539 317l-189 -39c2 17 4 35 4 50c0 28 -6 49 -24 49c-19 0 -32 -16 -32 -83v-162h79v-132h-352v132h48v262h-48v131h255v-139c11 124 92 149 151 149c79 0 117 -43 117 -127c0 -23 -3 -56 -9 -91z" />
    <glyph glyph-name="rcaron" unicode="&#x159;" horiz-adv-x="536" 
d="M539 317l-189 -39c2 17 4 35 4 50c0 28 -6 49 -24 49c-19 0 -32 -16 -32 -83v-162h79v-132h-352v132h48v262h-48v131h255v-139c11 124 92 149 151 149c79 0 117 -43 117 -127c0 -23 -3 -56 -9 -91z" />
    <glyph glyph-name="uni0157" unicode="&#x157;" horiz-adv-x="536" 
d="M539 317l-189 -39c2 17 4 35 4 50c0 28 -6 49 -24 49c-19 0 -32 -16 -32 -83v-162h79v-132h-352v132h48v262h-48v131h255v-139c11 124 92 149 151 149c79 0 117 -43 117 -127c0 -23 -3 -56 -9 -91z" />
    <glyph glyph-name="s" unicode="s" horiz-adv-x="536" 
d="M227 391c0 -62 305 36 305 -222c0 -113 -73 -179 -189 -179c-81 0 -131 22 -158 96l1 -86h-165v153h169c3 -32 31 -46 73 -46s59 11 59 26c0 69 -305 -26 -305 223c0 116 69 179 191 179c69 0 122 -21 144 -90l-1 80h165v-150h-169c-3 30 -28 43 -67 43
c-38 0 -53 -12 -53 -27z" />
    <glyph glyph-name="sacute" unicode="&#x15b;" horiz-adv-x="536" 
d="M227 391c0 -62 305 36 305 -222c0 -113 -73 -179 -189 -179c-81 0 -131 22 -158 96l1 -86h-165v153h169c3 -32 31 -46 73 -46s59 11 59 26c0 69 -305 -26 -305 223c0 116 69 179 191 179c69 0 122 -21 144 -90l-1 80h165v-150h-169c-3 30 -28 43 -67 43
c-38 0 -53 -12 -53 -27z" />
    <glyph glyph-name="scaron" unicode="&#x161;" horiz-adv-x="536" 
d="M227 391c0 -62 305 36 305 -222c0 -113 -73 -179 -189 -179c-81 0 -131 22 -158 96l1 -86h-165v153h169c3 -32 31 -46 73 -46s59 11 59 26c0 69 -305 -26 -305 223c0 116 69 179 191 179c69 0 122 -21 144 -90l-1 80h165v-150h-169c-3 30 -28 43 -67 43
c-38 0 -53 -12 -53 -27z" />
    <glyph glyph-name="scedilla" unicode="&#x15f;" horiz-adv-x="536" 
d="M227 391c0 -62 305 36 305 -222c0 -113 -73 -179 -189 -179c-81 0 -131 22 -158 96l1 -86h-165v153h169c3 -32 31 -46 73 -46s59 11 59 26c0 69 -305 -26 -305 223c0 116 69 179 191 179c69 0 122 -21 144 -90l-1 80h165v-150h-169c-3 30 -28 43 -67 43
c-38 0 -53 -12 -53 -27z" />
    <glyph glyph-name="uni0219" unicode="&#x219;" horiz-adv-x="536" 
d="M227 391c0 -62 305 36 305 -222c0 -113 -73 -179 -189 -179c-81 0 -131 22 -158 96l1 -86h-165v153h169c3 -32 31 -46 73 -46s59 11 59 26c0 69 -305 -26 -305 223c0 116 69 179 191 179c69 0 122 -21 144 -90l-1 80h165v-150h-169c-3 30 -28 43 -67 43
c-38 0 -53 -12 -53 -27z" />
    <glyph glyph-name="germandbls" unicode="&#xdf;" horiz-adv-x="661" 
d="M534 179c86 -21 122 -87 122 -159c0 -106 -73 -205 -262 -205c-148 0 -206 63 -187 159h158c-2 -15 7 -25 27 -25c28 0 43 23 43 70c0 56 -20 80 -58 80h-23v132h22c25 0 42 23 42 61c0 52 -17 74 -51 74c-27 0 -56 -12 -62 -58v-308h-278v132h53v261h-77v132h77
c8 145 101 215 255 215c132 0 211 -59 187 -182l-161 -23c4 51 -7 69 -29 69c-30 0 -37 -31 -37 -59c0 -57 2 -93 6 -154c21 71 85 104 163 104c114 0 175 -51 175 -168c0 -74 -37 -127 -105 -148z" />
    <glyph glyph-name="t" unicode="t" horiz-adv-x="474" 
d="M319 228l147 18c5 -28 8 -55 8 -80c0 -126 -65 -176 -213 -176c-146 0 -206 65 -206 172l1 231h-57v132h86c29 25 51 65 60 137h135v-137h170v-132h-170v-205c0 -41 6 -63 24 -63c15 0 20 15 20 41c0 21 -2 39 -5 62z" />
    <glyph glyph-name="tbar" unicode="&#x167;" horiz-adv-x="474" 
d="M322 205h149c2 -17 3 -33 3 -49c0 -119 -65 -166 -213 -166c-146 0 -206 65 -206 172v71h-56v132h57v28h-57v132h86c29 25 51 65 60 137h135v-137h170v-132h-170v-28h170v-132h-170v-45c0 -47 9 -63 24 -63c25 0 21 37 18 80z" />
    <glyph glyph-name="tcaron" unicode="&#x165;" horiz-adv-x="474" 
d="M319 228l147 18c5 -28 8 -55 8 -80c0 -126 -65 -176 -213 -176c-146 0 -206 65 -206 172l1 231h-57v132h86c29 25 51 65 60 137h135v-137h170v-132h-170v-205c0 -41 6 -63 24 -63c15 0 20 15 20 41c0 21 -2 39 -5 62z" />
    <glyph glyph-name="uni0163" unicode="&#x163;" horiz-adv-x="474" 
d="M319 228l147 18c5 -28 8 -55 8 -80c0 -126 -65 -176 -213 -176c-146 0 -206 65 -206 172l1 231h-57v132h86c29 25 51 65 60 137h135v-137h170v-132h-170v-205c0 -41 6 -63 24 -63c15 0 20 15 20 41c0 21 -2 39 -5 62z" />
    <glyph glyph-name="uni021B" unicode="&#x21b;" horiz-adv-x="474" 
d="M319 228l147 18c5 -28 8 -55 8 -80c0 -126 -65 -176 -213 -176c-146 0 -206 65 -206 172l1 231h-57v132h86c29 25 51 65 60 137h135v-137h170v-132h-170v-205c0 -41 6 -63 24 -63c15 0 20 15 20 41c0 21 -2 39 -5 62z" />
    <glyph glyph-name="u" unicode="u" horiz-adv-x="653" 
d="M597 525v-393h48v-132h-265v135c-20 -121 -109 -145 -177 -145c-105 0 -155 74 -155 180v223h-41v132h266v-291c0 -62 16 -86 46 -86c34 0 53 30 53 85v160h-47v132h272z" />
    <glyph glyph-name="uacute" unicode="&#xfa;" horiz-adv-x="653" 
d="M597 525v-393h48v-132h-265v135c-20 -121 -109 -145 -177 -145c-105 0 -155 74 -155 180v223h-41v132h266v-291c0 -62 16 -86 46 -86c34 0 53 30 53 85v160h-47v132h272z" />
    <glyph glyph-name="ucircumflex" unicode="&#xfb;" horiz-adv-x="653" 
d="M597 525v-393h48v-132h-265v135c-20 -121 -109 -145 -177 -145c-105 0 -155 74 -155 180v223h-41v132h266v-291c0 -62 16 -86 46 -86c34 0 53 30 53 85v160h-47v132h272z" />
    <glyph glyph-name="udieresis" unicode="&#xfc;" horiz-adv-x="653" 
d="M597 525v-393h48v-132h-265v135c-20 -121 -109 -145 -177 -145c-105 0 -155 74 -155 180v223h-41v132h266v-291c0 -62 16 -86 46 -86c34 0 53 30 53 85v160h-47v132h272z" />
    <glyph glyph-name="ugrave" unicode="&#xf9;" horiz-adv-x="653" 
d="M597 525v-393h48v-132h-265v135c-20 -121 -109 -145 -177 -145c-105 0 -155 74 -155 180v223h-41v132h266v-291c0 -62 16 -86 46 -86c34 0 53 30 53 85v160h-47v132h272z" />
    <glyph glyph-name="uhungarumlaut" unicode="&#x171;" horiz-adv-x="653" 
d="M597 525v-393h48v-132h-265v135c-20 -121 -109 -145 -177 -145c-105 0 -155 74 -155 180v223h-41v132h266v-291c0 -62 16 -86 46 -86c34 0 53 30 53 85v160h-47v132h272z" />
    <glyph glyph-name="umacron" unicode="&#x16b;" horiz-adv-x="653" 
d="M597 525v-393h48v-132h-265v135c-20 -121 -109 -145 -177 -145c-105 0 -155 74 -155 180v223h-41v132h266v-291c0 -62 16 -86 46 -86c34 0 53 30 53 85v160h-47v132h272z" />
    <glyph glyph-name="uogonek" unicode="&#x173;" horiz-adv-x="653" 
d="M597 525v-393h48v-132h-265v135c-20 -121 -109 -145 -177 -145c-105 0 -155 74 -155 180v223h-41v132h266v-291c0 -62 16 -86 46 -86c34 0 53 30 53 85v160h-47v132h272z" />
    <glyph glyph-name="uring" unicode="&#x16f;" horiz-adv-x="653" 
d="M597 525v-393h48v-132h-265v135c-20 -121 -109 -145 -177 -145c-105 0 -155 74 -155 180v223h-41v132h266v-291c0 -62 16 -86 46 -86c34 0 53 30 53 85v160h-47v132h272z" />
    <glyph glyph-name="v" unicode="v" horiz-adv-x="588" 
d="M342 525h248v-132h-28l-137 -393h-280l-119 393h-28v132h316v-132h-51l65 -228l65 228h-51v132z" />
    <glyph glyph-name="w" unicode="w" horiz-adv-x="885" 
d="M650 525h237v-132h-26l-86 -393h-292l-49 160l-47 -160h-272l-91 393h-26v132h298v-132h-39l49 -208l64 208h-44v132h294v-132h-41l70 -214l39 214h-38v132z" />
    <glyph glyph-name="wacute" unicode="&#x1e83;" horiz-adv-x="885" 
d="M650 525h237v-132h-26l-86 -393h-292l-49 160l-47 -160h-272l-91 393h-26v132h298v-132h-39l49 -208l64 208h-44v132h294v-132h-41l70 -214l39 214h-38v132z" />
    <glyph glyph-name="wcircumflex" unicode="&#x175;" horiz-adv-x="885" 
d="M650 525h237v-132h-26l-86 -393h-292l-49 160l-47 -160h-272l-91 393h-26v132h298v-132h-39l49 -208l64 208h-44v132h294v-132h-41l70 -214l39 214h-38v132z" />
    <glyph glyph-name="wdieresis" unicode="&#x1e85;" horiz-adv-x="885" 
d="M650 525h237v-132h-26l-86 -393h-292l-49 160l-47 -160h-272l-91 393h-26v132h298v-132h-39l49 -208l64 208h-44v132h294v-132h-41l70 -214l39 214h-38v132z" />
    <glyph glyph-name="wgrave" unicode="&#x1e81;" horiz-adv-x="885" 
d="M650 525h237v-132h-26l-86 -393h-292l-49 160l-47 -160h-272l-91 393h-26v132h298v-132h-39l49 -208l64 208h-44v132h294v-132h-41l70 -214l39 214h-38v132z" />
    <glyph glyph-name="x" unicode="x" horiz-adv-x="646" 
d="M500 258l127 -126h17v-132h-352v132h56l-72 74l-59 -74h45v-132h-241v132h28l112 143l-110 118h-20v132h339v-132h-39l57 -60l47 60h-35v132h231v-132h-25z" />
    <glyph glyph-name="y" unicode="y" horiz-adv-x="585" 
d="M347 525h240v-132h-20l-181 -409c-45 -101 -69 -169 -208 -169s-191 67 -164 175l162 13c-5 -35 3 -54 21 -54c11 0 17 5 26 25l-201 419h-24v132h319v-132h-41l56 -136l52 136h-37v132z" />
    <glyph glyph-name="yacute" unicode="&#xfd;" horiz-adv-x="585" 
d="M347 525h240v-132h-20l-181 -409c-45 -101 -69 -169 -208 -169s-191 67 -164 175l162 13c-5 -35 3 -54 21 -54c11 0 17 5 26 25l-201 419h-24v132h319v-132h-41l56 -136l52 136h-37v132z" />
    <glyph glyph-name="ycircumflex" unicode="&#x177;" horiz-adv-x="585" 
d="M347 525h240v-132h-20l-181 -409c-45 -101 -69 -169 -208 -169s-191 67 -164 175l162 13c-5 -35 3 -54 21 -54c11 0 17 5 26 25l-201 419h-24v132h319v-132h-41l56 -136l52 136h-37v132z" />
    <glyph glyph-name="ydieresis" unicode="&#xff;" horiz-adv-x="585" 
d="M347 525h240v-132h-20l-181 -409c-45 -101 -69 -169 -208 -169s-191 67 -164 175l162 13c-5 -35 3 -54 21 -54c11 0 17 5 26 25l-201 419h-24v132h319v-132h-41l56 -136l52 136h-37v132z" />
    <glyph glyph-name="ygrave" unicode="&#x1ef3;" horiz-adv-x="585" 
d="M347 525h240v-132h-20l-181 -409c-45 -101 -69 -169 -208 -169s-191 67 -164 175l162 13c-5 -35 3 -54 21 -54c11 0 17 5 26 25l-201 419h-24v132h319v-132h-41l56 -136l52 136h-37v132z" />
    <glyph glyph-name="z" unicode="z" horiz-adv-x="521" 
d="M21 525h483v-137l-213 -257h69v61h141v-192h-482v137l222 258h-78v-62h-142v192z" />
    <glyph glyph-name="zacute" unicode="&#x17a;" horiz-adv-x="521" 
d="M21 525h483v-137l-213 -257h69v61h141v-192h-482v137l222 258h-78v-62h-142v192z" />
    <glyph glyph-name="zcaron" unicode="&#x17e;" horiz-adv-x="521" 
d="M21 525h483v-137l-213 -257h69v61h141v-192h-482v137l222 258h-78v-62h-142v192z" />
    <glyph glyph-name="zdotaccent" unicode="&#x17c;" horiz-adv-x="521" 
d="M21 525h483v-137l-213 -257h69v61h141v-192h-482v137l222 258h-78v-62h-142v192z" />
    <glyph glyph-name="f.beforef" horiz-adv-x="350" 
d="M244 610c-15 0 -22 -9 -22 -23c0 -21 7 -42 22 -62h153v-132h-92v-261h43v-132h-321v132h53v261h-77v132h57c-9 22 -13 44 -13 66c0 100 79 149 204 149c113 0 175 -45 155 -144l-137 -24c-1 28 -11 38 -25 38z" />
    <glyph glyph-name="f.beforei" horiz-adv-x="378" 
d="M397 525v-132h-92v-261h45v-132h-323v132h53v261h-77v132h57c-9 22 -13 44 -13 66c0 100 79 149 203 149c102 0 156 -53 136 -154l-127 -24c-1 35 -9 48 -21 48c-9 0 -16 -9 -16 -23c0 -21 7 -42 22 -62h153z" />
    <glyph glyph-name="f.beforel" horiz-adv-x="390" 
d="M487 588l-151 -23c4 29 -7 39 -27 39c-32 0 -39 -31 -39 -59c0 -7 1 -13 2 -20h111v-132h-78v-261h58v-132h-336v132h53v261h-77v132h77c7 145 94 215 240 215c124 0 189 -55 167 -152z" />
    <glyph glyph-name="ccedilla.ss01" horiz-adv-x="512" 
d="M327 217h182c18 -162 -96 -227 -239 -227c-169 0 -257 84 -257 271c0 184 75 274 204 274c67 0 112 -32 125 -112v105h156v-220h-161c1 68 -14 87 -42 87c-31 0 -49 -20 -49 -120c0 -122 12 -149 45 -149s42 29 36 91z" />
    <glyph glyph-name="scedilla.ss01" horiz-adv-x="536" 
d="M227 391c0 -62 305 36 305 -222c0 -113 -73 -179 -189 -179c-81 0 -131 22 -158 96l1 -86h-165v153h169c3 -32 31 -46 73 -46s59 11 59 26c0 69 -305 -26 -305 223c0 116 69 179 191 179c69 0 122 -21 144 -90l-1 80h165v-150h-169c-3 30 -28 43 -67 43
c-38 0 -53 -12 -53 -27z" />
    <glyph glyph-name="uni0163.ss01" horiz-adv-x="474" 
d="M319 228l147 18c5 -28 8 -55 8 -80c0 -126 -65 -176 -213 -176c-146 0 -206 65 -206 172l1 231h-57v132h86c29 25 51 65 60 137h135v-137h170v-132h-170v-205c0 -41 6 -63 24 -63c15 0 20 15 20 41c0 21 -2 39 -5 62z" />
    <glyph glyph-name="germandbls.ss02" horiz-adv-x="688" 
d="M504 389c130 -6 182 -81 182 -178c0 -106 -67 -220 -259 -220c-29 0 -62 3 -90 9v135c14 -4 29 -6 41 -6c38 0 77 24 77 91c0 59 -25 91 -99 91h-19v132h14c39 0 52 19 52 80c0 52 -12 83 -45 83c-45 0 -53 -44 -53 -102v-504h-278v132h53v261h-77v132h80
c18 145 125 215 286 215c175 0 265 -56 265 -187c0 -83 -47 -147 -130 -164z" />
    <glyph glyph-name="zero" unicode="0" horiz-adv-x="698" 
d="M336 -10c-195 0 -297 105 -297 346c0 239 133 354 311 354c195 0 297 -105 297 -346c0 -239 -133 -354 -311 -354zM341 120c56 0 77 49 77 208c0 169 -25 232 -73 232c-56 0 -77 -49 -77 -208c0 -169 25 -232 73 -232z" />
    <glyph glyph-name="one" unicode="1" horiz-adv-x="432" 
d="M401 0h-372v132h83v345h-83v132h50c83 0 106 22 121 81h125v-558h76v-132z" />
    <glyph glyph-name="two" unicode="2" horiz-adv-x="585" 
d="M425 146v79h135v-225h-532v181c219 109 290 210 290 300c0 59 -11 83 -49 83c-33 0 -56 -28 -56 -82c0 -20 1 -41 4 -65l-174 10c-3 25 -6 45 -6 67c0 137 106 199 249 199c167 0 261 -58 261 -194c0 -127 -42 -206 -353 -353h231z" />
    <glyph glyph-name="three" unicode="3" horiz-adv-x="570" 
d="M258 -10c-183 0 -246 78 -246 190c0 14 1 27 4 45l176 23s-1 -11 -1 -22c0 -64 25 -99 71 -99c42 0 66 28 66 83c0 44 -16 66 -66 66h-53v135h51c43 0 57 21 57 64c0 56 -21 81 -57 81c-25 0 -53 -11 -53 -59c0 -15 1 -33 4 -52l-175 11c-4 20 -6 36 -6 53
c0 128 104 184 244 184c178 0 272 -53 272 -175c0 -81 -35 -144 -135 -164c105 -11 146 -78 146 -159c0 -117 -84 -205 -299 -205z" />
    <glyph glyph-name="four" unicode="4" horiz-adv-x="649" 
d="M630 312v-130h-93v-50h80v-132h-392v132h87v49h-304v132l310 367h219v-368h93zM312 463l-119 -150h119v150z" />
    <glyph glyph-name="five" unicode="5" horiz-adv-x="598" 
d="M382 458c131 0 195 -96 195 -229c0 -134 -76 -239 -299 -239c-185 0 -248 66 -248 160c0 13 1 26 4 44l174 14c-3 -56 24 -81 71 -81c48 0 69 31 69 92c0 60 -24 95 -69 95c-43 0 -70 -19 -78 -58l-155 12l14 412h474v-161h-325l-5 -180c20 80 80 119 178 119z" />
    <glyph glyph-name="six" unicode="6" horiz-adv-x="648" 
d="M327 -10c-186 0 -288 103 -288 338c0 247 153 362 344 362c164 0 215 -56 215 -135c0 -14 -1 -26 -4 -44l-175 -14c1 45 -21 65 -59 65c-75 0 -97 -63 -97 -225c22 86 88 116 177 116c120 0 183 -91 183 -209c0 -125 -86 -254 -296 -254zM335 118c42 0 67 32 67 97
c0 53 -22 95 -67 95c-37 0 -67 -30 -67 -91c0 -72 25 -101 67 -101z" />
    <glyph glyph-name="seven" unicode="7" horiz-adv-x="533" 
d="M140 454h-133v226h523v-166c-145 -161 -194 -288 -194 -514h-225c0 223 55 361 282 519h-253v-65z" />
    <glyph glyph-name="eight" unicode="8" horiz-adv-x="636" 
d="M326 -10c-220 0 -295 84 -295 197c0 77 48 138 145 162c-90 17 -135 67 -135 155c0 106 72 186 285 186s285 -80 285 -186c0 -87 -45 -137 -134 -154c96 -24 144 -86 144 -163c0 -105 -76 -197 -295 -197zM326 402c39 0 55 29 55 74c0 51 -22 77 -55 77
c-32 0 -56 -24 -56 -74c0 -51 18 -77 56 -77zM326 118c46 0 65 32 65 83c0 57 -26 86 -65 86c-38 0 -66 -27 -66 -83c0 -57 21 -86 66 -86z" />
    <glyph glyph-name="nine" unicode="9" horiz-adv-x="644" 
d="M317 690c186 0 288 -103 288 -338c0 -247 -153 -362 -344 -362c-164 0 -215 56 -215 135c0 14 1 26 4 44l175 14c-1 -45 21 -65 59 -65c75 0 97 63 97 225c-22 -86 -88 -116 -177 -116c-120 0 -183 91 -183 209c0 125 86 254 296 254zM309 562c-42 0 -67 -32 -67 -97
c0 -53 22 -95 67 -95c37 0 67 30 67 91c0 72 -25 101 -67 101z" />
    <glyph glyph-name="zero.lf" horiz-adv-x="686" 
d="M336 -10c-195 0 -297 105 -297 346c0 239 133 354 311 354c195 0 297 -105 297 -346c0 -239 -133 -354 -311 -354zM341 120c56 0 77 49 77 208c0 169 -25 232 -73 232c-56 0 -77 -49 -77 -208c0 -169 25 -232 73 -232z" />
    <glyph glyph-name="one.lf" horiz-adv-x="432" 
d="M401 0h-372v132h83v345h-83v132h50c83 0 106 22 121 81h125v-558h76v-132z" />
    <glyph glyph-name="two.lf" horiz-adv-x="585" 
d="M425 146v79h135v-225h-532v181c219 109 290 210 290 300c0 59 -11 83 -49 83c-33 0 -56 -28 -56 -82c0 -20 1 -41 4 -65l-174 10c-3 25 -6 45 -6 67c0 137 106 199 249 199c167 0 261 -58 261 -194c0 -127 -42 -206 -353 -353h231z" />
    <glyph glyph-name="three.lf" horiz-adv-x="570" 
d="M258 -10c-183 0 -246 78 -246 190c0 14 1 27 4 45l176 23s-1 -11 -1 -22c0 -64 25 -99 71 -99c42 0 66 28 66 83c0 44 -16 66 -66 66h-53v135h51c43 0 57 21 57 64c0 56 -21 81 -57 81c-25 0 -53 -11 -53 -59c0 -15 1 -33 4 -52l-175 11c-4 20 -6 36 -6 53
c0 128 104 184 244 184c178 0 272 -53 272 -175c0 -81 -35 -144 -135 -164c105 -11 146 -78 146 -159c0 -117 -84 -205 -299 -205z" />
    <glyph glyph-name="four.lf" horiz-adv-x="649" 
d="M630 312v-130h-93v-50h80v-132h-392v132h87v49h-304v132l310 367h219v-368h93zM312 463l-119 -150h119v150z" />
    <glyph glyph-name="five.lf" horiz-adv-x="594" 
d="M382 458c131 0 195 -96 195 -229c0 -134 -76 -239 -299 -239c-185 0 -248 66 -248 160c0 13 1 26 4 44l174 14c-3 -56 24 -81 71 -81c48 0 69 31 69 92c0 60 -24 95 -69 95c-43 0 -70 -19 -78 -58l-155 12l14 412h474v-161h-325l-5 -180c20 80 80 119 178 119z" />
    <glyph glyph-name="six.lf" horiz-adv-x="644" 
d="M327 -10c-186 0 -288 103 -288 338c0 247 153 362 344 362c164 0 215 -56 215 -135c0 -14 -1 -26 -4 -44l-175 -14c1 45 -21 65 -59 65c-75 0 -97 -63 -97 -225c22 86 88 116 177 116c120 0 183 -91 183 -209c0 -125 -86 -254 -296 -254zM335 118c42 0 67 32 67 97
c0 53 -22 95 -67 95c-37 0 -67 -30 -67 -91c0 -72 25 -101 67 -101z" />
    <glyph glyph-name="seven.lf" horiz-adv-x="533" 
d="M140 454h-133v226h523v-166c-145 -161 -194 -288 -194 -514h-225c0 223 55 361 282 519h-253v-65z" />
    <glyph glyph-name="eight.lf" horiz-adv-x="652" 
d="M326 -10c-220 0 -295 84 -295 197c0 77 48 138 145 162c-90 17 -135 67 -135 155c0 106 72 186 285 186s285 -80 285 -186c0 -87 -45 -137 -134 -154c96 -24 144 -86 144 -163c0 -105 -76 -197 -295 -197zM326 402c39 0 55 29 55 74c0 51 -22 77 -55 77
c-32 0 -56 -24 -56 -74c0 -51 18 -77 56 -77zM326 118c46 0 65 32 65 83c0 57 -26 86 -65 86c-38 0 -66 -27 -66 -83c0 -57 21 -86 66 -86z" />
    <glyph glyph-name="nine.lf" horiz-adv-x="648" 
d="M321 690c186 0 288 -103 288 -338c0 -247 -153 -362 -344 -362c-164 0 -215 56 -215 135c0 14 1 26 4 44l175 14c-1 -45 21 -65 59 -65c75 0 97 63 97 225c-22 -86 -88 -116 -177 -116c-120 0 -183 91 -183 209c0 125 86 254 296 254zM313 562c-42 0 -67 -32 -67 -97
c0 -53 22 -95 67 -95c37 0 67 30 67 91c0 72 -25 101 -67 101z" />
    <glyph glyph-name="zero.osf" horiz-adv-x="672" 
d="M328 -11c-180 0 -290 94 -290 285c0 195 129 296 306 296c180 0 290 -94 290 -285c0 -195 -129 -296 -306 -296zM333 124c41 0 68 35 68 156c0 109 -15 155 -62 155c-41 0 -68 -35 -68 -156c0 -109 16 -155 62 -155z" />
    <glyph glyph-name="one.osf" horiz-adv-x="449" 
d="M449 0h-416v132h99v225h-99v132h66c91 0 117 22 133 81h125v-438h92v-132z" />
    <glyph glyph-name="two.osf" horiz-adv-x="590" 
d="M420 161v51h134v-212h-505v174c214 89 258 140 258 209c0 36 -13 58 -40 58c-28 0 -46 -22 -46 -73c0 -16 2 -36 6 -58l-175 13c-5 21 -7 39 -7 56c0 132 112 191 264 191c155 0 239 -53 239 -178c0 -104 -90 -163 -335 -231h207z" />
    <glyph glyph-name="three.osf" horiz-adv-x="575" 
d="M248 -133c-183 0 -246 78 -246 190c0 14 1 27 4 45l176 23s-1 -11 -1 -22c0 -64 25 -99 71 -99c42 0 66 28 66 83c0 44 -16 66 -66 66h-53v135h51c43 0 57 21 57 64c0 56 -21 81 -57 81c-25 0 -53 -11 -53 -59c0 -15 1 -33 4 -52l-175 11c-4 20 -6 36 -6 53
c0 128 104 184 244 184c178 0 272 -53 272 -175c0 -81 -35 -144 -135 -164c105 -11 146 -78 146 -159c0 -117 -84 -205 -299 -205z" />
    <glyph glyph-name="four.osf" horiz-adv-x="654" 
d="M548 172h93v-130h-93v-162h-225v161h-304v132l310 387h219v-388zM323 334l-122 -161h122v161z" />
    <glyph glyph-name="five.osf" horiz-adv-x="601" 
d="M386 338c131 0 195 -96 195 -229c0 -134 -76 -239 -299 -239c-185 0 -248 66 -248 160c0 13 1 26 4 44l174 14c-3 -56 24 -81 71 -81c48 0 69 31 69 92c0 60 -24 95 -69 95c-43 0 -70 -19 -78 -58l-155 12l14 412h474v-161h-325l-5 -180c20 80 80 119 178 119z" />
    <glyph glyph-name="six.osf" horiz-adv-x="644" 
d="M327 -10c-186 0 -288 103 -288 338c0 247 153 362 344 362c164 0 215 -56 215 -135c0 -14 -1 -26 -4 -44l-175 -14c1 45 -21 65 -59 65c-75 0 -97 -63 -97 -225c22 86 88 116 177 116c120 0 183 -91 183 -209c0 -125 -86 -254 -296 -254zM335 118c42 0 67 32 67 97
c0 53 -22 95 -67 95c-37 0 -67 -30 -67 -91c0 -72 25 -101 67 -101z" />
    <glyph glyph-name="seven.osf" horiz-adv-x="559" 
d="M160 334h-133v226h523v-166c-145 -161 -194 -288 -194 -514h-225c0 223 55 361 282 519h-253v-65z" />
    <glyph glyph-name="eight.osf" horiz-adv-x="652" 
d="M326 -10c-220 0 -295 84 -295 197c0 77 48 138 145 162c-90 17 -135 67 -135 155c0 106 72 186 285 186s285 -80 285 -186c0 -87 -45 -137 -134 -154c96 -24 144 -86 144 -163c0 -105 -76 -197 -295 -197zM326 402c39 0 55 29 55 74c0 51 -22 77 -55 77
c-32 0 -56 -24 -56 -74c0 -51 18 -77 56 -77zM326 118c46 0 65 32 65 83c0 57 -26 86 -65 86c-38 0 -66 -27 -66 -83c0 -57 21 -86 66 -86z" />
    <glyph glyph-name="nine.osf" horiz-adv-x="644" 
d="M317 570c186 0 288 -103 288 -338c0 -247 -153 -362 -344 -362c-164 0 -215 56 -215 135c0 14 1 26 4 44l175 14c-1 -45 21 -65 59 -65c75 0 97 63 97 225c-22 -86 -88 -116 -177 -116c-120 0 -183 91 -183 209c0 125 86 254 296 254zM309 442c-42 0 -67 -32 -67 -97
c0 -53 22 -95 67 -95c37 0 67 30 67 91c0 72 -25 101 -67 101z" />
    <glyph glyph-name="period" unicode="." horiz-adv-x="266" 
d="M133 -10c-71 0 -115 49 -115 117c0 69 44 118 115 118c72 0 115 -49 115 -118c0 -68 -43 -117 -115 -117z" />
    <glyph glyph-name="comma" unicode="," horiz-adv-x="266" 
d="M133 225c78 0 115 -53 115 -145c0 -120 -71 -214 -192 -264l-35 72c60 27 100 63 118 102h-6c-71 0 -115 49 -115 117c0 69 44 118 115 118z" />
    <glyph glyph-name="colon" unicode=":" horiz-adv-x="266" 
d="M133 263c-71 0 -115 49 -115 117c0 69 44 118 115 118c72 0 115 -49 115 -118c0 -68 -43 -117 -115 -117zM133 -10c-71 0 -115 49 -115 117c0 69 44 118 115 118c72 0 115 -49 115 -118c0 -68 -43 -117 -115 -117z" />
    <glyph glyph-name="semicolon" unicode=";" horiz-adv-x="266" 
d="M133 270c-71 0 -115 49 -115 117c0 69 44 118 115 118c72 0 115 -49 115 -118c0 -68 -43 -117 -115 -117zM133 225c78 0 115 -53 115 -145c0 -120 -71 -214 -192 -264l-35 72c60 27 100 63 118 102h-6c-71 0 -115 49 -115 117c0 69 44 118 115 118z" />
    <glyph glyph-name="ellipsis" unicode="&#x2026;" horiz-adv-x="849" 
d="M133 -10c-71 0 -115 49 -115 117c0 69 44 118 115 118c72 0 115 -49 115 -118c0 -68 -43 -117 -115 -117zM424 -10c-71 0 -115 49 -115 117c0 69 44 118 115 118c72 0 115 -49 115 -118c0 -68 -43 -117 -115 -117zM716 -10c-71 0 -115 49 -115 117c0 69 44 118 115 118
c72 0 115 -49 115 -118c0 -68 -43 -117 -115 -117z" />
    <glyph glyph-name="exclam" unicode="!" horiz-adv-x="252" 
d="M182 262h-113l-51 169v299h215v-299zM126 -10c-71 0 -115 49 -115 117c0 69 44 118 115 118c72 0 115 -49 115 -118c0 -68 -43 -117 -115 -117z" />
    <glyph glyph-name="exclamdown" unicode="&#xa1;" horiz-adv-x="252" 
d="M126 640c71 0 115 -49 115 -117c0 -69 -44 -118 -115 -118c-72 0 -115 49 -115 118c0 68 43 117 115 117zM70 368h113l51 -169v-299h-215v299z" />
    <glyph glyph-name="question" unicode="?" horiz-adv-x="517" 
d="M343 740c120 0 164 -77 164 -183c0 -126 -78 -207 -240 -223l-11 -67h-175l-24 168c180 2 213 47 215 91c1 40 -17 56 -50 56c-30 0 -44 -15 -45 -45h-174v196h176v-119c8 80 65 126 164 126zM168 225c72 0 115 -49 115 -118c0 -68 -43 -117 -115 -117
c-71 0 -115 49 -115 117c0 69 44 118 115 118z" />
    <glyph glyph-name="questiondown" unicode="&#xbf;" horiz-adv-x="517" 
d="M349 405c-72 0 -115 49 -115 118c0 68 43 117 115 117c71 0 115 -49 115 -117c0 -69 -44 -118 -115 -118zM340 93h174v-196h-176v119c-8 -80 -65 -126 -164 -126c-120 0 -164 77 -164 183c0 126 78 207 240 223l11 67h175l24 -168c-180 -2 -213 -47 -215 -91
c-1 -40 17 -56 50 -56c30 0 44 15 45 45z" />
    <glyph glyph-name="periodcentered" unicode="&#xb7;" horiz-adv-x="266" 
d="M133 152c-71 0 -115 49 -115 117c0 69 44 118 115 118c72 0 115 -49 115 -118c0 -68 -43 -117 -115 -117z" />
    <glyph glyph-name="asterisk" unicode="*" horiz-adv-x="437" 
d="M389 510l-107 -5l83 -66l28 -38l-110 -80l-27 39l-37 100l-38 -100l-27 -39l-110 80l28 38l83 66l-107 5l-44 15l42 129l44 -15l89 -59l-28 103v47h135v-47l-28 -103l89 59l44 15l42 -129z" />
    <glyph glyph-name="numbersign" unicode="#" horiz-adv-x="720" 
d="M720 525l-20 -129h-133l-18 -111h138l-20 -129h-138l-24 -156h-148l25 156h-106l-24 -156h-149l25 156h-108l19 129h109l17 111h-112l19 129h114l24 155h148l-24 -155h106l24 155h147l-24 -155h133zM296 285h106l17 111h-105z" />
    <glyph glyph-name="slash" unicode="/" horiz-adv-x="569" 
d="M198 -205h-182l356 935h181z" />
    <glyph glyph-name="backslash" unicode="\" horiz-adv-x="528" 
d="M156 730l356 -935h-182l-355 935h181z" />
    <glyph glyph-name="exclam.case" horiz-adv-x="252" 
d="M182 262h-113l-51 169v299h215v-299zM126 -10c-71 0 -115 49 -115 117c0 69 44 118 115 118c72 0 115 -49 115 -118c0 -68 -43 -117 -115 -117z" />
    <glyph glyph-name="exclamdown.case" horiz-adv-x="252" 
d="M126 640c71 0 115 -49 115 -117c0 -69 -44 -118 -115 -118c-72 0 -115 49 -115 118c0 68 43 117 115 117zM70 368h113l51 -169v-299h-215v299z" />
    <glyph glyph-name="question.case" horiz-adv-x="517" 
d="M343 740c120 0 164 -77 164 -183c0 -126 -78 -207 -240 -223l-11 -67h-175l-24 168c180 2 213 47 215 91c1 40 -17 56 -50 56c-30 0 -44 -15 -45 -45h-174v196h176v-119c8 80 65 126 164 126zM168 225c72 0 115 -49 115 -118c0 -68 -43 -117 -115 -117
c-71 0 -115 49 -115 117c0 69 44 118 115 118z" />
    <glyph glyph-name="questiondown.case" horiz-adv-x="517" 
d="M349 508c-72 0 -115 49 -115 118c0 68 43 117 115 117c71 0 115 -49 115 -117c0 -69 -44 -118 -115 -118zM340 196h174v-196h-176v119c-8 -80 -65 -126 -164 -126c-120 0 -164 77 -164 183c0 126 78 207 240 223l11 67h175l24 -168c-180 -2 -213 -47 -215 -91
c-1 -40 17 -56 50 -56c30 0 44 15 45 45z" />
    <glyph glyph-name="parenleft" unicode="(" horiz-adv-x="371" 
d="M375 -223l-78 -65c-147 118 -242 308 -242 543s95 425 242 543l78 -65c-81 -114 -124 -270 -124 -478s43 -364 124 -478z" />
    <glyph glyph-name="parenright" unicode=")" horiz-adv-x="371" 
d="M-4 733l78 65c147 -118 242 -308 242 -543s-95 -425 -242 -543l-78 65c81 114 124 270 124 478s-43 364 -124 478z" />
    <glyph glyph-name="braceleft" unicode="{" horiz-adv-x="382" 
d="M324 609c-37 0 -53 -15 -53 -49c0 -52 17 -102 17 -149c0 -59 -31 -128 -110 -149c79 -21 110 -90 110 -150c0 -47 -17 -97 -17 -149c0 -33 16 -49 53 -49c17 0 34 3 51 8v-126c-27 -9 -59 -11 -84 -11c-131 0 -205 46 -205 159c0 53 22 114 22 181c0 55 -22 72 -58 72
h-28v129h28c36 0 58 18 58 72c0 67 -22 128 -22 181c0 113 74 159 205 159c25 0 57 -4 84 -10v-127c-17 6 -34 8 -51 8z" />
    <glyph glyph-name="braceright" unicode="}" horiz-adv-x="382" 
d="M332 326h28v-129h-28c-36 0 -58 -18 -58 -72c0 -67 22 -128 22 -181c0 -113 -74 -159 -205 -159c-25 0 -57 4 -84 10v127c17 -6 34 -8 51 -8c37 0 53 15 53 49c0 52 -17 102 -17 149c0 59 31 128 110 149c-79 21 -110 90 -110 150c0 47 17 97 17 149c0 33 -16 49 -53 49
c-17 0 -34 -3 -51 -8v126c27 9 59 11 84 11c131 0 205 -46 205 -159c0 -53 -22 -114 -22 -181c0 -55 22 -72 58 -72z" />
    <glyph glyph-name="bracketleft" unicode="[" horiz-adv-x="384" 
d="M375 730v-129h-106v-677h106v-129h-292v935h292z" />
    <glyph glyph-name="bracketright" unicode="]" horiz-adv-x="384" 
d="M9 601v129h292v-935h-292v129h106v677h-106z" />
    <glyph glyph-name="hyphen" unicode="-" horiz-adv-x="330" 
d="M292 177h-254v156h254v-156z" />
    <glyph glyph-name="endash" unicode="&#x2013;" horiz-adv-x="542" 
d="M504 186h-466v139h466v-139z" />
    <glyph glyph-name="emdash" unicode="&#x2014;" horiz-adv-x="864" 
d="M826 186h-788v139h788v-139z" />
    <glyph glyph-name="underscore" unicode="_" horiz-adv-x="526" 
d="M496 -141h-466v130h466v-130z" />
    <glyph glyph-name="hyphen.case" horiz-adv-x="386" 
d="M348 257h-310v156h310v-156z" />
    <glyph glyph-name="endash.case" horiz-adv-x="542" 
d="M504 266h-466v139h466v-139z" />
    <glyph glyph-name="emdash.case" horiz-adv-x="864" 
d="M826 266h-788v139h788v-139z" />
    <glyph glyph-name="quotesinglbase" unicode="&#x201a;" horiz-adv-x="266" 
d="M133 253c78 0 115 -53 115 -145c0 -120 -71 -214 -192 -264l-35 72c60 27 100 63 118 102h-6c-71 0 -115 49 -115 117c0 69 44 118 115 118z" />
    <glyph glyph-name="quotedblbase" unicode="&#x201e;" horiz-adv-x="524" 
d="M133 253c78 0 115 -53 115 -145c0 -120 -71 -214 -192 -264l-35 72c60 27 100 63 118 102h-6c-71 0 -115 49 -115 117c0 69 44 118 115 118zM391 253c78 0 115 -53 115 -145c0 -120 -71 -214 -192 -264l-35 72c60 27 100 63 118 102h-6c-71 0 -115 49 -115 117
c0 69 44 118 115 118z" />
    <glyph glyph-name="quotedblleft" unicode="&#x201c;" horiz-adv-x="567" 
d="M150 609c71 0 115 -49 115 -117c0 -69 -44 -118 -115 -118c-78 0 -115 53 -115 145c0 120 71 214 192 264l35 -72c-60 -27 -100 -63 -118 -102h6zM408 609c71 0 115 -49 115 -117c0 -69 -44 -118 -115 -118c-78 0 -115 53 -115 145c0 120 71 214 192 264l35 -72
c-60 -27 -100 -63 -118 -102h6z" />
    <glyph glyph-name="quotedblright" unicode="&#x201d;" horiz-adv-x="531" 
d="M133 765c78 0 115 -53 115 -145c0 -120 -71 -214 -192 -264l-35 72c60 27 100 63 118 102h-6c-71 0 -115 49 -115 117c0 69 44 118 115 118zM391 765c78 0 115 -53 115 -145c0 -120 -71 -214 -192 -264l-35 72c60 27 100 63 118 102h-6c-71 0 -115 49 -115 117
c0 69 44 118 115 118z" />
    <glyph glyph-name="quoteleft" unicode="&#x2018;" horiz-adv-x="309" 
d="M150 609c71 0 115 -49 115 -117c0 -69 -44 -118 -115 -118c-78 0 -115 53 -115 145c0 120 71 214 192 264l35 -72c-60 -27 -100 -63 -118 -102h6z" />
    <glyph glyph-name="quoteright" unicode="&#x2019;" horiz-adv-x="273" 
d="M133 765c78 0 115 -53 115 -145c0 -120 -71 -214 -192 -264l-35 72c60 27 100 63 118 102h-6c-71 0 -115 49 -115 117c0 69 44 118 115 118z" />
    <glyph glyph-name="guillemotleft" unicode="&#xab;" horiz-adv-x="620" 
d="M314 80l-54 -35l-184 181v74l184 181l54 -35l-45 -183zM554 80l-54 -35l-184 181v74l184 181l54 -35l-45 -183z" />
    <glyph glyph-name="guillemotright" unicode="&#xbb;" horiz-adv-x="620" 
d="M66 446l54 35l184 -181v-74l-184 -181l-54 35l45 183zM306 446l54 35l184 -181v-74l-184 -181l-54 35l45 183z" />
    <glyph glyph-name="guilsinglleft" unicode="&#x2039;" horiz-adv-x="380" 
d="M314 80l-54 -35l-184 181v74l184 181l54 -35l-45 -183z" />
    <glyph glyph-name="guilsinglright" unicode="&#x203a;" horiz-adv-x="380" 
d="M66 446l54 35l184 -181v-74l-184 -181l-54 35l45 183z" />
    <glyph glyph-name="quotedbl" unicode="&#x22;" horiz-adv-x="404" 
d="M144 364h-80l-28 209v157h136v-157zM340 364h-80l-28 209v157h136v-157z" />
    <glyph glyph-name="quotesingle" unicode="'" horiz-adv-x="208" 
d="M144 364h-80l-28 209v157h136v-157z" />
    <glyph glyph-name="guillemotleft.cap" horiz-adv-x="620" 
d="M314 150l-54 -35l-184 181v74l184 181l54 -35l-45 -183zM554 150l-54 -35l-184 181v74l184 181l54 -35l-45 -183z" />
    <glyph glyph-name="guillemotright.cap" horiz-adv-x="620" 
d="M66 516l54 35l184 -181v-74l-184 -181l-54 35l45 183zM306 516l54 35l184 -181v-74l-184 -181l-54 35l45 183z" />
    <glyph glyph-name="guilsinglleft.cap" horiz-adv-x="380" 
d="M314 150l-54 -35l-184 181v74l184 181l54 -35l-45 -183z" />
    <glyph glyph-name="guilsinglright.cap" horiz-adv-x="380" 
d="M66 516l54 35l184 -181v-74l-184 -181l-54 35l45 183z" />
    <glyph glyph-name="cent" unicode="&#xa2;" horiz-adv-x="553" 
d="M358 285h176c15 -139 -66 -207 -181 -226v-129h-126v127c-138 18 -210 103 -210 270c0 155 75 243 210 267v116h126v-112c136 -11 183 -71 183 -155c0 -13 -1 -27 -4 -45l-167 -22c1 15 1 17 1 22c0 48 -20 73 -56 73c-40 0 -72 -20 -72 -131c0 -110 15 -157 64 -157
c27 0 63 7 56 102z" />
    <glyph glyph-name="dollar" unicode="$" horiz-adv-x="601" 
d="M586 220c0 -130 -87 -210 -221 -227v-133h-126v133c-163 15 -222 81 -222 173c0 14 1 27 4 45l166 23c-12 -85 37 -125 123 -125c54 0 77 22 77 49c0 128 -369 10 -369 304c0 128 83 207 221 224v134h126v-133c152 -14 208 -81 208 -173c0 -11 -1 -21 -4 -35l-166 -23
c10 67 -23 115 -102 115c-52 0 -83 -22 -83 -56c0 -114 368 5 368 -295z" />
    <glyph glyph-name="Euro" unicode="&#x20ac;" horiz-adv-x="634" 
d="M433 268h182c8 -180 -87 -278 -265 -278c-162 0 -264 68 -300 215h-61v114h47v18v18h-47v114h65c45 152 172 221 316 221c176 0 235 -71 235 -175c0 -13 -1 -27 -4 -45l-182 -22c1 15 1 17 1 22c0 48 -19 73 -52 73c-39 0 -67 -21 -82 -74h99v-114h-112v-4v-32h112v-114
h-97c14 -48 38 -66 74 -66c54 0 75 32 71 129z" />
    <glyph glyph-name="sterling" unicode="&#xa3;" horiz-adv-x="600" 
 />
    <glyph glyph-name="yen" unicode="&#xa5;" horiz-adv-x="670" 
d="M668 680v-143h-42l-66 -109h39v-99h-99l-21 -34h120v-99h-152v-56h69v-140h-365v140h69v56h-162v99h126l-20 34h-106v99h50l-62 109h-44v143h343v-143h-43l78 -138l76 138h-46v143h258z" />
    <glyph glyph-name="at" unicode="@" horiz-adv-x="917" 
d="M13 223c0 286 196 491 486 491c241 0 405 -151 405 -398c0 -179 -69 -309 -258 -309c-111 0 -178 55 -182 138c-26 -83 -76 -124 -148 -124c-115 0 -155 106 -117 276c31 140 96 214 195 214c86 0 113 -64 111 -128l25 119h206l-58 -267c-16 -76 9 -111 45 -111
c43 0 84 45 84 188c0 201 -123 318 -318 318c-233 0 -379 -166 -379 -403c0 -202 133 -332 343 -332c82 0 154 19 214 55l32 -70c-73 -46 -159 -69 -252 -69c-268 0 -434 165 -434 412zM420 280c-16 -73 -12 -98 12 -98c17 0 27 12 32 35l16 79c9 44 -1 54 -19 54
c-17 0 -29 -14 -41 -70z" />
    <glyph glyph-name="ampersand" unicode="&#x26;" horiz-adv-x="869" 
d="M790 209l73 -15c-20 -121 -66 -204 -192 -204c-77 0 -162 31 -241 82c-51 -53 -113 -82 -200 -82c-140 0 -221 63 -221 171c0 113 77 176 178 196c-15 41 -24 82 -24 123c0 132 102 210 255 210c147 0 227 -63 227 -156c0 -96 -72 -162 -212 -184c37 -50 89 -98 141 -133
c10 9 20 19 29 29h-39v136h214v-136h-35c-23 -22 -50 -47 -81 -75c21 -7 40 -11 58 -11c41 0 55 13 70 49zM420 546c-25 0 -41 -23 -41 -63c0 -18 4 -36 11 -56c45 20 61 53 61 82c0 24 -12 37 -31 37zM303 128c14 0 28 2 43 8c-45 40 -84 86 -115 134
c-7 -13 -10 -30 -10 -52c0 -53 17 -90 82 -90z" />
    <glyph glyph-name="copyright" unicode="&#xa9;" horiz-adv-x="979" 
d="M489 740c274 0 477 -204 477 -478c0 -273 -203 -477 -477 -477c-273 0 -476 204 -476 477c0 274 203 478 476 478zM489 -131c217 0 377 165 377 393c0 229 -158 394 -377 394c-217 0 -376 -166 -376 -394s159 -393 376 -393zM559 206h176c18 -155 -96 -216 -240 -216
c-167 0 -256 83 -256 273c0 183 73 272 205 272c52 0 110 -14 128 -112v105h147v-210h-147c0 63 -18 84 -55 84c-30 0 -57 -19 -57 -127c0 -110 11 -156 53 -156c22 0 53 3 46 87z" />
    <glyph glyph-name="uni2117" unicode="&#x2117;" horiz-adv-x="1007" 
d="M503 740c274 0 477 -204 477 -478c0 -273 -203 -477 -477 -477c-273 0 -476 204 -476 477c0 274 203 478 476 478zM503 -131c217 0 377 165 377 393c0 229 -158 394 -377 394c-217 0 -376 -166 -376 -394s159 -393 376 -393zM273 525h292c152 0 246 -39 246 -161
c0 -113 -77 -178 -252 -178h-25v-71h65v-115h-328v115h49v295h-47v115zM534 410v-115c58 0 80 24 80 58c0 39 -25 57 -73 57h-7z" />
    <glyph glyph-name="trademark" unicode="&#x2122;" horiz-adv-x="909" 
d="M96 513h-91v167h362v-167h-91v81h-23v-168h41v-86h-216v86h41v168h-23v-81zM904 680v-85h-32v-170h32v-85h-192v85h27v172l-53 -217h-105l-58 209v-164h25v-85h-162v85h33v170h-33v85h221l40 -136l30 136h227z" />
    <glyph glyph-name="bar" unicode="|" horiz-adv-x="243" 
d="M214 -205h-185v935h185v-935z" />
    <glyph glyph-name="uni0308" unicode="&#x308;" 
 />
    <glyph glyph-name="uni0307" unicode="&#x307;" 
 />
    <glyph glyph-name="gravecomb" unicode="&#x300;" 
 />
    <glyph glyph-name="acutecomb" unicode="&#x301;" 
 />
    <glyph glyph-name="uni030B" unicode="&#x30b;" 
 />
    <glyph glyph-name="uni030C.alt" 
 />
    <glyph glyph-name="uni0302" unicode="&#x302;" 
 />
    <glyph glyph-name="uni030C" unicode="&#x30c;" 
 />
    <glyph glyph-name="uni0306" unicode="&#x306;" 
 />
    <glyph glyph-name="uni030A" unicode="&#x30a;" 
 />
    <glyph glyph-name="tildecomb" unicode="&#x303;" 
 />
    <glyph glyph-name="uni0304" unicode="&#x304;" 
 />
    <glyph glyph-name="uni0312" unicode="&#x312;" 
 />
    <glyph glyph-name="uni0326" unicode="&#x326;" 
 />
    <glyph glyph-name="uni0327" unicode="&#x327;" 
 />
    <glyph glyph-name="uni0328" unicode="&#x328;" 
 />
    <glyph glyph-name="uni0327.alt" 
 />
    <glyph glyph-name="uni0328.cap" 
 />
    <glyph glyph-name="uni030A.case" 
 />
    </font>
</defs>
</svg>
