<svg id="Layer_1" data-name="Layer 1" xmlns="http://www.w3.org/2000/svg" viewBox="0 0 1800 1000"><defs><style>.cls-1{fill:#ff10e7;}</style></defs><path d="M162.32,834.89v12.64H173V866H124.52V847.53h8.39V796.71h-8.39V778.26H173c20.89,0,33.92,6.71,33.92,26.83,0,18.58-10.7,29.8-35.08,29.8Zm0-38.18v19.73h5.8c6.45,0,8.65-3.87,8.65-9.93,0-6.58-2.45-9.8-7.48-9.8Z"/><path d="M277.64,844.18c0,14.57-9.41,23.09-24.38,23.09-10.44,0-16.89-2.84-20.38-12.39L233,866H211.73V846.24h21.8c.38,4.13,4,5.94,9.41,5.94s7.62-1.42,7.62-3.36c0-8.9-39.35,3.36-39.35-28.76,0-15,8.9-23.1,24.64-23.1,8.9,0,15.74,2.71,18.58,11.61l-.13-10.32h21.28V817.6h-21.8c-.39-3.87-3.61-5.54-8.64-5.54s-6.84,1.55-6.84,3.48C238.3,823.54,277.64,810.9,277.64,844.18Z"/><path d="M353.37,798.25v17h-2.58L327.44,868c-5.81,13-8.9,21.8-26.83,21.8S276,881.2,279.45,867.27l20.9-1.68c-.65,4.52.39,7,2.71,7,1.42,0,2.19-.65,3.35-3.23l-25.93-54.05h-3.09v-17h41.15v17h-5.29l7.22,17.55,6.71-17.55h-4.77v-17Z"/><path d="M418.25,838c2.33,20.89-12.38,29.28-30.83,29.28-21.8,0-33.15-10.84-33.15-35,0-23.74,9.68-35.35,26.32-35.35,8.64,0,14.44,4.13,16.12,14.45V797.87h20.12v28.38H396.07c.12-8.77-1.81-11.23-5.42-11.23-4,0-6.32,2.58-6.32,15.48,0,15.74,1.54,19.22,5.8,19.22s5.42-3.74,4.65-11.73Z"/><path d="M499.14,849h5.28v17H465.08V849h5V828.44c0-8-2.19-11.09-6.32-11.09-4.64,0-7.22,3.87-7.22,11V849h5v17H421.35V849h6.19V788.84h-6.19v-17h35.22v41.92C459.79,799.8,470.5,797,478.75,797c13.81,0,20.39,9.55,20.39,23.22Z"/><path d="M505.71,833c0-23.74,16-36,37.67-36,22.19,0,35.61,11.23,35.61,34.32,0,23.73-16,36-37.67,36C519.13,867.27,505.71,856.05,505.71,833Zm43.22-.78c0-12.51-1.55-17.8-6.19-17.8-4.26,0-7,4-7,17.67,0,12.51,1.55,17.8,6.19,17.8C546.22,849.85,548.93,845.85,548.93,832.18Z"/><path d="M149.14,733.17V742h7.47v12.87H122.77V742h5.85V706.53h-5.85V693.66h33.84c14.58,0,23.67,4.68,23.67,18.72,0,13-7.47,20.79-24.48,20.79Zm0-26.64V720.3h4.05c4.5,0,6-2.7,6-6.93,0-4.59-1.71-6.84-5.22-6.84Z"/><path d="M236.53,743h4.32v11.88H217V742.7c-1.8,10.89-9.81,13-15.93,13-9.45,0-13.95-6.66-13.95-16.2V719.49h-3.69V707.61h23.94V733.8c0,5.57,1.44,7.73,4.14,7.73,3.06,0,4.77-2.7,4.77-7.65V719.49h-4.23V707.61h24.48Z"/><path d="M243.82,754.85V743h4.32V701h-4.32V689.16h24.57V743h4.32v11.88Z"/><path d="M329.76,729.84c0,13.94-5.58,25.91-18.17,25.91-6.3,0-10.62-2.88-12.24-9.45v12.42h4.77V770.6H274.87V758.72h4.32V719.49h-4.32V707.61h23.76v10.71c1.71-8.37,7.65-11.61,14.4-11.61C325,706.71,329.76,717.42,329.76,729.84Zm-21,1.71c0-7.84-2.16-11.25-5.49-11.25-2.34,0-4,1.25-4,5.21v12.06a4.4,4.4,0,0,0,4.41,4.59C306.37,742.16,308.8,739.82,308.8,731.55Z"/><path d="M349.84,754.85V742h5.85V706.53h-5.85V693.66h51.92v19.62H387v-6.75H376.38V720.3h5.13v-4.41H394v21.68H381.51v-4.4h-5.13V742h7.92v12.87Z"/><path d="M404.55,754.85V743h4.32V719.49h-4.32V707.61h24.57V743h4.32v11.88Zm2.7-59.66c0-6.39,5-10.35,11.34-10.35,7.38,0,11.34,4.14,11.34,10.35,0,6.39-5.13,10.35-11.34,10.35C411.21,705.54,407.25,701.49,407.25,695.19Z"/><path d="M479,735.32c1.62,14.58-8.64,20.43-21.51,20.43-15.21,0-23.13-7.56-23.13-24.39,0-16.55,6.75-24.65,18.36-24.65,6,0,10.08,2.88,11.25,10.08v-9.45h14v19.79H463.5c.09-6.12-1.26-7.82-3.78-7.82-2.79,0-4.41,1.8-4.41,10.79,0,11,1.08,13.41,4.05,13.41s3.78-2.61,3.24-8.19Z"/><path d="M521.55,732.71a41.5,41.5,0,0,1,.72,7.2c0,11.34-5.85,15.84-19.17,15.84-13.14,0-18.54-5.85-18.54-15.48l.09-20.78h-5.13V707.61h7.74c2.61-2.25,4.59-5.85,5.4-12.33h12.15v12.33h15.3v11.88h-15.3v18.44c0,3.69.54,5.67,2.16,5.67,1.35,0,1.8-1.35,1.8-3.69a40.77,40.77,0,0,0-.45-5.57Z"/><path d="M524.52,754.85V743h4.32V719.49h-4.32V707.61h24.57V743h4.32v11.88Zm2.7-59.66c0-6.39,5-10.35,11.34-10.35,7.38,0,11.34,4.14,11.34,10.35,0,6.39-5.13,10.35-11.34,10.35C531.18,705.54,527.22,701.49,527.22,695.19Z"/><path d="M554.31,731.81c0-16.56,11.16-25.1,26.28-25.1,15.48,0,24.84,7.83,24.84,23.93,0,16.56-11.16,25.11-26.28,25.11C563.67,755.75,554.31,747.92,554.31,731.81Zm30.15-.54c0-8.72-1.08-12.41-4.32-12.41-3,0-4.86,2.79-4.86,12.32,0,8.73,1.08,12.42,4.32,12.42C582.57,743.6,584.46,740.81,584.46,731.27Z"/><path d="M661.77,743h3.69v11.88H638V743h3.51v-14.3c0-5.58-1.53-7.75-4.41-7.75-3.24,0-5,2.71-5,7.66V743h3.51v11.88H607.5V743h4.32V719.49H607.5V707.61h23.85v12.23c1.8-11,10.08-13.13,16.2-13.13,9.63,0,14.22,6.66,14.22,16.2Z"/><path d="M681.84,773.3l32-84.14h16.29L698.22,773.3Z"/><path class="cls-1" d="M1641.64,651c0,134-76,239-299,239-185,0-248-66-248-160,0-13,1-26,4-44l174-14c-3,56,24,81,71,81,48,0,69-31,69-92,0-60-24-95-69-95-43,0-70,19-78,58l-155-12,14-412h474V361h-325l-5,180c20-80,80-119,178-119C1577.64,422,1641.64,518,1641.64,651Z"/></svg>