<?xml version="1.0" encoding="utf-8"?>
<!-- Generator: Adobe Illustrator 26.0.2, SVG Export Plug-In . SVG Version: 6.00 Build 0)  -->
<svg version="1.1" id="Layer_1" xmlns="http://www.w3.org/2000/svg" xmlns:xlink="http://www.w3.org/1999/xlink" x="0px" y="0px"
	 viewBox="0 0 1800 1000" style="enable-background:new 0 0 1800 1000;" xml:space="preserve">
<style type="text/css">
	.st0{fill:#FFFFFF;}
	.st1{fill:#1D1D1B;}
</style>
<rect x="-9.3" y="-15.5" width="1818.5" height="1023.7"/>
<g>
	<path class="st0" d="M292,464.8V546h68.7v118.4H49.4V546h53.8V219.7H49.4V101.3h311.4c134.1,0,217.8,43.1,217.8,172.2
		c0,119.2-68.7,191.3-225.2,191.3H292z M292,219.7v126.7h37.3c41.4,0,55.5-24.8,55.5-63.8c0-42.2-15.7-62.9-48-62.9H292z"/>
</g>
<g>
	<path class="st0" d="M704,652.5c-0.5,69.3-18.1,109.7-89.5,109.7c-50.7,0-69.3-22.8-75.6-51.2c-12.4,38.3-50.2,51.2-75,51.2
		c-48.6,0-80.2-27.9-80.2-79.7c0-58,38.3-82.3,116.4-82.3c15.5,0,28.5,1.6,38.8,3.6c0-31.1-12.4-41.9-29-41.9
		c-15.5,0-22.8,6.2-23.3,22.8h-89.5V483.7h91.1v61.6c8.3-44,44.5-65.2,85.4-65.2c58.5,0,81.8,38.8,81.8,100.4
		c0.5,23.3-2.6,64.2-2.6,84.9c0,14.5,2.6,18.6,7.2,18.6c8.3,0,7.8-13.5,8.8-31.6H704z M537.4,679.9l0.5-37.3
		c-4.7-1-9.8-1.6-14.5-1.6c-17.1,0-25.4,8.8-25.4,23.3c0,17.1,8.8,24.3,21.2,24.3C526.5,688.7,535.8,685.1,537.4,679.9z"/>
</g>
<g>
	<path class="st0" d="M1323.3,742.5c9.6,86-50.9,120.4-126.8,120.4c-89.7,0-136.4-44.6-136.4-143.8c0-97.6,39.8-145.4,108.2-145.4
		c35.5,0,59.4,17,66.3,59.4v-55.7h82.8v116.7H1232c0.5-36.1-7.4-46.2-22.3-46.2c-16.4,0-26,10.6-26,63.7c0,64.7,6.4,79.1,23.9,79.1
		c17.5,0,22.3-15.4,19.1-48.3H1323.3z"/>
</g>
<g>
	<path class="st0" d="M1760.4,482.5c6.1,63.6-44.7,92.3-116.8,92.3c-85.7,0-130.5-38.6-130.5-123.9c0-90,52.3-132.8,138-132.8
		c73.5,0,111.6,39.1,111.6,114.9c0,14.1-0.5,22.1-2.4,35.3h-137c1.4,30.1,7.1,42.4,25,42.4c12.7,0,19.8-7.1,18.4-28.3H1760.4z
		 M1623.4,423.2h36.7c0.5-2.4,0.5-4.7,0.5-8c0-25.4-3.8-35.8-16-35.8C1632.8,379.4,1625.3,387.8,1623.4,423.2z"/>
</g>
<g>
	<path class="st0" d="M1649.9,798.8h21.2v68.3h-157.8v-68.3h20.2v-82.3c0-32.1-8.8-44.5-25.4-44.5c-18.6,0-29,15.5-29,44v82.8h20.2
		v68.3h-161.5v-68.3h24.8V557.6h-24.8v-68.3h141.3v168.2c12.9-55.9,55.9-67.3,89-67.3c55.4,0,81.8,38.3,81.8,93.2V798.8z"/>
</g>
<g>
	<path class="st0" d="M851.9,357.7c0,54.4-35.1,86.1-90.9,86.1c-39,0-63-10.6-76-46.2l0.5,41.4h-79.4v-73.6h81.3
		c1.4,15.4,14.9,22.1,35.1,22.1s28.4-5.3,28.4-12.5c0-33.2-146.7,12.5-146.7-107.3c0-55.8,33.2-86.1,91.9-86.1
		c33.2,0,58.7,10.1,69.3,43.3l-0.5-38.5h79.4v72.1h-81.3c-1.4-14.4-13.5-20.7-32.2-20.7c-18.3,0-25.5,5.8-25.5,13
		C705.2,280.8,851.9,233.6,851.9,357.7z"/>
</g>
<g>
	<path class="st0" d="M985.8,508.2v-61.5h22.4V325.2h-22.4v-61.5h127.1v183h22.4v61.5H985.8z M999.7,199.5
		c0-33.1,26.1-53.6,58.7-53.6c38.2,0,58.7,21.4,58.7,53.6c0,33.1-26.5,53.5-58.7,53.5C1020.2,253,999.7,232.1,999.7,199.5z"/>
</g>
<g>
	<path class="st0" d="M1033.4,765.7c-1.5,22.3-4.4,43.5-9.1,62.6c-24,96.2-83.1,122-196.1,93.8c-111.4-27.8-144.9-88.8-124.5-170.5
		l44.7-176.1l-43.5-10.8L730,463.8l65.6,16.4c26.9-13.6,51.3-39.9,71.9-93.2l103,25.7l-26.1,104.6l129.8,32.4l-25.1,100.8
		l-129.8-32.4l-39,156.5c-7.8,31.3-7.4,49.2,6.3,52.7c11.4,2.9,18.1-7.6,23.1-27.5c4-16,5.9-30.1,8-48.3L1033.4,765.7z"/>
</g>
</svg>
