<svg id="Layer_1" data-name="Layer 1" xmlns="http://www.w3.org/2000/svg" viewBox="0 0 1713.62 831.49"><defs><style>.cls-1{fill:#ff10e7;}.cls-2{fill:#232020;}</style></defs><path class="cls-1" d="M308.41,578.26v81.15h68.73V777.83H65.79V659.41h53.82V333.16H65.79V214.74H377.14c134.15,0,217.78,43.06,217.78,172.24,0,119.24-68.73,191.28-225.23,191.28Zm0-245.1V459.85h37.26c41.41,0,55.48-24.84,55.48-63.76,0-42.23-15.73-62.93-48-62.93Z" transform="translate(-65.58 -214.74)"/><path class="cls-1" d="M720.47,765.89C720,835.24,702.35,875.6,630.93,875.6c-50.72,0-69.35-22.77-75.56-51.23-12.42,38.3-50.2,51.23-75,51.23-48.65,0-80.22-27.94-80.22-79.69,0-58,38.3-82.29,116.45-82.29a198,198,0,0,1,38.81,3.62c0-31-12.42-41.92-29-41.92-15.52,0-22.77,6.21-23.29,22.77H413.57V597.17h91.08v61.59c8.29-44,44.51-65.21,85.4-65.21,58.48,0,81.77,38.81,81.77,100.4.52,23.29-2.59,64.17-2.59,84.88,0,14.49,2.59,18.63,7.25,18.63,8.28,0,7.76-13.46,8.79-31.57ZM553.82,793.32l.52-37.27a69.38,69.38,0,0,0-14.49-1.55c-17.08,0-25.36,8.8-25.36,23.29,0,17.08,8.8,24.33,21.22,24.33C543,802.12,552.27,798.49,553.82,793.32Z" transform="translate(-65.58 -214.74)"/><path class="cls-1" d="M1339.71,855.94c9.55,86-50.94,120.44-126.81,120.44-89.67,0-136.36-44.57-136.36-143.79,0-97.63,39.79-145.38,108.24-145.38,35.55,0,59.42,17,66.32,59.43V690.93h82.77V807.66h-85.42c.53-36.08-7.43-46.17-22.29-46.17-16.45,0-26,10.62-26,63.68,0,64.73,6.37,79.05,23.88,79.05s22.29-15.38,19.1-48.28Z" transform="translate(-65.58 -214.74)"/><path class="cls-1" d="M1776.85,595.94c6.12,63.58-44.74,92.3-116.8,92.3-85.71,0-130.46-38.61-130.46-123.86,0-89.95,52.28-132.81,138-132.81,73.47,0,111.62,39.09,111.62,114.91a215.9,215.9,0,0,1-2.36,35.33h-137c1.41,30.14,7.07,42.38,25,42.38,12.72,0,19.78-7.06,18.37-28.25Zm-137-59.35h36.74a40.58,40.58,0,0,0,.47-8c0-25.43-3.77-35.79-16-35.79C1649.22,492.8,1641.68,501.27,1639.8,536.59Z" transform="translate(-65.58 -214.74)"/><path class="cls-1" d="M1666.31,912.24h21.22v68.31H1529.68V912.24h20.19V830c0-32.09-8.8-44.51-25.36-44.51-18.63,0-29,15.53-29,44v82.81h20.18v68.31H1354.24V912.24h24.84V671.07h-24.84V602.75h141.29V771c12.93-55.89,55.89-67.28,89-67.28,55.38,0,81.77,38.3,81.77,93.16Z" transform="translate(-65.58 -214.74)"/><path class="cls-1" d="M868.3,471.17c0,54.36-35.11,86.1-90.9,86.1-39,0-63-10.58-76-46.17l.48,41.36H622.52V478.87h81.29c1.44,15.39,14.91,22.12,35.11,22.12s28.38-5.29,28.38-12.5c0-33.19-146.7,12.5-146.7-107.26,0-55.8,33.18-86.1,91.86-86.1,33.19,0,58.69,10.1,69.27,43.29l-.48-38.48h79.36v72.15H779.32c-1.44-14.43-13.47-20.68-32.22-20.68-18.28,0-25.5,5.77-25.5,13C721.6,394.22,868.3,347.08,868.3,471.17Z" transform="translate(-65.58 -214.74)"/><path class="cls-1" d="M1002.2,621.65V560.19h22.35V438.65H1002.2V377.19h127.12v183h22.35v61.46Zm14-308.72c0-33.07,26.08-53.55,58.67-53.55,38.19,0,58.67,21.42,58.67,53.55,0,33.06-26.54,53.55-58.67,53.55C1036.66,366.48,1016.17,345.52,1016.17,312.93Z" transform="translate(-65.58 -214.74)"/><path class="cls-1" d="M1049.81,879.09c-1.52,22.33-4.36,43.51-9.12,62.59-24,96.17-83.11,122-196.08,93.8C733.17,1007.7,699.75,946.66,720.11,865l44.72-176.13L721.33,678l25.12-100.76,65.64,16.37c26.89-13.57,51.3-39.91,71.87-93.15l103,25.69L960.93,630.74l129.76,32.35-25.12,100.75L935.81,731.49,896.8,888c-7.81,31.3-7.41,49.23,6.33,52.66,11.45,2.85,18.12-7.64,23.06-27.49,4-16,5.9-30.15,8-48.27Z" transform="translate(-65.58 -214.74)"/><path class="cls-2" d="M81.9,944.58H65.58V913.23h73.61v31.35H123V928.37h-8.47V970.1h8.68v15.15H81.58V970.1h8.68V928.37H81.9Z" transform="translate(-65.58 -214.74)"/><path class="cls-2" d="M207.19,963.85c-.11,14.2-3.71,22.46-18.33,22.46-10.38,0-14.19-4.66-15.46-10.49-2.54,7.84-10.27,10.49-15.36,10.49-9.95,0-16.41-5.72-16.41-16.31,0-11.87,7.83-16.84,23.83-16.84a40.07,40.07,0,0,1,7.94.74c0-6.36-2.54-8.58-5.93-8.58-3.18,0-4.66,1.27-4.77,4.66H144.38V929.33H163v12.6c1.7-9,9.11-13.35,17.48-13.35,12,0,16.73,7.95,16.73,20.55.11,4.77-.53,13.13-.53,17.37,0,3,.53,3.81,1.48,3.81,1.7,0,1.59-2.75,1.8-6.46Zm-34.11,5.62.11-7.63a14.28,14.28,0,0,0-3-.32c-3.49,0-5.19,1.8-5.19,4.77,0,3.5,1.8,5,4.35,5C170.86,971.27,172.76,970.53,173.08,969.47Z" transform="translate(-65.58 -214.74)"/><path class="cls-2" d="M243.4,955.8a46.41,46.41,0,0,0,.43-5.29c0-3-.64-5.19-2.54-5.19s-3.39,1.69-3.39,8.79v17.16h8.36v14H209v-14h5.09V943.52H209V929.64h27v14.73c1.17-13.14,9.74-15.79,16-15.79,8.37,0,12.39,4.56,12.39,13.46a60.39,60.39,0,0,1-.95,9.63Z" transform="translate(-65.58 -214.74)"/><path class="cls-2" d="M330.67,963.85c-.1,14.2-3.7,22.46-18.32,22.46-10.38,0-14.19-4.66-15.46-10.49-2.54,7.84-10.28,10.49-15.36,10.49-10,0-16.42-5.72-16.42-16.31,0-11.87,7.84-16.84,23.83-16.84a40.1,40.1,0,0,1,7.95.74c0-6.36-2.54-8.58-5.93-8.58-3.18,0-4.66,1.27-4.77,4.66H267.87V929.33h18.64v12.6c1.69-9,9.11-13.35,17.47-13.35,12,0,16.74,7.95,16.74,20.55.1,4.77-.53,13.13-.53,17.37,0,3,.53,3.81,1.48,3.81,1.69,0,1.59-2.75,1.8-6.46Zm-34.1,5.62.1-7.63a14.19,14.19,0,0,0-3-.32c-3.5,0-5.19,1.8-5.19,4.77,0,3.5,1.8,5,4.34,5C294.35,971.27,296.25,970.53,296.57,969.47Z" transform="translate(-65.58 -214.74)"/><path class="cls-2" d="M396.33,971.27h4.35v14H368.37v-14h4.13V954.43c0-6.57-1.8-9.11-5.19-9.11-3.81,0-5.93,3.18-5.93,9v16.95h4.13v14h-33v-14h5.08V943.62h-5.08v-14h28.07v14.41c2.11-12.92,11.86-15.47,19.06-15.47,11.33,0,16.73,7.84,16.73,19.07Z" transform="translate(-65.58 -214.74)"/><path class="cls-2" d="M450.13,959.19a48.91,48.91,0,0,1,.85,8.48c0,13.34-6.88,18.64-22.56,18.64-15.46,0-21.81-6.89-21.81-18.22l.1-24.47h-6v-14h9.11c3.07-2.64,5.4-6.88,6.36-14.51h14.3v14.51h18v14h-18v21.72c0,4.34.63,6.67,2.54,6.67,1.59,0,2.12-1.59,2.12-4.34a49.6,49.6,0,0,0-.53-6.57Z" transform="translate(-65.58 -214.74)"/><path class="cls-2" d="M453.63,985.25v-14h5.08V943.62h-5.08v-14h28.91v41.63h5.09v14ZM456.81,915c0-7.52,5.93-12.18,13.34-12.18,8.68,0,13.35,4.87,13.35,12.18,0,7.52-6,12.18-13.35,12.18C461.47,927.21,456.81,922.44,456.81,915Z" transform="translate(-65.58 -214.74)"/><path class="cls-2" d="M553.82,971.27h4.34v14h-32.3v-14H530V954.43c0-6.57-1.8-9.11-5.19-9.11-3.82,0-5.93,3.18-5.93,9v16.95H523v14H490v-14H495V943.62H490v-14H518v14.41c2.12-12.92,11.86-15.47,19.06-15.47,11.34,0,16.74,7.84,16.74,19.07Z" transform="translate(-65.58 -214.74)"/><path class="cls-2" d="M559.64,958.13c0-19.48,13.13-29.55,30.93-29.55,18.21,0,29.23,9.22,29.23,28.18,0,19.49-13.14,29.55-30.93,29.55C570.65,986.31,559.64,977.09,559.64,958.13Zm35.48-.63c0-10.27-1.27-14.62-5.08-14.62-3.5,0-5.72,3.29-5.72,14.51,0,10.28,1.27,14.62,5.08,14.62C592.9,972,595.12,968.73,595.12,957.5Z" transform="translate(-65.58 -214.74)"/><path class="cls-2" d="M628,946.7l-3-22.14V907.93h14.41v16.63l-3,22.14Z" transform="translate(-65.58 -214.74)"/><path class="cls-2" d="M699.54,967.35c0,12-7.73,19-20,19-8.58,0-13.88-2.33-16.74-10.17l.11,9.11H645.42V969h17.9c.32,3.39,3.29,4.88,7.73,4.88s6.25-1.17,6.25-2.76c0-7.31-32.3,2.76-32.3-23.62,0-12.28,7.31-19,20.23-19,7.31,0,12.92,2.23,15.25,9.54l-.1-8.48h17.47v15.89H680c-.32-3.18-3-4.55-7.09-4.55s-5.62,1.27-5.62,2.86C667.24,950.4,699.54,940,699.54,967.35Z" transform="translate(-65.58 -214.74)"/></svg>