<svg id="Layer_1" data-name="Layer 1" xmlns="http://www.w3.org/2000/svg" viewBox="0 0 1800 1000"><defs><style>.cls-1{fill:#ff10e7;}</style></defs><path d="M162.06,794.39c.52-4.65-.9-6.33-3.48-6.33-4.13,0-5,4-5,7.62a17.49,17.49,0,0,0,.26,2.58h15.86v17H158.06V849h8.26v17H122.2V849H129V815.28h-9.93v-17H129c.9-18.71,12.13-27.74,31-27.74,16.25,0,22.06,7.35,22.06,16.38a20.09,20.09,0,0,1-.52,4.52Z"/><path d="M237.92,842c1.67,17.41-12.26,25.28-32,25.28-23.47,0-35.73-10.58-35.73-33.93,0-24.64,14.32-36.37,37.8-36.37,20.12,0,30.57,10.7,30.57,31.47a59.79,59.79,0,0,1-.64,9.68H200.38c.38,8.25,1.93,11.61,6.83,11.61,3.49,0,5.42-1.94,5-7.74Zm-37.54-16.26h10.06a11,11,0,0,0,.13-2.19c0-7-1-9.81-4.39-9.81S200.89,816.06,200.38,825.73Z"/><path d="M243.46,866V849h6.19V788.84h-6.19v-17h35.22V849h6.19v17Z"/><path d="M287.19,866V849h6.19V788.84h-6.19v-17h35.22V849h6.19v17Z"/><path d="M330.92,866V849h6.19V815.28h-6.19v-17h35.22V849h6.19v17Zm3.87-85.53c0-9.16,7.23-14.83,16.26-14.83,10.57,0,16.25,5.93,16.25,14.83,0,9.16-7.35,14.84-16.25,14.84C340.47,795.29,334.79,789.48,334.79,780.45Z"/><path d="M452.44,849h5.29v17H418.38V849h5V828.44c0-8-2.19-11.09-6.32-11.09-4.64,0-7.22,3.87-7.22,11V849h5v17H374.65V849h6.19V815.28h-6.19v-17h34.19V815.8c2.58-15.74,14.44-18.83,23.22-18.83,13.8,0,20.38,9.54,20.38,23.22Z"/><path d="M460.56,866V849h6.2V815.28h-6.2v-17h35.22V849H502v17Zm3.87-85.53c0-9.16,7.23-14.83,16.26-14.83,10.58,0,16.25,5.93,16.25,14.83,0,9.16-7.35,14.84-16.25,14.84C470.11,795.29,464.43,789.48,464.43,780.45Z"/><path d="M525.84,841.86c0-9.94,6.19-17.8,18.7-20.9-11.61-2.19-17.41-8.64-17.41-20,0-13.67,9.28-24,36.76-24s36.76,10.32,36.76,24c0,11.23-5.8,17.68-17.28,19.87,12.38,3.1,18.57,11.09,18.57,21,0,13.54-9.8,25.41-38.05,25.41S525.84,856.43,525.84,841.86Zm46.44-1.81c0-7.35-3.36-11.09-8.39-11.09s-8.51,3.48-8.51,10.7,2.71,11.1,8.51,11.1S572.28,846.63,572.28,840.05ZM571,804.58c0-6.58-2.84-9.94-7.1-9.94s-7.22,3.1-7.22,9.55,2.32,9.93,7.22,9.93S571,810.38,571,804.58Z"/><path d="M149.14,710.29v8.82h7.47V732H122.77V719.11h5.85V683.65h-5.85V670.78h33.84c14.58,0,23.67,4.68,23.67,18.72,0,13-7.47,20.79-24.48,20.79Zm0-26.64v13.77h4.05c4.5,0,6-2.7,6-6.93,0-4.59-1.71-6.84-5.22-6.84Z"/><path d="M236.53,720.1h4.32V732H217V719.83c-1.8,10.89-9.81,13-15.93,13-9.45,0-13.95-6.66-13.95-16.2V696.61h-3.69V684.73h23.94v26.19c0,5.58,1.44,7.74,4.14,7.74,3.06,0,4.77-2.7,4.77-7.65v-14.4h-4.23V684.73h24.48Z"/><path d="M243.82,732V720.1h4.32V678.16h-4.32V666.28h24.57V720.1h4.32V732Z"/><path d="M329.77,707c0,13.95-5.58,25.92-18.18,25.92-6.3,0-10.62-2.88-12.24-9.45v12.42h4.77v11.87H274.87V735.85h4.32V696.61h-4.32V684.73h23.76v10.71c1.71-8.37,7.65-11.61,14.4-11.61C325,683.83,329.77,694.54,329.77,707Zm-21,1.71c0-7.83-2.16-11.25-5.49-11.25-2.34,0-4,1.26-4,5.22V714.7a4.4,4.4,0,0,0,4.41,4.59C306.37,719.29,308.8,717,308.8,708.67Z"/><path d="M349.84,732V719.11h5.85V683.65h-5.85V670.78h51.93V690.4H387v-6.75H376.39v13.77h5.13V693H394V714.7H381.52v-4.41h-5.13v8.82h7.92V732Z"/><path d="M404.56,732V720.1h4.32V696.61h-4.32V684.73h24.57V720.1h4.31V732Zm2.7-59.67c0-6.39,5-10.35,11.34-10.35,7.38,0,11.34,4.14,11.34,10.35,0,6.39-5.13,10.35-11.34,10.35C411.22,682.66,407.26,678.61,407.26,672.31Z"/><path d="M479,712.45c1.62,14.58-8.64,20.43-21.51,20.43-15.2,0-23.12-7.56-23.12-24.39,0-16.56,6.75-24.66,18.35-24.66,6,0,10.08,2.88,11.25,10.08v-9.45h14v19.8H463.5c.09-6.12-1.26-7.83-3.78-7.83-2.79,0-4.41,1.8-4.41,10.8,0,11,1.08,13.41,4.05,13.41s3.78-2.61,3.24-8.19Z"/><path d="M521.55,709.84a41.5,41.5,0,0,1,.72,7.2c0,11.34-5.85,15.84-19.17,15.84-13.14,0-18.53-5.85-18.53-15.48l.08-20.79h-5.13V684.73h7.74c2.61-2.25,4.59-5.85,5.4-12.33h12.15v12.33h15.3v11.88h-15.3v18.45c0,3.69.54,5.67,2.16,5.67,1.35,0,1.8-1.35,1.8-3.69a41,41,0,0,0-.45-5.58Z"/><path d="M524.52,732V720.1h4.32V696.61h-4.32V684.73h24.57V720.1h4.32V732Zm2.71-59.67c0-6.39,5-10.35,11.33-10.35,7.38,0,11.34,4.14,11.34,10.35,0,6.39-5.13,10.35-11.34,10.35C531.18,682.66,527.23,678.61,527.23,672.31Z"/><path d="M554.31,708.94c0-16.56,11.16-25.11,26.28-25.11,15.48,0,24.84,7.83,24.84,23.94,0,16.56-11.16,25.11-26.28,25.11C563.67,732.88,554.31,725.05,554.31,708.94Zm30.15-.54c0-8.73-1.08-12.42-4.32-12.42-3,0-4.86,2.79-4.86,12.33,0,8.73,1.08,12.42,4.32,12.42C582.57,720.73,584.46,717.94,584.46,708.4Z"/><path d="M661.77,720.1h3.69V732H638V720.1h3.51V705.79c0-5.58-1.53-7.74-4.41-7.74-3.24,0-5,2.7-5,7.65v14.4h3.51V732H607.5V720.1h4.32V696.61H607.5V684.73h23.85V697c1.8-11,10.08-13.14,16.2-13.14,9.63,0,14.22,6.66,14.22,16.2Z"/><path class="cls-1" d="M1089.64,552c0-247,153-362,344-362,164,0,215,56,215,135,0,14-1,26-4,44l-175,14c1-45-21-65-59-65-75,0-97,63-97,225,22-86,88-116,177-116,120,0,183,91,183,209,0,125-86,254-296,254C1191.64,890,1089.64,787,1089.64,552Zm363,113c0-53-22-95-67-95-37,0-67,30-67,91,0,72,25,101,67,101S1452.64,730,1452.64,665Z"/><path d="M612.14,833.31v-14h8.8V782.74h-8.8v-14h5.31c8.79,0,11.23-2.33,12.82-8.59h13.25v59.15h8.06v14Z"/><path d="M648.1,865.4l40.23-105.66h20.45L668.67,865.4Z"/><path d="M742.12,840.88H757v24.75H698.45V845.72c24.09-12,31.9-23.1,31.9-33,0-6.49-1.21-9.13-5.39-9.13-3.63,0-6.16,3.08-6.16,9a56.5,56.5,0,0,0,.44,7.15l-19.14-1.1a61,61,0,0,1-.66-7.37c0-15.07,11.66-21.89,27.39-21.89,18.37,0,28.71,6.38,28.71,21.34,0,14-4.62,22.66-38.83,38.83h25.41Z"/></svg>