<?xml version="1.0" encoding="utf-8"?>
<!-- Generator: Adobe Illustrator 26.0.2, SVG Export Plug-In . SVG Version: 6.00 Build 0)  -->
<svg version="1.1" id="Layer_1" xmlns="http://www.w3.org/2000/svg" xmlns:xlink="http://www.w3.org/1999/xlink" x="0px" y="0px"
	 viewBox="0 0 1800 1000" style="enable-background:new 0 0 1800 1000;" xml:space="preserve">
<style type="text/css">
	.st0{fill:#FFFFFF;}
	.st1{fill:#1D1D1B;}
	.st2{fill:#FF10E7;}
	.st3{fill:none;}
</style>
<g>
	<path d="M219.9,861.7h5.9v18.4h-45.5v-18.4h4.9l-12.3-19.2l-6.3,4.5v14.7h6.3v18.4h-44.4v-18.4h8.4v-50.8h-8.4v-18.4h46.3v18.4
		h-8.3V829l25-18.1h-8.9v-18.4h41.4v18.4H217l-20.5,14.6L219.9,861.7z"/>
	<path d="M232.5,880.2v-17h6.2v-33.7h-6.2v-17h35.2v50.7h6.2v17H232.5z M236.4,794.7c0-9.2,7.2-14.8,16.3-14.8
		c10.6,0,16.3,5.9,16.3,14.8c0,9.2-7.4,14.8-16.3,14.8C242.1,809.5,236.4,803.7,236.4,794.7z"/>
	<path d="M341.6,858.4c0,14.6-9.4,23.1-24.4,23.1c-10.4,0-16.9-2.8-20.4-12.4l0.1,11.1h-21.3v-19.7h21.8c0.4,4.1,4,5.9,9.4,5.9
		s7.6-1.4,7.6-3.4c0-8.9-39.3,3.4-39.3-28.8c0-15,8.9-23.1,24.6-23.1c8.9,0,15.7,2.7,18.6,11.6l-0.1-10.3h21.3v19.3h-21.8
		c-0.4-3.9-3.6-5.5-8.6-5.5c-4.9,0-6.8,1.5-6.8,3.5C302.3,837.7,341.6,825.1,341.6,858.4z"/>
	<path d="M410.3,858.4c0,14.6-9.4,23.1-24.4,23.1c-10.4,0-16.9-2.8-20.4-12.4l0.1,11.1h-21.3v-19.7h21.8c0.4,4.1,4,5.9,9.4,5.9
		c5.4,0,7.6-1.4,7.6-3.4c0-8.9-39.3,3.4-39.3-28.8c0-15,8.9-23.1,24.6-23.1c8.9,0,15.7,2.7,18.6,11.6l-0.1-10.3h21.3v19.3h-21.8
		c-0.4-3.9-3.6-5.5-8.6-5.5c-4.9,0-6.8,1.5-6.8,3.5C370.9,837.7,410.3,825.1,410.3,858.4z"/>
	<path d="M564.9,810.7h-8.8V862h8.8v18.2h-47.9V862h9.8v-52.1l-16.1,60.6h-24.6l-18.6-57.8V862h9.7v18.2h-40.4V862h8.9v-51.3h-8.9
		v-18.2h52.9l12.8,39.2l9.7-39.2h52.8V810.7z"/>
	<path d="M639.6,856.2c1.7,17.4-12.3,25.3-32,25.3c-23.5,0-35.7-10.6-35.7-33.9c0-24.6,14.3-36.4,37.8-36.4
		c20.1,0,30.6,10.7,30.6,31.5c0,3.9-0.1,6.1-0.6,9.7h-37.5c0.4,8.3,1.9,11.6,6.8,11.6c3.5,0,5.4-1.9,5-7.7H639.6z M602.1,839.9h10.1
		c0.1-0.6,0.1-1.3,0.1-2.2c0-7-1-9.8-4.4-9.8C604.7,827.9,602.6,830.3,602.1,839.9z"/>
	<path d="M668.5,880.2v-18.4h8.4v-50.8h-8.4v-18.4h47.1c27.1,0,42.2,14.7,42.2,42.7c0,29.7-21,45-44.2,45H668.5z M706.6,861.7h4
		c11.5,0,16.1-5.5,16.1-25.7c0-18.2-4.3-25.2-15.6-25.2h-4.5V861.7z"/>
	<path d="M831.3,856.2c1.7,17.4-12.3,25.3-32,25.3c-23.5,0-35.7-10.6-35.7-33.9c0-24.6,14.3-36.4,37.8-36.4
		c20.1,0,30.6,10.7,30.6,31.5c0,3.9-0.1,6.1-0.6,9.7h-37.5c0.4,8.3,1.9,11.6,6.8,11.6c3.5,0,5.4-1.9,5-7.7H831.3z M793.8,839.9h10.1
		c0.1-0.6,0.1-1.3,0.1-2.2c0-7-1-9.8-4.4-9.8C796.4,827.9,794.3,830.3,793.8,839.9z"/>
	<path d="M915.7,854.1c-0.1,17.3-4.5,27.3-22.3,27.3c-12.6,0-17.3-5.7-18.8-12.8c-3.1,9.5-12.5,12.8-18.7,12.8c-12.1,0-20-7-20-19.9
		c0-14.4,9.5-20.5,29-20.5c3.9,0,7.1,0.4,9.7,0.9c0-7.7-3.1-10.4-7.2-10.4c-3.9,0-5.7,1.5-5.8,5.7h-22.3v-25.2h22.7v15.4
		c2.1-11,11.1-16.3,21.3-16.3c14.6,0,20.4,9.7,20.4,25c0.1,5.8-0.6,16-0.6,21.2c0,3.6,0.6,4.6,1.8,4.6c2.1,0,1.9-3.4,2.2-7.9H915.7z
		 M874.2,861l0.1-9.3c-1.2-0.3-2.5-0.4-3.6-0.4c-4.3,0-6.3,2.2-6.3,5.8c0,4.3,2.2,6.1,5.3,6.1C871.4,863.2,873.8,862.3,874.2,861z"
		/>
	<path d="M988.3,863.2h6.2v17h-34.1v-15.4c-2.5,12-11,16.6-20.6,16.6c-17.2,0-24-15.4-24-33.4c0-21.4,7.7-36.9,26.1-36.9
		c9,0,15.2,4.1,17.5,13.5V803h-6.8v-17h35.7V863.2z M959.4,854.5v-17.3c0-3.9-2.8-6.6-6.3-6.6c-3.7,0-7.2,3.4-7.2,15.2
		c0,11.2,3.1,16.1,7.9,16.1C957.1,862,959.4,860.2,959.4,854.5z"/>
	<path d="M996.8,880.2v-17h6.2V803h-6.2v-17h35.2v77.1h6.2v17H996.8z"/>
	<path d="M1113.1,812.5v17h-2.6l-23.3,52.8c-5.8,13-8.9,21.8-26.8,21.8s-24.6-8.6-21.2-22.6l20.9-1.7c-0.6,4.5,0.4,7,2.7,7
		c1.4,0,2.2-0.6,3.4-3.2l-25.9-54h-3.1v-17h41.2v17h-5.3l7.2,17.5l6.7-17.5h-4.8v-17H1113.1z"/>
</g>
<g>
	<path d="M153.2,733.4v8.8h7.5v12.9h-33.8v-12.9h5.8v-35.5h-5.8v-12.9h33.8c14.6,0,23.7,4.7,23.7,18.7c0,13-7.5,20.8-24.5,20.8
		H153.2z M153.2,706.7v13.8h4c4.5,0,6-2.7,6-6.9c0-4.6-1.7-6.8-5.2-6.8H153.2z"/>
	<path d="M240.5,743.2h4.3v11.9H221v-12.1c-1.8,10.9-9.8,13-15.9,13c-9.4,0-13.9-6.7-13.9-16.2v-20.1h-3.7v-11.9h23.9V734
		c0,5.6,1.4,7.7,4.1,7.7c3.1,0,4.8-2.7,4.8-7.6v-14.4h-4.2v-11.9h24.5V743.2z"/>
	<path d="M247.8,755.1v-11.9h4.3v-41.9h-4.3v-11.9h24.6v53.8h4.3v11.9H247.8z"/>
	<path d="M333.8,730c0,13.9-5.6,25.9-18.2,25.9c-6.3,0-10.6-2.9-12.2-9.5v12.4h4.8v11.9h-29.2v-11.9h4.3v-39.2h-4.3v-11.9h23.8v10.7
		c1.7-8.4,7.6-11.6,14.4-11.6C329,706.9,333.8,717.6,333.8,730z M312.8,731.8c0-7.8-2.2-11.2-5.5-11.2c-2.3,0-4,1.3-4,5.2v12.1
		c0,2.7,2,4.6,4.4,4.6C310.4,742.4,312.8,740,312.8,731.8z"/>
	<path d="M353.9,755.1v-12.9h5.8v-35.5h-5.8v-12.9h51.9v19.6H391v-6.8h-10.6v13.8h5.1v-4.4H398v21.7h-12.5v-4.4h-5.1v8.8h7.9v12.9
		H353.9z"/>
	<path d="M408.6,755.1v-11.9h4.3v-23.5h-4.3v-11.9h24.6v35.4h4.3v11.9H408.6z M411.3,695.4c0-6.4,5-10.3,11.3-10.3
		c7.4,0,11.3,4.1,11.3,10.3c0,6.4-5.1,10.3-11.3,10.3C415.2,705.7,411.3,701.7,411.3,695.4z"/>
	<path d="M483,735.5c1.6,14.6-8.6,20.4-21.5,20.4c-15.2,0-23.1-7.6-23.1-24.4c0-16.6,6.8-24.7,18.4-24.7c6,0,10.1,2.9,11.2,10.1
		v-9.4h14v19.8h-14.5c0.1-6.1-1.3-7.8-3.8-7.8c-2.8,0-4.4,1.8-4.4,10.8c0,11,1.1,13.4,4,13.4c3,0,3.8-2.6,3.2-8.2H483z"/>
	<path d="M525.6,732.9c0.5,2.5,0.7,4.9,0.7,7.2c0,11.3-5.8,15.8-19.2,15.8c-13.1,0-18.5-5.9-18.5-15.5l0.1-20.8h-5.1v-11.9h7.7
		c2.6-2.2,4.6-5.8,5.4-12.3h12.1v12.3h15.3v11.9h-15.3v18.4c0,3.7,0.5,5.7,2.2,5.7c1.3,0,1.8-1.4,1.8-3.7c0-1.9-0.2-3.5-0.5-5.6
		L525.6,732.9z"/>
	<path d="M528.5,755.1v-11.9h4.3v-23.5h-4.3v-11.9h24.6v35.4h4.3v11.9H528.5z M531.2,695.4c0-6.4,5-10.3,11.3-10.3
		c7.4,0,11.3,4.1,11.3,10.3c0,6.4-5.1,10.3-11.3,10.3C535.2,705.7,531.2,701.7,531.2,695.4z"/>
	<path d="M558.3,732c0-16.6,11.2-25.1,26.3-25.1c15.5,0,24.8,7.8,24.8,23.9c0,16.6-11.2,25.1-26.3,25.1
		C567.7,756,558.3,748.1,558.3,732z M588.5,731.5c0-8.7-1.1-12.4-4.3-12.4c-3,0-4.9,2.8-4.9,12.3c0,8.7,1.1,12.4,4.3,12.4
		C586.6,743.8,588.5,741,588.5,731.5z"/>
	<path d="M665.8,743.2h3.7v11.9H642v-11.9h3.5v-14.3c0-5.6-1.5-7.7-4.4-7.7c-3.2,0-5,2.7-5,7.7v14.4h3.5v11.9h-28.1v-11.9h4.3v-23.5
		h-4.3v-11.9h23.8v12.2c1.8-11,10.1-13.1,16.2-13.1c9.6,0,14.2,6.7,14.2,16.2V743.2z"/>
	<path d="M685.9,773.5l32-84.1h16.3l-31.9,84.1H685.9z"/>
</g>
<g>
	<path class="st2" d="M1280.8,883V751h83V406h-83V274h50c83,0,106-22,121-81h125v558h76v132H1280.8z"/>
</g>
<rect x="165.9" y="-53.4" class="st3" width="3102" height="1233"/>
</svg>
