<?xml version="1.0" encoding="utf-8"?>
<!-- Generator: Adobe Illustrator 26.0.2, SVG Export Plug-In . SVG Version: 6.00 Build 0)  -->
<svg version="1.1" id="Layer_1" xmlns="http://www.w3.org/2000/svg" xmlns:xlink="http://www.w3.org/1999/xlink" x="0px" y="0px"
	 viewBox="0 0 1800 1000" style="enable-background:new 0 0 1800 1000;" xml:space="preserve">
<style type="text/css">
	.st0{fill:#FFFFFF;}
	.st1{fill:#1D1D1B;}
	.st2{fill:#FF10E7;}
	.st3{fill:none;}
</style>
<g>
	<path d="M110.9,830.4v-38.2h89.7v38.2h-19.7v-19.7h-10.3v50.8h10.6V880h-50.7v-18.4h10.6v-50.8h-10.2v19.7H110.9z M282.8,863h5.3
		v17h-39.3v-17h5v-20.5c0-8-2.2-11.1-6.3-11.1c-4.6,0-7.2,3.9-7.2,11V863h5v17h-40.2v-17h6.2v-60.1h-6.2v-17h35.2v41.9
		c3.2-13.9,13.9-16.8,22.2-16.8c13.8,0,20.4,9.5,20.4,23.2V863z"/>
	<path d="M357.1,856c1.7,17.4-12.3,25.3-32,25.3c-23.5,0-35.7-10.6-35.7-33.9c0-24.6,14.3-36.4,37.8-36.4
		c20.1,0,30.6,10.7,30.6,31.5c0,3.9-0.1,6.1-0.6,9.7h-37.5c0.4,8.3,1.9,11.6,6.8,11.6c3.5,0,5.4-1.9,5-7.7H357.1z M319.6,839.7h10.1
		c0.1-0.6,0.1-1.3,0.1-2.2c0-7-1-9.8-4.4-9.8C322.2,827.7,320.1,830.1,319.6,839.7z"/>
	<path d="M522.4,792.3v18.4h-7L497.1,880h-37.3l-9.4-31.1l-9.7,31.1h-37.4l-15.7-69.3h-7.1v-18.4H424v18.4h-6.3l10.3,47.1l12.3-42.2
		l-1.4-4.9h-6.3v-18.4h44.9v18.4h-8l13.5,45l10.8-45h-7.9v-18.4H522.4z"/>
	<path d="M604.2,853.9c-0.1,17.3-4.5,27.3-22.3,27.3c-12.6,0-17.3-5.7-18.8-12.8c-3.1,9.5-12.5,12.8-18.7,12.8c-12.1,0-20-7-20-19.9
		c0-14.4,9.5-20.5,29-20.5c3.9,0,7.1,0.4,9.7,0.9c0-7.7-3.1-10.4-7.2-10.4c-3.9,0-5.7,1.5-5.8,5.7h-22.3v-25.2h22.7v15.4
		c2.1-11,11.1-16.3,21.3-16.3c14.6,0,20.4,9.7,20.4,25c0.1,5.8-0.6,16-0.6,21.2c0,3.6,0.6,4.6,1.8,4.6c2.1,0,1.9-3.4,2.2-7.9H604.2z
		 M562.6,860.8l0.1-9.3c-1.2-0.3-2.5-0.4-3.6-0.4c-4.3,0-6.3,2.2-6.3,5.8c0,4.3,2.2,6.1,5.3,6.1C559.9,863,562.3,862,562.6,860.8z"
		/>
	<path d="M647.8,844.1c0.3-2.2,0.5-4.5,0.5-6.5c0-3.6-0.8-6.3-3.1-6.3c-2.5,0-4.1,2.1-4.1,10.7V863h10.2v17h-45.4v-17h6.2v-33.8
		h-6.2v-16.9h32.9v17.9c1.4-16,11.9-19.2,19.5-19.2c10.2,0,15.1,5.5,15.1,16.4c0,3-0.4,7.2-1.2,11.7L647.8,844.1z"/>
	<path d="M716.4,844.1c0.3-2.2,0.5-4.5,0.5-6.5c0-3.6-0.8-6.3-3.1-6.3c-2.5,0-4.1,2.1-4.1,10.7V863h10.2v17h-45.4v-17h6.2v-33.8
		h-6.2v-16.9h32.9v17.9c1.4-16,11.9-19.2,19.5-19.2c10.2,0,15.1,5.5,15.1,16.4c0,3-0.4,7.2-1.2,11.7L716.4,844.1z"/>
	<path d="M743.1,880v-17h6.2v-33.7h-6.2v-17h35.2V863h6.2v17H743.1z M747,794.5c0-9.2,7.2-14.8,16.3-14.8c10.6,0,16.3,5.9,16.3,14.8
		c0,9.2-7.4,14.8-16.3,14.8C752.7,809.3,747,803.5,747,794.5z"/>
	<path d="M785.3,847c0-23.7,16-36,37.7-36c22.2,0,35.6,11.2,35.6,34.3c0,23.7-16,36-37.7,36C798.7,881.3,785.3,870,785.3,847z
		 M828.5,846.2c0-12.5-1.5-17.8-6.2-17.8c-4.3,0-7,4-7,17.7c0,12.5,1.5,17.8,6.2,17.8C825.8,863.9,828.5,859.9,828.5,846.2z"/>
	<path d="M904.9,844.1c0.3-2.2,0.5-4.5,0.5-6.5c0-3.6-0.8-6.3-3.1-6.3c-2.5,0-4.1,2.1-4.1,10.7V863h10.2v17h-45.4v-17h6.2v-33.8
		h-6.2v-16.9h32.9v17.9c1.4-16,11.9-19.2,19.5-19.2c10.2,0,15.1,5.5,15.1,16.4c0,3-0.4,7.2-1.2,11.7L904.9,844.1z"/>
	<path d="M997,858.2c0,14.6-9.4,23.1-24.4,23.1c-10.4,0-16.9-2.8-20.4-12.4l0.1,11.1h-21.3v-19.7h21.8c0.4,4.1,4,5.9,9.4,5.9
		s7.6-1.4,7.6-3.4c0-8.9-39.3,3.4-39.3-28.8c0-15,8.9-23.1,24.6-23.1c8.9,0,15.7,2.7,18.6,11.6l-0.1-10.3h21.3v19.3h-21.8
		c-0.4-3.9-3.6-5.5-8.6-5.5c-4.9,0-6.8,1.5-6.8,3.5C957.6,837.5,997,824.9,997,858.2z"/>
</g>
<g>
	<path d="M140,733.2v8.8h7.5v12.9h-33.8V742h5.8v-35.5h-5.8v-12.9h33.8c14.6,0,23.7,4.7,23.7,18.7c0,13-7.5,20.8-24.5,20.8H140z
		 M140,706.5v13.8h4c4.5,0,6-2.7,6-6.9c0-4.6-1.7-6.8-5.2-6.8H140z"/>
	<path d="M227.4,743h4.3v11.9h-23.8v-12.1c-1.8,10.9-9.8,13-15.9,13c-9.4,0-13.9-6.7-13.9-16.2v-20.1h-3.7v-11.9h23.9v26.2
		c0,5.6,1.4,7.7,4.1,7.7c3.1,0,4.8-2.7,4.8-7.6v-14.4h-4.2v-11.9h24.5V743z"/>
	<path d="M234.7,754.9V743h4.3V701h-4.3v-11.9h24.6V743h4.3v11.9H234.7z"/>
	<path d="M320.6,729.8c0,13.9-5.6,25.9-18.2,25.9c-6.3,0-10.6-2.9-12.2-9.5v12.4h4.8v11.9h-29.2v-11.9h4.3v-39.2h-4.3v-11.9h23.8
		v10.7c1.7-8.4,7.6-11.6,14.4-11.6C315.9,706.7,320.6,717.4,320.6,729.8z M299.7,731.5c0-7.8-2.2-11.2-5.5-11.2c-2.3,0-4,1.3-4,5.2
		v12.1c0,2.7,2,4.6,4.4,4.6C297.2,742.2,299.7,739.8,299.7,731.5z"/>
	<path d="M340.7,754.9V742h5.8v-35.5h-5.8v-12.9h51.9v19.6h-14.8v-6.8h-10.6v13.8h5.1v-4.4h12.5v21.7h-12.5v-4.4h-5.1v8.8h7.9v12.9
		H340.7z"/>
	<path d="M395.4,754.9V743h4.3v-23.5h-4.3v-11.9H420V743h4.3v11.9H395.4z M398.1,695.2c0-6.4,5-10.3,11.3-10.3
		c7.4,0,11.3,4.1,11.3,10.3c0,6.4-5.1,10.3-11.3,10.3C402.1,705.5,398.1,701.5,398.1,695.2z"/>
	<path d="M469.9,735.3c1.6,14.6-8.6,20.4-21.5,20.4c-15.2,0-23.1-7.6-23.1-24.4c0-16.6,6.8-24.7,18.4-24.7c6,0,10.1,2.9,11.2,10.1
		v-9.4h14v19.8h-14.5c0.1-6.1-1.3-7.8-3.8-7.8c-2.8,0-4.4,1.8-4.4,10.8c0,11,1.1,13.4,4,13.4c3,0,3.8-2.6,3.2-8.2H469.9z"/>
	<path d="M512.4,732.7c0.5,2.5,0.7,4.9,0.7,7.2c0,11.3-5.8,15.8-19.2,15.8c-13.1,0-18.5-5.9-18.5-15.5l0.1-20.8h-5.1v-11.9h7.7
		c2.6-2.2,4.6-5.8,5.4-12.3h12.1v12.3H511v11.9h-15.3v18.4c0,3.7,0.5,5.7,2.2,5.7c1.3,0,1.8-1.4,1.8-3.7c0-1.9-0.2-3.5-0.5-5.6
		L512.4,732.7z"/>
	<path d="M515.4,754.9V743h4.3v-23.5h-4.3v-11.9H540V743h4.3v11.9H515.4z M518.1,695.2c0-6.4,5-10.3,11.3-10.3
		c7.4,0,11.3,4.1,11.3,10.3c0,6.4-5.1,10.3-11.3,10.3C522.1,705.5,518.1,701.5,518.1,695.2z"/>
	<path d="M545.2,731.8c0-16.6,11.2-25.1,26.3-25.1c15.5,0,24.8,7.8,24.8,23.9c0,16.6-11.2,25.1-26.3,25.1
		C554.5,755.8,545.2,747.9,545.2,731.8z M575.3,731.3c0-8.7-1.1-12.4-4.3-12.4c-3,0-4.9,2.8-4.9,12.3c0,8.7,1.1,12.4,4.3,12.4
		C573.4,743.6,575.3,740.8,575.3,731.3z"/>
	<path d="M652.6,743h3.7v11.9h-27.4V743h3.5v-14.3c0-5.6-1.5-7.7-4.4-7.7c-3.2,0-5,2.7-5,7.7V743h3.5v11.9h-28.1V743h4.3v-23.5h-4.3
		v-11.9h23.8v12.2c1.8-11,10.1-13.1,16.2-13.1c9.6,0,14.2,6.7,14.2,16.2V743z"/>
	<path d="M672.7,773.3l32-84.1H721l-31.9,84.1H672.7z"/>
</g>
<g>
	<path class="st2" d="M1583.1,658h135v225h-532V702c219-109,290-210,290-300c0-59-11-83-49-83c-33,0-56,28-56,82c0,20,1,41,4,65
		l-174-10c-3-25-6-45-6-67c0-137,106-199,249-199c167,0,261,58,261,194c0,127-42,206-353,353h231V658z"/>
</g>
<rect x="-8.1" y="-49.4" class="st3" width="3102" height="1233"/>
<rect x="-1961.3" y="-53.6" class="st3" width="3102" height="1233"/>
</svg>
