<?xml version="1.0" encoding="utf-8"?>
<!-- Generator: Adobe Illustrator 26.0.2, SVG Export Plug-In . SVG Version: 6.00 Build 0)  -->
<svg version="1.1" id="Layer_1" xmlns="http://www.w3.org/2000/svg" xmlns:xlink="http://www.w3.org/1999/xlink" x="0px" y="0px"
	 viewBox="0 0 1800 1000" style="enable-background:new 0 0 1800 1000;" xml:space="preserve">
<style type="text/css">
	.st0{fill:#FFFFFF;}
	.st1{fill:#1D1D1B;}
	.st2{fill:#FF10E7;}
	.st3{fill:none;}
</style>
<g>
	<path d="M110.9,830.4v-38.2h89.7v38.2h-19.7v-19.7h-10.3v50.8h10.6V880h-50.7v-18.4h10.6v-50.8h-10.2v19.7H110.9z M282.8,863h5.3
		v17h-39.3v-17h5v-20.5c0-8-2.2-11.1-6.3-11.1c-4.6,0-7.2,3.9-7.2,11V863h5v17h-40.2v-17h6.2v-60.1h-6.2v-17h35.2v41.9
		c3.2-13.9,13.9-16.8,22.2-16.8c13.8,0,20.4,9.5,20.4,23.2V863z"/>
	<path d="M357.1,856c1.7,17.4-12.3,25.3-32,25.3c-23.5,0-35.7-10.6-35.7-33.9c0-24.6,14.3-36.4,37.8-36.4
		c20.1,0,30.6,10.7,30.6,31.5c0,3.9-0.1,6.1-0.6,9.7h-37.5c0.4,8.3,1.9,11.6,6.8,11.6c3.5,0,5.4-1.9,5-7.7H357.1z M319.6,839.7h10.1
		c0.1-0.6,0.1-1.3,0.1-2.2c0-7-1-9.8-4.4-9.8C322.2,827.7,320.1,830.1,319.6,839.7z"/>
	<path d="M386,880v-18.4h8.4v-50.8H386v-18.4h74.4v28.1h-21.2v-9.7h-15.2v19.7h7.4v-6.3h17.9v31.1h-17.9v-6.3h-7.4v12.6h11.4V880
		H386z"/>
	<path d="M464.5,880v-17h6.2v-60.1h-6.2v-17h35.2V863h6.2v17H464.5z"/>
	<path d="M508.2,880v-17h6.2v-33.7h-6.2v-17h35.2V863h6.2v17H508.2z M512.1,794.5c0-9.2,7.2-14.8,16.3-14.8
		c10.6,0,16.3,5.9,16.3,14.8c0,9.2-7.4,14.8-16.3,14.8C517.7,809.3,512.1,803.5,512.1,794.5z"/>
	<path d="M629.7,863h5.3v17h-39.3v-17h5v-20.5c0-8-2.2-11.1-6.3-11.1c-4.6,0-7.2,3.9-7.2,11V863h5v17h-40.2v-17h6.2v-33.7h-6.2v-17
		h34.2v17.5c2.6-15.7,14.4-18.8,23.2-18.8c13.8,0,20.4,9.5,20.4,23.2V863z"/>
	<path d="M703.2,858.2c0,14.6-9.4,23.1-24.4,23.1c-10.4,0-16.9-2.8-20.4-12.4l0.1,11.1h-21.3v-19.7h21.8c0.4,4.1,4,5.9,9.4,5.9
		s7.6-1.4,7.6-3.4c0-8.9-39.3,3.4-39.3-28.8c0-15,8.9-23.1,24.6-23.1c8.9,0,15.7,2.7,18.6,11.6l-0.1-10.3h21.3v19.3h-21.8
		c-0.4-3.9-3.6-5.5-8.6-5.5c-4.9,0-6.8,1.5-6.8,3.5C663.9,837.5,703.2,824.9,703.2,858.2z"/>
	<path d="M763.4,848.2c0.6,3.6,1,7.1,1,10.3c0,16.3-8.4,22.7-27.5,22.7c-18.8,0-26.6-8.4-26.6-22.2l0.1-29.8h-7.4v-17h11.1
		c3.7-3.2,6.6-8.4,7.7-17.7h17.4v17.7h21.9v17h-21.9v26.4c0,5.3,0.8,8.1,3.1,8.1c1.9,0,2.6-1.9,2.6-5.3c0-2.7-0.3-5-0.6-8
		L763.4,848.2z"/>
	<path d="M765.6,847c0-23.7,16-36,37.7-36c22.2,0,35.6,11.2,35.6,34.3c0,23.7-16,36-37.7,36C779,881.3,765.6,870,765.6,847z
		 M808.8,846.2c0-12.5-1.5-17.8-6.2-17.8c-4.3,0-7,4-7,17.7c0,12.5,1.5,17.8,6.2,17.8C806.1,863.9,808.8,859.9,808.8,846.2z"/>
	<path d="M921,863h5.3v17h-39.3v-17h5v-20.5c0-8-2.2-11.1-6.3-11.1c-4.6,0-7.2,3.9-7.2,11V863h5v17h-40.2v-17h6.2v-33.7h-6.2v-17
		h34.2v17.5c2.6-15.7,14.4-18.8,23.2-18.8c13.8,0,20.4,9.5,20.4,23.2V863z"/>
	<path d="M995.3,856c1.7,17.4-12.3,25.3-32,25.3c-23.5,0-35.7-10.6-35.7-33.9c0-24.6,14.3-36.4,37.8-36.4
		c20.1,0,30.6,10.7,30.6,31.5c0,3.9-0.1,6.1-0.6,9.7h-37.5c0.4,8.3,1.9,11.6,6.8,11.6c3.5,0,5.4-1.9,5-7.7H995.3z M957.8,839.7h10.1
		c0.1-0.6,0.1-1.3,0.1-2.2c0-7-1-9.8-4.4-9.8C960.3,827.7,958.3,830.1,957.8,839.7z"/>
	<path d="M1066.2,858.2c0,14.6-9.4,23.1-24.4,23.1c-10.4,0-16.9-2.8-20.4-12.4l0.1,11.1h-21.3v-19.7h21.8c0.4,4.1,4,5.9,9.4,5.9
		s7.6-1.4,7.6-3.4c0-8.9-39.3,3.4-39.3-28.8c0-15,8.9-23.1,24.6-23.1c8.9,0,15.7,2.7,18.6,11.6l-0.1-10.3h21.3v19.3h-21.8
		c-0.4-3.9-3.6-5.5-8.6-5.5c-4.9,0-6.8,1.5-6.8,3.5C1026.9,837.5,1066.2,824.9,1066.2,858.2z"/>
</g>
<g>
	<path d="M140,733.2v8.8h7.5v12.9h-33.8V742h5.8v-35.5h-5.8v-12.9h33.8c14.6,0,23.7,4.7,23.7,18.7c0,13-7.5,20.8-24.5,20.8H140z
		 M140,706.5v13.8h4c4.5,0,6-2.7,6-6.9c0-4.6-1.7-6.8-5.2-6.8H140z"/>
	<path d="M227.4,743h4.3v11.9h-23.8v-12.1c-1.8,10.9-9.8,13-15.9,13c-9.4,0-13.9-6.7-13.9-16.2v-20.1h-3.7v-11.9h23.9v26.2
		c0,5.6,1.4,7.7,4.1,7.7c3.1,0,4.8-2.7,4.8-7.7v-14.4h-4.2v-11.9h24.5V743z"/>
	<path d="M234.7,754.9V743h4.3V701h-4.3v-11.9h24.6V743h4.3v11.9H234.7z"/>
	<path d="M320.6,729.8c0,14-5.6,25.9-18.2,25.9c-6.3,0-10.6-2.9-12.2-9.5v12.4h4.8v11.9h-29.2v-11.9h4.3v-39.2h-4.3v-11.9h23.8v10.7
		c1.7-8.4,7.6-11.6,14.4-11.6C315.9,706.7,320.6,717.4,320.6,729.8z M299.7,731.5c0-7.8-2.2-11.2-5.5-11.2c-2.3,0-4,1.3-4,5.2v12.1
		c0,2.7,2,4.6,4.4,4.6C297.2,742.2,299.7,739.8,299.7,731.5z"/>
	<path d="M340.7,754.9V742h5.8v-35.5h-5.8v-12.9h51.9v19.6h-14.8v-6.8h-10.6v13.8h5.1v-4.4h12.5v21.7h-12.5v-4.4h-5.1v8.8h7.9v12.9
		H340.7z"/>
	<path d="M395.4,754.9V743h4.3v-23.5h-4.3v-11.9H420V743h4.3v11.9H395.4z M398.1,695.2c0-6.4,5-10.3,11.3-10.3
		c7.4,0,11.3,4.1,11.3,10.3c0,6.4-5.1,10.3-11.3,10.3C402.1,705.5,398.1,701.5,398.1,695.2z"/>
	<path d="M469.9,735.3c1.6,14.6-8.6,20.4-21.5,20.4c-15.2,0-23.1-7.6-23.1-24.4c0-16.6,6.8-24.7,18.4-24.7c6,0,10.1,2.9,11.2,10.1
		v-9.5h14v19.8h-14.5c0.1-6.1-1.3-7.8-3.8-7.8c-2.8,0-4.4,1.8-4.4,10.8c0,11,1.1,13.4,4,13.4c3,0,3.8-2.6,3.2-8.2H469.9z"/>
	<path d="M512.4,732.7c0.5,2.5,0.7,5,0.7,7.2c0,11.3-5.8,15.8-19.2,15.8c-13.1,0-18.5-5.9-18.5-15.5l0.1-20.8h-5.1v-11.9h7.7
		c2.6-2.2,4.6-5.8,5.4-12.3h12.1v12.3H511v11.9h-15.3v18.4c0,3.7,0.5,5.7,2.2,5.7c1.3,0,1.8-1.3,1.8-3.7c0-1.9-0.2-3.5-0.5-5.6
		L512.4,732.7z"/>
	<path d="M515.4,754.9V743h4.3v-23.5h-4.3v-11.9H540V743h4.3v11.9H515.4z M518.1,695.2c0-6.4,5-10.3,11.3-10.3
		c7.4,0,11.3,4.1,11.3,10.3c0,6.4-5.1,10.3-11.3,10.3C522.1,705.5,518.1,701.5,518.1,695.2z"/>
	<path d="M545.2,731.8c0-16.6,11.2-25.1,26.3-25.1c15.5,0,24.8,7.8,24.8,23.9c0,16.6-11.2,25.1-26.3,25.1
		C554.5,755.8,545.2,747.9,545.2,731.8z M575.3,731.3c0-8.7-1.1-12.4-4.3-12.4c-3,0-4.9,2.8-4.9,12.3c0,8.7,1.1,12.4,4.3,12.4
		C573.4,743.6,575.3,740.8,575.3,731.3z"/>
	<path d="M652.6,743h3.7v11.9h-27.4V743h3.5v-14.3c0-5.6-1.5-7.7-4.4-7.7c-3.2,0-5,2.7-5,7.6V743h3.5v11.9h-28.1V743h4.3v-23.5h-4.3
		v-11.9h23.8v12.2c1.8-11,10.1-13.1,16.2-13.1c9.6,0,14.2,6.7,14.2,16.2V743z"/>
	<path d="M672.7,773.3l32-84.1H721l-31.9,84.1H672.7z"/>
</g>
<g>
	<path class="st2" d="M1170.1,700c0-14,1-27,4-45l176-23c0,0-1,11-1,22c0,64,25,99,71,99c42,0,66-28,66-83c0-44-16-66-66-66h-53V469
		h51c43,0,57-21,57-64c0-56-21-81-57-81c-25,0-53,11-53,59c0,15,1,33,4,52l-175-11c-4-20-6-36-6-53c0-128,104-184,244-184
		c178,0,272,53,272,175c0,81-35,144-135,164c105,11,146,78,146,159c0,117-84,205-299,205C1233.1,890,1170.1,812,1170.1,700z"/>
</g>
<rect x="-8.1" y="-49.4" class="st3" width="3102" height="1233"/>
<rect x="-1961.3" y="-53.6" class="st3" width="3102" height="1233"/>
<rect x="-8.1" y="-1174.2" class="st3" width="3102" height="1233"/>
<rect x="-1961.3" y="-1178.4" class="st3" width="3102" height="1233"/>
</svg>
