<?xml version="1.0" encoding="utf-8"?>
<!-- Generator: Adobe Illustrator 26.0.2, SVG Export Plug-In . SVG Version: 6.00 Build 0)  -->
<svg version="1.1" id="Layer_1" xmlns="http://www.w3.org/2000/svg" xmlns:xlink="http://www.w3.org/1999/xlink" x="0px" y="0px"
	 viewBox="0 0 1800 1000" style="enable-background:new 0 0 1800 1000;" xml:space="preserve">
<style type="text/css">
	.st0{fill:#FFFFFF;}
	.st1{fill:#1D1D1B;}
	.st2{fill:#FF10E7;}
	.st3{fill:none;}
</style>
<g>
	<path d="M145.2,578v-38.2h89.7V578h-19.7v-19.7h-10.3v50.8h10.6v18.4h-50.7v-18.4h10.6v-50.8h-10.2V578H145.2z M317.2,610.5h5.3v17
		h-39.3v-17h5V590c0-8-2.2-11.1-6.3-11.1c-4.6,0-7.2,3.9-7.2,11v20.6h5v17h-40.2v-17h6.2v-60.1h-6.2v-17h35.2v41.9
		c3.2-13.9,13.9-16.8,22.2-16.8c13.8,0,20.4,9.5,20.4,23.2V610.5z"/>
	<path d="M391.5,603.5c1.7,17.4-12.3,25.3-32,25.3c-23.5,0-35.7-10.6-35.7-33.9c0-24.6,14.3-36.4,37.8-36.4
		c20.1,0,30.6,10.7,30.6,31.5c0,3.9-0.1,6.1-0.6,9.7h-37.5c0.4,8.3,1.9,11.6,6.8,11.6c3.5,0,5.4-1.9,5-7.7H391.5z M353.9,587.3H364
		c0.1-0.6,0.1-1.3,0.1-2.2c0-7-1-9.8-4.4-9.8C356.5,575.3,354.4,577.6,353.9,587.3z"/>
	<path d="M463.6,579.8h42.8V598H501v29.5h-25.5v-13.7c-2.7,8.9-11,15-23.3,15c-20.3,0-32.9-14.1-32.9-44.8
		c0-30.8,17.9-45.5,38.2-45.5c11.9,0,19.2,5.8,21.4,14.8v-15.2h20.4v33.2h-20.4c0-9.5-6.2-13.8-13.2-13.8
		c-10.3,0-15.9,6.6-15.9,24.8c0,20.5,5.3,27.6,14.1,27.6c4.8,0,9.7-2.7,9.7-10.1V598h-9.9V579.8z"/>
	<path d="M509.5,594.5c0-23.7,16-36,37.7-36c22.2,0,35.6,11.2,35.6,34.3c0,23.7-16,36-37.7,36C522.9,628.8,509.5,617.6,509.5,594.5z
		 M552.7,593.7c0-12.5-1.5-17.8-6.2-17.8c-4.3,0-7,4-7,17.7c0,12.5,1.5,17.8,6.2,17.8C550,611.4,552.7,607.4,552.7,593.7z"/>
	<path d="M585.6,594.5c0-23.7,16-36,37.7-36c22.2,0,35.6,11.2,35.6,34.3c0,23.7-16,36-37.7,36C599,628.8,585.6,617.6,585.6,594.5z
		 M628.8,593.7c0-12.5-1.5-17.8-6.2-17.8c-4.3,0-7,4-7,17.7c0,12.5,1.5,17.8,6.2,17.8C626.1,611.4,628.8,607.4,628.8,593.7z"/>
	<path d="M734.2,610.5h6.2v17h-34.1v-15.3c-2.5,12-11,16.6-20.6,16.6c-17.2,0-24-15.4-24-33.4c0-21.4,7.7-36.9,26.1-36.9
		c9,0,15.2,4.1,17.5,13.5v-21.7h-6.8v-17h35.7V610.5z M705.3,601.8v-17.3c0-3.9-2.8-6.6-6.3-6.6c-3.7,0-7.2,3.4-7.2,15.2
		c0,11.2,3.1,16.1,7.9,16.1C703,609.3,705.3,607.5,705.3,601.8z"/>
	<path d="M771.5,617.2c0,15.5-9.2,27.6-24.8,34.1l-4.5-9.3c7.7-3.5,12.9-8.1,15.2-13.2h-0.8c-9.2,0-14.8-6.3-14.8-15.1
		c0-8.9,5.7-15.2,14.8-15.2C766.7,598.5,771.5,605.3,771.5,617.2z"/>
	<path d="M204,722.8c0.6,3.6,1,7.1,1,10.3c0,16.3-8.4,22.7-27.5,22.7c-18.8,0-26.6-8.4-26.6-22.2l0.1-29.8h-7.4v-17h11.1
		c3.7-3.2,6.6-8.4,7.7-17.7H180v17.7H202v17H180v26.4c0,5.3,0.8,8.1,3.1,8.1c1.9,0,2.6-1.9,2.6-5.3c0-2.7-0.3-5-0.6-8L204,722.8z"/>
	<path d="M285.5,737.5h5.3v17h-39.3v-17h5V717c0-8-2.2-11.1-6.3-11.1c-4.6,0-7.2,3.9-7.2,11v20.6h5v17h-40.2v-17h6.2v-60.1h-6.2v-17
		H243v41.9c3.2-13.9,13.9-16.8,22.2-16.8c13.8,0,20.4,9.5,20.4,23.2V737.5z"/>
	<path d="M359.9,730.5c1.7,17.4-12.3,25.3-32,25.3c-23.5,0-35.7-10.6-35.7-33.9c0-24.6,14.3-36.4,37.8-36.4
		c20.1,0,30.6,10.7,30.6,31.5c0,3.9-0.1,6.1-0.6,9.7h-37.5c0.4,8.3,1.9,11.6,6.8,11.6c3.5,0,5.4-1.9,5-7.7H359.9z M322.3,714.3h10.1
		c0.1-0.6,0.1-1.3,0.1-2.2c0-7-1-9.8-4.4-9.8C324.9,702.3,322.8,704.6,322.3,714.3z"/>
	<path d="M478,729.6c0,16.5-16.8,24.9-43.7,24.9h-45.5v-18.4h8.4v-50.8h-8.4v-18.4h47.6c25.3,0,39.5,5.3,39.5,23
		c0,8.1-4.8,15.9-19.3,19.1C473,712.5,478,720.7,478,729.6z M426.8,685.2v15.9h5c10.2,0,12.9-3.4,12.9-8.5c0-4.6-3.2-7.4-11.9-7.4
		H426.8z M431.2,736.1c11.6,0,15.7-2.7,15.7-8c0-5.2-3.5-8.4-13.2-8.4h-7v16.4H431.2z"/>
	<path d="M563.3,728.5c-0.1,17.3-4.5,27.3-22.3,27.3c-12.6,0-17.3-5.7-18.8-12.8c-3.1,9.5-12.5,12.8-18.7,12.8c-12.1,0-20-7-20-19.9
		c0-14.4,9.5-20.5,29-20.5c3.9,0,7.1,0.4,9.7,0.9c0-7.7-3.1-10.4-7.2-10.4c-3.9,0-5.7,1.5-5.8,5.7h-22.3v-25.2h22.7v15.4
		c2.1-11,11.1-16.3,21.3-16.3c14.6,0,20.4,9.7,20.4,25c0.1,5.8-0.6,16-0.6,21.2c0,3.6,0.6,4.6,1.8,4.6c2.1,0,1.9-3.4,2.2-7.9H563.3z
		 M521.7,735.3l0.1-9.3c-1.2-0.3-2.5-0.4-3.6-0.4c-4.3,0-6.3,2.2-6.3,5.8c0,4.3,2.2,6.1,5.3,6.1C519,737.5,521.4,736.6,521.7,735.3z
		"/>
	<path d="M635.9,737.5h6.2v17H608v-15.3c-2.5,12-11,16.6-20.6,16.6c-17.2,0-24-15.4-24-33.4c0-21.4,7.7-36.9,26.1-36.9
		c9,0,15.2,4.1,17.5,13.5v-21.7h-6.8v-17h35.7V737.5z M607,728.8v-17.3c0-3.9-2.8-6.6-6.3-6.6c-3.7,0-7.2,3.4-7.2,15.2
		c0,11.2,3.1,16.1,7.9,16.1C604.7,736.3,607,734.5,607,728.8z"/>
	<path d="M225.9,855.5c-0.1,17.3-4.5,27.3-22.3,27.3c-12.6,0-17.3-5.7-18.8-12.8c-3.1,9.5-12.5,12.8-18.7,12.8c-12.1,0-20-7-20-19.9
		c0-14.4,9.5-20.5,29-20.5c3.9,0,7.1,0.4,9.7,0.9c0-7.7-3.1-10.4-7.2-10.4c-3.9,0-5.7,1.5-5.8,5.7h-22.3v-25.2h22.7v15.4
		c2.1-11,11.1-16.3,21.3-16.3c14.6,0,20.4,9.7,20.4,25c0.1,5.8-0.6,16-0.6,21.2c0,3.6,0.6,4.6,1.8,4.6c2.1,0,1.9-3.4,2.2-7.9H225.9z
		 M184.4,862.3l0.1-9.3c-1.2-0.3-2.5-0.4-3.6-0.4c-4.3,0-6.3,2.2-6.3,5.8c0,4.3,2.2,6.1,5.3,6.1C181.7,864.5,184,863.6,184.4,862.3z
		"/>
	<path d="M305.4,864.5h5.3v17h-39.3v-17h5V844c0-8-2.2-11.1-6.3-11.1c-4.6,0-7.2,3.9-7.2,11v20.6h5v17h-40.2v-17h6.2v-33.7h-6.2v-17
		h34.2v17.5c2.6-15.7,14.4-18.8,23.2-18.8c13.8,0,20.4,9.5,20.4,23.2V864.5z"/>
	<path d="M384.5,864.5h6.2v17h-34.1v-15.3c-2.5,12-11,16.6-20.6,16.6c-17.2,0-24-15.4-24-33.4c0-21.4,7.7-36.9,26.1-36.9
		c9,0,15.2,4.1,17.5,13.5v-21.7h-6.8v-17h35.7V864.5z M355.6,855.8v-17.3c0-3.9-2.8-6.6-6.3-6.6c-3.7,0-7.2,3.4-7.2,15.2
		c0,11.2,3.1,16.1,7.9,16.1C353.3,863.3,355.6,861.5,355.6,855.8z"/>
	<path d="M470.7,849.8c0.6,3.6,1,7.1,1,10.3c0,16.3-8.4,22.7-27.5,22.7c-18.8,0-26.6-8.4-26.6-22.2l0.1-29.8h-7.4v-17h11.1
		c3.7-3.2,6.6-8.4,7.7-17.7h17.4v17.7h21.9v17h-21.9v26.4c0,5.3,0.8,8.1,3.1,8.1c1.9,0,2.6-1.9,2.6-5.3c0-2.7-0.3-5-0.6-8
		L470.7,849.8z"/>
	<path d="M552.2,864.5h5.3v17h-39.3v-17h5V844c0-8-2.2-11.1-6.3-11.1c-4.6,0-7.2,3.9-7.2,11v20.6h5v17h-40.2v-17h6.2v-60.1h-6.2v-17
		h35.2v41.9c3.2-13.9,13.9-16.8,22.2-16.8c13.8,0,20.4,9.5,20.4,23.2V864.5z"/>
	<path d="M626.5,857.5c1.7,17.4-12.3,25.3-32,25.3c-23.5,0-35.7-10.6-35.7-33.9c0-24.6,14.3-36.4,37.8-36.4
		c20.1,0,30.6,10.7,30.6,31.5c0,3.9-0.1,6.1-0.6,9.7H589c0.4,8.3,1.9,11.6,6.8,11.6c3.5,0,5.4-1.9,5-7.7H626.5z M589,841.3H599
		c0.1-0.6,0.1-1.3,0.1-2.2c0-7-1-9.8-4.4-9.8C591.5,829.3,589.5,831.6,589,841.3z"/>
	<path d="M660.2,844.7v-32.5h-8.4v-18.4H698v18.4h-8.5v30.6c0,15.7,3.5,21,12.6,21c9,0,12.4-5.2,12.4-19.1v-32.5h-8.6v-18.4h38.8
		v18.4h-8.4V844c0,24.2-9.8,38.8-36.6,38.8C671,882.8,660.2,870.2,660.2,844.7z"/>
	<path d="M796,860.2c21.3,0,27.1,9,27.1,20.8c0,13.9-9.2,24.4-45.3,24.4c-26.7,0-33.2-5.4-33.2-11.7c0-5.2,5.4-8.6,16.5-10.1
		c-9.3-1.9-13.7-6.8-13.7-13.8c0-7.6,5.3-13.7,17.3-16.4c-9.9-3-15.6-9.2-15.6-18.7c0-15,15.1-22.1,35.5-22.1
		c4.3,0,8.1,0.3,11.7,0.9c0-4.9-0.1-9.5-0.4-14.4l24.3-2.8c1.4,11.5-1.8,18.4-16,19.2c8.8,3.2,13.8,9.3,13.8,18.2
		c0,15.1-15.2,22.1-35.3,22.1c-3.9,0-7.6-0.3-10.8-0.8c-1.4,0.9-1.8,1.7-1.8,2.8c0,1.5,1.5,2.5,5.7,2.5H796z M799.7,887.1
		c0-1.3-1.2-2.5-6.2-2.5h-21.8c-1,0-2.1,0-3-0.1c-0.5,0.9-0.6,1.4-0.6,1.8c0,2.2,1.5,3.5,12.4,3.5
		C797.4,889.8,799.7,888.6,799.7,887.1z M779,834.4c0,5,1.3,7.2,4.5,7.2c2.6,0,4.9-1.3,4.9-7.7c0-5.2-1.5-7.2-4.6-7.2
		C781,826.7,779,828.2,779,834.4z"/>
	<path d="M824.1,881.5v-17h6.2v-60.1h-6.2v-17h35.2v77.1h6.2v17H824.1z"/>
	<path d="M940.3,813.8v17h-2.6l-23.3,52.8c-5.8,13-8.9,21.8-26.8,21.8s-24.6-8.6-21.2-22.6l20.9-1.7c-0.6,4.5,0.4,7,2.7,7
		c1.4,0,2.2-0.6,3.4-3.2l-25.9-54h-3.1v-17h41.2v17h-5.3l7.2,17.5l6.7-17.5h-4.8v-17H940.3z"/>
</g>
<g>
	<path d="M174.3,455.2v8.8h7.5v12.9H148v-12.9h5.8v-35.5H148v-12.9h33.8c14.6,0,23.7,4.7,23.7,18.7c0,13-7.5,20.8-24.5,20.8H174.3z
		 M174.3,428.6v13.8h4c4.5,0,6-2.7,6-6.9c0-4.6-1.7-6.8-5.2-6.8H174.3z"/>
	<path d="M261.7,465h4.3v11.9h-23.8v-12.1c-1.8,10.9-9.8,13-15.9,13c-9.4,0-13.9-6.7-13.9-16.2v-20.1h-3.7v-11.9h23.9v26.2
		c0,5.6,1.4,7.7,4.1,7.7c3.1,0,4.8-2.7,4.8-7.6v-14.4h-4.2v-11.9h24.5V465z"/>
	<path d="M269,476.9V465h4.3v-41.9H269v-11.9h24.6V465h4.3v11.9H269z"/>
	<path d="M355,451.9c0,13.9-5.6,25.9-18.2,25.9c-6.3,0-10.6-2.9-12.2-9.5v12.4h4.8v11.9h-29.2v-11.9h4.3v-39.2h-4.3v-11.9h23.8v10.7
		c1.7-8.4,7.6-11.6,14.4-11.6C350.2,428.8,355,439.5,355,451.9z M334,453.6c0-7.8-2.2-11.2-5.5-11.2c-2.3,0-4,1.3-4,5.2v12.1
		c0,2.7,2,4.6,4.4,4.6C331.6,464.2,334,461.9,334,453.6z"/>
	<path d="M375,476.9v-12.9h5.8v-35.5H375v-12.9H427v19.6h-14.8v-6.8h-10.6v13.8h5.1V438h12.5v21.7h-12.5v-4.4h-5.1v8.8h7.9v12.9H375
		z"/>
	<path d="M429.7,476.9V465h4.3v-23.5h-4.3v-11.9h24.6V465h4.3v11.9H429.7z M432.4,417.3c0-6.4,5-10.3,11.3-10.3
		c7.4,0,11.3,4.1,11.3,10.3c0,6.4-5.1,10.3-11.3,10.3C436.4,427.6,432.4,423.6,432.4,417.3z"/>
	<path d="M504.2,457.4c1.6,14.6-8.6,20.4-21.5,20.4c-15.2,0-23.1-7.6-23.1-24.4c0-16.6,6.8-24.7,18.4-24.7c6,0,10.1,2.9,11.2,10.1
		v-9.4h14v19.8h-14.5c0.1-6.1-1.3-7.8-3.8-7.8c-2.8,0-4.4,1.8-4.4,10.8c0,11,1.1,13.4,4,13.4c3,0,3.8-2.6,3.2-8.2H504.2z"/>
	<path d="M546.7,454.8c0.5,2.5,0.7,4.9,0.7,7.2c0,11.3-5.8,15.8-19.2,15.8c-13.1,0-18.5-5.9-18.5-15.5l0.1-20.8h-5.1v-11.9h7.7
		c2.6-2.2,4.6-5.8,5.4-12.3H530v12.3h15.3v11.9H530V460c0,3.7,0.5,5.7,2.2,5.7c1.3,0,1.8-1.4,1.8-3.7c0-1.9-0.2-3.5-0.5-5.6
		L546.7,454.8z"/>
	<path d="M549.7,476.9V465h4.3v-23.5h-4.3v-11.9h24.6V465h4.3v11.9H549.7z M552.4,417.3c0-6.4,5-10.3,11.3-10.3
		c7.4,0,11.3,4.1,11.3,10.3c0,6.4-5.1,10.3-11.3,10.3C556.4,427.6,552.4,423.6,552.4,417.3z"/>
	<path d="M579.5,453.9c0-16.6,11.2-25.1,26.3-25.1c15.5,0,24.8,7.8,24.8,23.9c0,16.6-11.2,25.1-26.3,25.1
		C588.9,477.8,579.5,470,579.5,453.9z M609.6,453.3c0-8.7-1.1-12.4-4.3-12.4c-3,0-4.9,2.8-4.9,12.3c0,8.7,1.1,12.4,4.3,12.4
		C607.8,465.7,609.6,462.9,609.6,453.3z"/>
	<path d="M687,465h3.7v11.9h-27.4V465h3.5v-14.3c0-5.6-1.5-7.7-4.4-7.7c-3.2,0-5,2.7-5,7.7V465h3.5v11.9h-28.1V465h4.3v-23.5h-4.3
		v-11.9h23.8v12.2c1.8-11,10.1-13.1,16.2-13.1c9.6,0,14.2,6.7,14.2,16.2V465z"/>
	<path d="M707,495.4l32-84.1h16.3l-31.9,84.1H707z"/>
</g>
<g>
	<path class="st2" d="M1626.6,699h-93v50h80v132h-392V749h87v-49h-304V568l310-367h219v368h93V699z M1189.6,568h119V418L1189.6,568z
		"/>
</g>
<rect x="-8.1" y="-49.4" class="st3" width="3102" height="1233"/>
<rect x="-1961.3" y="-53.6" class="st3" width="3102" height="1233"/>
<rect x="-2106.1" y="-62" class="st3" width="3102" height="1233"/>
</svg>
