<svg id="Layer_1" data-name="Layer 1" xmlns="http://www.w3.org/2000/svg" viewBox="0 0 1800 1000"><defs><style>.cls-1{fill:#ff10e7;}.cls-2{fill:#fff;}</style></defs><path class="cls-1" d="M1067.41,546.43c0-247,153-362,344-362,164,0,215,56,215,135,0,14-1,26-4,44l-175,14c1-45-21-65-59-65-75,0-97,63-97,225,22-86,88-116,177-116,120,0,183,91,183,209,0,125-86,254-296,254C1169.41,884.43,1067.41,781.43,1067.41,546.43Zm363,113c0-53-22-95-67-95-37,0-67,30-67,91,0,72,25,101,67,101S1430.41,724.43,1430.41,659.43Z"/><path class="cls-2" d="M82.74,643.4c0-16.56,11.16-25.11,26.28-25.11,15.48,0,24.84,7.83,24.84,23.94,0,16.56-11.16,25.11-26.28,25.11C92.1,667.34,82.74,659.51,82.74,643.4Zm30.15-.54c0-8.73-1.08-12.42-4.32-12.42-3,0-4.86,2.79-4.86,12.33,0,8.73,1.08,12.42,4.32,12.42C111,655.19,112.89,652.4,112.89,642.86Z"/><path class="cls-2" d="M166,616.49c.36-3.24-.63-4.41-2.43-4.41-2.88,0-3.51,2.79-3.51,5.31a12.2,12.2,0,0,0,.18,1.8H171.3v11.88h-8.1v23.49H169v11.88H138.18V654.56H143V631.07H136V619.19H143c.63-13.05,8.46-19.35,21.6-19.35,11.34,0,15.38,5.13,15.38,11.43a14,14,0,0,1-.35,3.15Z"/><path class="cls-2" d="M229.07,644.3a41.5,41.5,0,0,1,.72,7.2c0,11.34-5.85,15.84-19.16,15.84-13.14,0-18.54-5.85-18.54-15.48l.09-20.79h-5.13V619.19h7.74c2.61-2.25,4.59-5.85,5.4-12.33h12.14v12.33h15.3v11.88h-15.3v18.45c0,3.69.54,5.67,2.17,5.67,1.35,0,1.79-1.35,1.79-3.69a41,41,0,0,0-.44-5.58Z"/><path class="cls-2" d="M287,654.56h3.69v11.88H263.27V654.56h3.51V640.25c0-5.58-1.53-7.74-4.41-7.74-3.24,0-5,2.7-5,7.65v14.4h3.51v11.88H232.77V654.56h4.32V612.62h-4.32V600.74h24.56V630c2.25-9.72,9.72-11.7,15.48-11.7,9.63,0,14.22,6.66,14.22,16.2Z"/><path class="cls-2" d="M293.79,666.44V654.56h4.32V631.07h-4.32V619.19h24.56v35.37h4.32v11.88Zm2.7-59.67c0-6.39,5-10.35,11.34-10.35,7.37,0,11.33,4.14,11.33,10.35,0,6.39-5.12,10.35-11.33,10.35C300.45,617.12,296.49,613.07,296.49,606.77Z"/><path class="cls-2" d="M371,651.23c0,10.17-6.57,16.11-17,16.11-7.29,0-11.79-2-14.22-8.64l.09,7.74H325V652.67h15.2c.27,2.88,2.79,4.14,6.57,4.14s5.31-1,5.31-2.34c0-6.21-27.45,2.34-27.45-20.07,0-10.44,6.21-16.11,17.19-16.11,6.21,0,11,1.89,13,8.1l-.09-7.2h14.85v13.5H354.35c-.27-2.7-2.52-3.87-6-3.87s-4.77,1.08-4.77,2.43C343.55,636.83,371,628,371,651.23Z"/><path class="cls-2" d="M419.15,641.42a41.14,41.14,0,0,0,.36-4.5c0-2.52-.54-4.41-2.16-4.41s-2.88,1.44-2.88,7.47v14.58h7.11v11.88H389.9V654.56h4.32V631H389.9V619.19h23V631.7c1-11.16,8.28-13.41,13.59-13.41,7.11,0,10.53,3.87,10.53,11.43a51.9,51.9,0,0,1-.81,8.19Z"/><path class="cls-2" d="M485,649.7c1.17,12.15-8.55,17.64-22.32,17.64-16.38,0-24.93-7.38-24.93-23.67,0-17.19,10-25.38,26.37-25.38,14,0,21.33,7.47,21.33,22A41.16,41.16,0,0,1,485,647H458.84c.27,5.76,1.35,8.1,4.77,8.1,2.43,0,3.78-1.35,3.51-5.4Zm-26.19-11.34h7a7.76,7.76,0,0,0,.09-1.53c0-4.86-.72-6.84-3.06-6.84S459.2,631.61,458.84,638.36Z"/><path class="cls-2" d="M518,616.49c.36-3.24-.63-4.41-2.43-4.41-2.88,0-3.51,2.79-3.51,5.31a12.2,12.2,0,0,0,.18,1.8h11.07v11.88h-8.1v23.49h5.76v11.88H490.16V654.56h4.77V631.07H488V619.19h6.93c.63-13.05,8.46-19.35,21.6-19.35,11.34,0,15.39,5.13,15.39,11.43a14.08,14.08,0,0,1-.36,3.15Z"/><path class="cls-2" d="M572,649.7c1.17,12.15-8.55,17.64-22.32,17.64-16.38,0-24.93-7.38-24.93-23.67,0-17.19,10-25.38,26.37-25.38,14,0,21.33,7.47,21.33,22A41.16,41.16,0,0,1,572,647H545.78c.27,5.76,1.35,8.1,4.77,8.1,2.43,0,3.78-1.35,3.51-5.4Zm-26.19-11.34h7a7.76,7.76,0,0,0,.09-1.53c0-4.86-.72-6.84-3.06-6.84S546.14,631.61,545.78,638.36Z"/><path class="cls-2" d="M606.17,641.42a41.14,41.14,0,0,0,.36-4.5c0-2.52-.54-4.41-2.16-4.41s-2.88,1.44-2.88,7.47v14.58h7.11v11.88H576.92V654.56h4.32V631h-4.32V619.19h23V631.7c1-11.16,8.28-13.41,13.59-13.41,7.11,0,10.53,3.87,10.53,11.43a51.9,51.9,0,0,1-.81,8.19Z"/><path class="cls-2" d="M672.05,649.7c1.17,12.15-8.55,17.64-22.32,17.64-16.38,0-24.93-7.38-24.93-23.67,0-17.19,10-25.38,26.37-25.38,14,0,21.33,7.47,21.33,22a41.16,41.16,0,0,1-.45,6.75H645.86c.27,5.76,1.35,8.1,4.77,8.1,2.43,0,3.78-1.35,3.51-5.4Zm-26.19-11.34h7a7.76,7.76,0,0,0,.09-1.53c0-4.86-.72-6.84-3.06-6.84S646.22,631.61,645.86,638.36Z"/><path class="cls-2" d="M731.27,654.56H735v11.88H707.51V654.56H711V640.25c0-5.58-1.53-7.74-4.41-7.74-3.24,0-5,2.7-5,7.65v14.4h3.51v11.88H677V654.56h4.32V631.07H677V619.19h23.85v12.24c1.8-11,10.08-13.14,16.2-13.14,9.63,0,14.22,6.66,14.22,16.2Z"/><path class="cls-2" d="M781.58,646.91c1.62,14.58-8.64,20.43-21.51,20.43-15.21,0-23.13-7.56-23.13-24.39,0-16.56,6.75-24.66,18.36-24.66,6,0,10.08,2.88,11.25,10.08v-9.45h14v19.8H766.1c.09-6.12-1.26-7.83-3.78-7.83-2.79,0-4.41,1.8-4.41,10.8,0,11,1.08,13.41,4.05,13.41s3.78-2.61,3.24-8.19Z"/><path class="cls-2" d="M831,649.7c1.17,12.15-8.55,17.64-22.32,17.64-16.38,0-24.93-7.38-24.93-23.67,0-17.19,10-25.38,26.37-25.38,14,0,21.33,7.47,21.33,22A41.16,41.16,0,0,1,831,647H804.8c.27,5.76,1.35,8.1,4.77,8.1,2.43,0,3.78-1.35,3.51-5.4ZM804.8,638.36h7a7.76,7.76,0,0,0,.09-1.53c0-4.86-.72-6.84-3.06-6.84S805.16,631.61,804.8,638.36Z"/><path class="cls-2" d="M881.57,651.23c0,10.17-6.57,16.11-17,16.11-7.29,0-11.79-2-14.22-8.64l.09,7.74H835.58V652.67h15.21c.27,2.88,2.79,4.14,6.57,4.14s5.31-1,5.31-2.34c0-6.21-27.45,2.34-27.45-20.07,0-10.44,6.21-16.11,17.19-16.11,6.21,0,11,1.89,13,8.1l-.09-7.2h14.85v13.5H864.92c-.27-2.7-2.52-3.87-6-3.87s-4.77,1.08-4.77,2.43C854.12,636.83,881.57,628,881.57,651.23Z"/><path class="cls-2" d="M900.47,666.44V654.56h4.32V631.07h-4.32V619.19H925v35.37h4.32v11.88Zm2.7-59.67c0-6.39,5-10.35,11.34-10.35,7.38,0,11.34,4.14,11.34,10.35,0,6.39-5.13,10.35-11.34,10.35C907.13,617.12,903.17,613.07,903.17,606.77Z"/><path class="cls-2" d="M986.33,654.56H990v11.88H962.57V654.56h3.51V640.25c0-5.58-1.53-7.74-4.41-7.74-3.24,0-5,2.7-5,7.65v14.4h3.51v11.88H932.06V654.56h4.32V631.07h-4.32V619.19h23.85v12.24c1.8-11,10.08-13.14,16.2-13.14,9.63,0,14.22,6.66,14.22,16.2Z"/><path class="cls-2" d="M137.39,577.48H86.54V564.61h5.85V529.15H86.54V516.28h33v12.87h-6.48v35.46h9.54V549.76h14.76Z"/><path class="cls-2" d="M189.23,560.74c1.17,12.15-8.55,17.64-22.32,17.64-16.38,0-24.93-7.38-24.93-23.67,0-17.19,10-25.38,26.37-25.38,14,0,21.33,7.47,21.33,22a41.16,41.16,0,0,1-.45,6.75H163c.27,5.76,1.35,8.1,4.77,8.1,2.43,0,3.78-1.35,3.51-5.4ZM163,549.4h7a7.76,7.76,0,0,0,.09-1.53c0-4.86-.72-6.84-3.06-6.84S163.4,542.65,163,549.4Z"/><path class="cls-2" d="M233.87,555.34a41.5,41.5,0,0,1,.72,7.2c0,11.34-5.85,15.84-19.17,15.84-13.14,0-18.54-5.85-18.54-15.48l.09-20.79h-5.13V530.23h7.74c2.61-2.25,4.59-5.85,5.4-12.33h12.15v12.33h15.3v11.88h-15.3v18.45c0,3.69.54,5.67,2.16,5.67,1.35,0,1.8-1.35,1.8-3.69a41,41,0,0,0-.45-5.58Z"/><path class="cls-2" d="M257.63,521.68c0,10.8-6.39,19.26-17.28,23.76L237.2,539c5.4-2.43,9-5.67,10.62-9.18h-.54c-6.39,0-10.35-4.41-10.35-10.53s4-10.62,10.35-10.62C254.3,508.63,257.63,513.4,257.63,521.68Z"/><path class="cls-2" d="M308.48,562.27c0,10.17-6.57,16.11-17,16.11-7.29,0-11.79-2-14.22-8.64l.09,7.74H262.49V563.71H277.7c.27,2.88,2.79,4.14,6.57,4.14s5.31-1,5.31-2.34c0-6.21-27.45,2.34-27.45-20.07,0-10.44,6.21-16.11,17.19-16.11,6.21,0,11,1.89,13,8.1l-.09-7.2H307v13.5H291.83c-.27-2.7-2.52-3.87-6-3.87s-4.77,1.08-4.77,2.43C281,547.87,308.48,539.05,308.48,562.27Z"/><path class="cls-2" d="M367.07,555.34a41.5,41.5,0,0,1,.72,7.2c0,11.34-5.85,15.84-19.17,15.84-13.14,0-18.54-5.85-18.54-15.48l.09-20.79H325V530.23h7.74c2.61-2.25,4.59-5.85,5.4-12.33h12.15v12.33h15.3v11.88h-15.3v18.45c0,3.69.54,5.67,2.16,5.67,1.35,0,1.8-1.35,1.8-3.69a41,41,0,0,0-.45-5.58Z"/><path class="cls-2" d="M425.75,559.3c-.09,12.06-3.15,19.08-15.57,19.08-8.82,0-12.06-4-13.14-8.91-2.16,6.66-8.73,8.91-13.05,8.91-8.46,0-13.95-4.86-13.95-13.86,0-10.08,6.66-14.31,20.25-14.31a34.42,34.42,0,0,1,6.75.63c0-5.4-2.16-7.29-5-7.29-2.7,0-4,1.08-4.05,4H372.38V530h15.84v10.71c1.44-7.65,7.74-11.34,14.85-11.34,10.17,0,14.22,6.75,14.22,17.46.09,4.05-.45,11.16-.45,14.76,0,2.52.45,3.24,1.26,3.24,1.44,0,1.35-2.34,1.53-5.49Zm-29,4.77.09-6.48a12,12,0,0,0-2.52-.27c-3,0-4.41,1.53-4.41,4,0,3,1.53,4.23,3.69,4.23C394.88,565.6,396.5,565,396.77,564.07Z"/><path class="cls-2" d="M481.82,565.6h2.43v11.88H456.89V565.6h2.34l-5-8.64-1.71.9v7.74h1.89v11.88H428V565.6h4.32V523.66H428V511.78h24.57V548l9.81-5.85h-5.49V530.23h25.65v11.88h-2.7l-8.64,5Z"/><path class="cls-2" d="M533.48,560.74c1.17,12.15-8.55,17.64-22.32,17.64-16.38,0-24.93-7.38-24.93-23.67,0-17.19,10-25.38,26.37-25.38,14,0,21.33,7.47,21.33,22a41.16,41.16,0,0,1-.45,6.75H507.29c.27,5.76,1.35,8.1,4.77,8.1,2.43,0,3.78-1.35,3.51-5.4ZM507.29,549.4h7a7.76,7.76,0,0,0,.09-1.53c0-4.86-.72-6.84-3.06-6.84S507.65,542.65,507.29,549.4Z"/><path class="cls-2" d="M609,559.3c-.09,12.06-3.14,19.08-15.56,19.08-8.82,0-12.06-4-13.14-8.91-2.16,6.66-8.73,8.91-13,8.91-8.46,0-14-4.86-14-13.86,0-10.08,6.66-14.31,20.25-14.31a34.42,34.42,0,0,1,6.75.63c0-5.4-2.16-7.29-5-7.29-2.7,0-4,1.08-4,4H555.62V530h15.84v10.71c1.44-7.65,7.74-11.34,14.85-11.34,10.17,0,14.22,6.75,14.22,17.46.09,4.05-.45,11.16-.45,14.76,0,2.52.45,3.24,1.26,3.24,1.44,0,1.34-2.34,1.53-5.49Zm-29,4.77.09-6.48a12,12,0,0,0-2.52-.27c-3,0-4.41,1.53-4.41,4,0,3,1.53,4.23,3.69,4.23C578.12,565.6,579.74,565,580,564.07Z"/><path class="cls-2" d="M626.81,577.48V565.6h4.32V523.66h-4.32V511.78h24.57V565.6h4.31v11.88Z"/><path class="cls-2" d="M657.31,554.44c0-16.56,11.16-25.11,26.28-25.11,15.48,0,24.84,7.83,24.84,23.94,0,16.56-11.16,25.11-26.28,25.11C666.67,578.38,657.31,570.55,657.31,554.44Zm30.15-.54c0-8.73-1.08-12.42-4.32-12.42-3,0-4.86,2.79-4.86,12.33,0,8.73,1.08,12.42,4.32,12.42C685.57,566.23,687.46,563.44,687.46,553.9Z"/><path class="cls-2" d="M711.49,554.44c0-16.56,11.16-25.11,26.28-25.11,15.48,0,24.84,7.83,24.84,23.94,0,16.56-11.16,25.11-26.28,25.11C720.85,578.38,711.49,570.55,711.49,554.44Zm30.15-.54c0-8.73-1.08-12.42-4.32-12.42-3,0-4.86,2.79-4.86,12.33,0,8.73,1.08,12.42,4.32,12.42C739.75,566.23,741.64,563.44,741.64,553.9Z"/><path class="cls-2" d="M820.57,565.6H823v11.88H795.64V565.6H798L793,557l-1.71.9v7.74h1.89v11.88H766.75V565.6h4.32V523.66h-4.32V511.78h24.57V548l9.81-5.85h-5.49V530.23h25.65v11.88h-2.7l-8.64,5Z"/><path class="cls-2" d="M896.62,559.3c-.09,12.06-3.15,19.08-15.57,19.08-8.82,0-12.06-4-13.14-8.91-2.16,6.66-8.73,8.91-13,8.91-8.46,0-14-4.86-14-13.86,0-10.08,6.66-14.31,20.25-14.31a34.42,34.42,0,0,1,6.75.63c0-5.4-2.16-7.29-5-7.29-2.7,0-4,1.08-4,4H843.25V530h15.84v10.71c1.44-7.65,7.74-11.34,14.85-11.34,10.17,0,14.22,6.75,14.22,17.46.09,4.05-.45,11.16-.45,14.76,0,2.52.45,3.24,1.26,3.24,1.44,0,1.35-2.34,1.53-5.49Zm-29,4.77.09-6.48a12,12,0,0,0-2.52-.27c-3,0-4.41,1.53-4.41,4,0,3,1.53,4.23,3.69,4.23C865.75,565.6,867.37,565,867.64,564.07Z"/><path class="cls-2" d="M938.56,555.34a41.5,41.5,0,0,1,.72,7.2c0,11.34-5.85,15.84-19.17,15.84-13.14,0-18.54-5.85-18.54-15.48l.09-20.79h-5.13V530.23h7.74c2.61-2.25,4.59-5.85,5.4-12.33h12.15v12.33h15.3v11.88h-15.3v18.45c0,3.69.54,5.67,2.16,5.67,1.35,0,1.8-1.35,1.8-3.69a41,41,0,0,0-.45-5.58Z"/><path class="cls-2" d="M155.33,825.66V849h19.75v34H85.59V849h15.47V755.21H85.59v-34h89.49c38.56,0,62.6,12.38,62.6,49.51,0,34.27-19.76,55-64.74,55Zm0-70.45v36.41H166c11.9,0,16-7.14,16-18.32,0-12.14-4.53-18.09-13.81-18.09Z"/><path class="cls-2" d="M383.57,851.6H395V883H331.92V850.89c-4.76,28.8-25.94,34.51-42.12,34.51-25,0-36.89-17.61-36.89-42.84V789.48h-9.76V758.07h63.31v69.25c0,14.76,3.81,20.47,11,20.47,8.09,0,12.61-7.14,12.61-20.23V789.48H318.83V758.07h64.74Z"/><path class="cls-2" d="M401.89,883V851.6h11.43V740.69H401.89V709.27h65V851.6h11.42V883Z"/><path class="cls-2" d="M628.23,816.85c0,36.89-14.75,68.55-48.07,68.55-16.67,0-28.09-7.62-32.37-25v32.84H560.4v31.42H483.05V893.25h11.42V789.48H483.05V758.07h62.83v28.32c4.52-22.14,20.23-30.71,38.08-30.71C615.62,755.68,628.23,784,628.23,816.85Zm-55.45,4.52c0-20.7-5.72-29.75-14.52-29.75-6.19,0-10.47,3.34-10.47,13.81v31.89c0,7.14,5.23,12.14,11.66,12.14C566.35,849.46,572.78,843.27,572.78,821.37Z"/><path class="cls-2" d="M679.4,883V849h15.47V755.21H679.4v-34H816.73v51.89h-39V755.21H749.61v36.41h13.56V780h33.09v57.36H763.17V825.66H749.61V849h20.94v34Z"/><path class="cls-2" d="M824.1,883V851.6h11.42V789.48H824.1V758.07h65V851.6H900.5V883Zm7.14-157.8c0-16.9,13.33-27.37,30-27.37,19.51,0,30,10.95,30,27.37,0,16.9-13.56,27.37-30,27.37C841.71,752.59,831.24,741.88,831.24,725.22Z"/><path class="cls-2" d="M1020,831.37c4.28,38.56-22.85,54-56.88,54-40.23,0-61.17-20-61.17-64.5,0-43.8,17.85-65.22,48.55-65.22,15.95,0,26.66,7.62,29.75,26.66v-25h37.13v52.36H979c.24-16.18-3.33-20.71-10-20.71-7.38,0-11.67,4.76-11.67,28.57,0,29,2.86,35.46,10.71,35.46s10-6.9,8.57-21.66Z"/><path class="cls-2" d="M1130.64,824.47a109.69,109.69,0,0,1,1.9,19c0,30-15.47,41.89-50.69,41.89-34.75,0-49-15.47-49-40.94l.24-55h-13.57V758.07H1040c6.9-6,12.14-15.48,14.28-32.61h32.13v32.61h40.46v31.41h-40.46v48.79c0,9.76,1.43,15,5.71,15,3.57,0,4.76-3.57,4.76-9.76a107.68,107.68,0,0,0-1.19-14.76Z"/><path class="cls-2" d="M1137.54,883V851.6H1149V789.48h-11.42V758.07h65V851.6h11.43V883Zm7.14-157.8c0-16.9,13.33-27.37,30-27.37,19.51,0,30,10.95,30,27.37,0,16.9-13.57,27.37-30,27.37C1155.15,752.59,1144.68,741.88,1144.68,725.22Z"/><path class="cls-2" d="M1215.36,822.09c0-43.79,29.51-66.41,69.5-66.41,40.94,0,65.69,20.71,65.69,63.31,0,43.8-29.51,66.41-69.5,66.41C1240.11,885.4,1215.36,864.69,1215.36,822.09Zm79.73-1.43c0-23.09-2.85-32.84-11.42-32.84-7.86,0-12.85,7.37-12.85,32.6,0,23.09,2.85,32.85,11.42,32.85C1290.09,853.27,1295.09,845.89,1295.09,820.66Z"/><path class="cls-2" d="M1502.15,851.6h9.76V883h-72.59V851.6h9.28V813.76c0-14.76-4-20.47-11.66-20.47-8.57,0-13.33,7.14-13.33,20.23V851.6h9.28V883h-74.25V851.6h11.42V789.48h-11.42V758.07h63.07v32.36c4.76-29,26.65-34.75,42.84-34.75,25.47,0,37.6,17.62,37.6,42.85Z"/><path class="cls-2" d="M945.44,561.05V548.54h41.94v12.51Z"/></svg>