<svg id="Layer_1" data-name="Layer 1" xmlns="http://www.w3.org/2000/svg" viewBox="0 0 1800 1000"><defs><style>.cls-1{fill:#ff10e7;}.cls-2{fill:#fff;}</style></defs><path class="cls-1" d="M1069,498.92c0-247,153-362,344-362,164,0,215,56,215,135,0,14-1,26-4,44l-175,14c1-45-21-65-59-65-75,0-97,63-97,225,22-86,88-116,177-116,120,0,183,91,183,209,0,125-86,254-296,254C1171,836.92,1069,733.92,1069,498.92Zm363,113c0-53-22-95-67-95-37,0-67,30-67,91,0,72,25,101,67,101S1432,676.92,1432,611.92Z"/><path class="cls-2" d="M131.25,638.15c0-16.56,11.16-25.11,26.28-25.11,15.48,0,24.84,7.83,24.84,23.94,0,16.56-11.16,25.11-26.28,25.11C140.61,662.09,131.25,654.26,131.25,638.15Zm30.15-.54c0-8.73-1.08-12.42-4.32-12.42-3,0-4.86,2.79-4.86,12.33,0,8.73,1.08,12.42,4.32,12.42C159.51,649.94,161.4,647.15,161.4,637.61Z"/><path class="cls-2" d="M214.5,611.24c.36-3.24-.63-4.41-2.43-4.41-2.88,0-3.51,2.79-3.51,5.31a12.2,12.2,0,0,0,.18,1.8h11.07v11.88h-8.1v23.49h5.76v11.88H186.69V649.31h4.77V625.82h-6.93V613.94h6.93c.63-13.05,8.46-19.35,21.6-19.35,11.34,0,15.39,5.13,15.39,11.43a14.08,14.08,0,0,1-.36,3.15Z"/><path class="cls-2" d="M277.59,639.05a41.5,41.5,0,0,1,.72,7.2c0,11.34-5.85,15.84-19.17,15.84-13.14,0-18.54-5.85-18.54-15.48l.09-20.79h-5.13V613.94h7.74c2.61-2.25,4.59-5.85,5.4-12.33h12.15v12.33h15.3v11.88h-15.3v18.45c0,3.69.54,5.67,2.16,5.67,1.35,0,1.8-1.35,1.8-3.69a41,41,0,0,0-.45-5.58Z"/><path class="cls-2" d="M335.55,649.31h3.69v11.88H311.79V649.31h3.51V635c0-5.58-1.53-7.74-4.41-7.74-3.24,0-5,2.7-5,7.65v14.4h3.51v11.88H281.28V649.31h4.32V607.37h-4.32V595.49h24.57v29.25c2.25-9.72,9.72-11.7,15.48-11.7,9.63,0,14.22,6.66,14.22,16.2Z"/><path class="cls-2" d="M342.3,661.19V649.31h4.32V625.82H342.3V613.94h24.57v35.37h4.32v11.88Zm2.7-59.67c0-6.39,5-10.35,11.34-10.35,7.38,0,11.34,4.14,11.34,10.35,0,6.39-5.13,10.35-11.34,10.35C349,611.87,345,607.82,345,601.52Z"/><path class="cls-2" d="M419.52,646c0,10.17-6.57,16.11-17,16.11-7.29,0-11.79-2-14.22-8.64l.09,7.74H373.53V647.42h15.21c.27,2.88,2.79,4.14,6.57,4.14s5.31-1,5.31-2.34c0-6.21-27.45,2.34-27.45-20.07,0-10.44,6.21-16.11,17.19-16.11,6.21,0,11,1.89,13,8.1l-.09-7.2h14.85v13.5H402.87c-.27-2.7-2.52-3.87-6-3.87s-4.77,1.08-4.77,2.43C392.07,631.58,419.52,622.76,419.52,646Z"/><path class="cls-2" d="M467.67,636.17a41.14,41.14,0,0,0,.36-4.5c0-2.52-.54-4.41-2.16-4.41S463,628.7,463,634.73v14.58h7.11v11.88H438.42V649.31h4.32V625.73h-4.32V613.94h22.95v12.51c1-11.16,8.28-13.41,13.59-13.41,7.11,0,10.53,3.87,10.53,11.43a51.9,51.9,0,0,1-.81,8.19Z"/><path class="cls-2" d="M533.55,644.45c1.17,12.15-8.55,17.64-22.32,17.64-16.38,0-24.93-7.38-24.93-23.67,0-17.19,10-25.38,26.37-25.38,14,0,21.33,7.47,21.33,22a41.16,41.16,0,0,1-.45,6.75H507.36c.27,5.76,1.35,8.1,4.77,8.1,2.43,0,3.78-1.35,3.51-5.4Zm-26.19-11.34h7a7.76,7.76,0,0,0,.09-1.53c0-4.86-.72-6.84-3.06-6.84S507.72,626.36,507.36,633.11Z"/><path class="cls-2" d="M566.49,611.24c.36-3.24-.63-4.41-2.43-4.41-2.88,0-3.51,2.79-3.51,5.31a12.2,12.2,0,0,0,.18,1.8H571.8v11.88h-8.1v23.49h5.76v11.88H538.68V649.31h4.77V625.82h-6.93V613.94h6.93c.63-13.05,8.46-19.35,21.6-19.35,11.34,0,15.39,5.13,15.39,11.43a14.08,14.08,0,0,1-.36,3.15Z"/><path class="cls-2" d="M620.49,644.45c1.17,12.15-8.55,17.64-22.32,17.64-16.38,0-24.93-7.38-24.93-23.67,0-17.19,10-25.38,26.37-25.38,14,0,21.33,7.47,21.33,22a41.16,41.16,0,0,1-.45,6.75H594.3c.27,5.76,1.35,8.1,4.77,8.1,2.43,0,3.78-1.35,3.51-5.4ZM594.3,633.11h7a7.76,7.76,0,0,0,.09-1.53c0-4.86-.72-6.84-3.06-6.84S594.66,626.36,594.3,633.11Z"/><path class="cls-2" d="M654.69,636.17a41.14,41.14,0,0,0,.36-4.5c0-2.52-.54-4.41-2.16-4.41S650,628.7,650,634.73v14.58h7.11v11.88H625.44V649.31h4.32V625.73h-4.32V613.94h22.95v12.51c1-11.16,8.28-13.41,13.59-13.41,7.11,0,10.53,3.87,10.53,11.43a51.9,51.9,0,0,1-.81,8.19Z"/><path class="cls-2" d="M720.57,644.45c1.17,12.15-8.55,17.64-22.32,17.64-16.38,0-24.93-7.38-24.93-23.67,0-17.19,10-25.38,26.37-25.38,14,0,21.33,7.47,21.33,22a41.16,41.16,0,0,1-.45,6.75H694.38c.27,5.76,1.35,8.1,4.77,8.1,2.43,0,3.78-1.35,3.51-5.4Zm-26.19-11.34h7a7.76,7.76,0,0,0,.09-1.53c0-4.86-.72-6.84-3.06-6.84S694.74,626.36,694.38,633.11Z"/><path class="cls-2" d="M779.79,649.31h3.69v11.88H756V649.31h3.51V635c0-5.58-1.53-7.74-4.41-7.74-3.24,0-5,2.7-5,7.65v14.4h3.51v11.88H725.52V649.31h4.32V625.82h-4.32V613.94h23.85v12.24c1.8-11,10.08-13.14,16.2-13.14,9.63,0,14.22,6.66,14.22,16.2Z"/><path class="cls-2" d="M830.1,641.66c1.62,14.58-8.64,20.43-21.51,20.43-15.21,0-23.13-7.56-23.13-24.39,0-16.56,6.75-24.66,18.36-24.66,6,0,10.08,2.88,11.25,10.08v-9.45h14v19.8H814.62c.09-6.12-1.26-7.83-3.78-7.83-2.79,0-4.41,1.8-4.41,10.8,0,11,1.08,13.41,4.05,13.41s3.78-2.61,3.24-8.19Z"/><path class="cls-2" d="M879.51,644.45c1.17,12.15-8.55,17.64-22.32,17.64-16.38,0-24.93-7.38-24.93-23.67,0-17.19,10-25.38,26.37-25.38,14,0,21.33,7.47,21.33,22a41.16,41.16,0,0,1-.45,6.75H853.32c.27,5.76,1.35,8.1,4.77,8.1,2.43,0,3.78-1.35,3.51-5.4Zm-26.19-11.34h7a7.76,7.76,0,0,0,.09-1.53c0-4.86-.72-6.84-3.06-6.84S853.68,626.36,853.32,633.11Z"/><path class="cls-2" d="M930.09,646c0,10.17-6.57,16.11-17,16.11-7.29,0-11.79-2-14.22-8.64l.09,7.74H884.1V647.42h15.21c.27,2.88,2.79,4.14,6.57,4.14s5.31-1,5.31-2.34c0-6.21-27.45,2.34-27.45-20.07,0-10.44,6.21-16.11,17.19-16.11,6.21,0,11,1.89,13,8.1l-.09-7.2h14.85v13.5H913.44c-.27-2.7-2.52-3.87-6-3.87s-4.77,1.08-4.77,2.43C902.64,631.58,930.09,622.76,930.09,646Z"/><path class="cls-2" d="M949,661.19V649.31h4.32V625.82H949V613.94h24.57v35.37h4.32v11.88Zm2.7-59.67c0-6.39,5-10.35,11.34-10.35,7.38,0,11.34,4.14,11.34,10.35,0,6.39-5.13,10.35-11.34,10.35C955.65,611.87,951.69,607.82,951.69,601.52Z"/><path class="cls-2" d="M1034.84,649.31h3.69v11.88h-27.45V649.31h3.51V635c0-5.58-1.53-7.74-4.41-7.74-3.24,0-5,2.7-5,7.65v14.4h3.51v11.88H980.58V649.31h4.32V625.82h-4.32V613.94h23.85v12.24c1.79-11,10.07-13.14,16.19-13.14,9.63,0,14.22,6.66,14.22,16.2Z"/><path class="cls-2" d="M185.91,572.23H135.06V559.36h5.85V523.9h-5.85V511h33V523.9h-6.48v35.46h9.54V544.51h14.76Z"/><path class="cls-2" d="M237.75,555.49c1.17,12.15-8.55,17.64-22.32,17.64-16.38,0-24.93-7.38-24.93-23.67,0-17.19,10-25.38,26.37-25.38,14,0,21.33,7.47,21.33,22a41.16,41.16,0,0,1-.45,6.75H211.56c.27,5.76,1.35,8.1,4.77,8.1,2.43,0,3.78-1.35,3.51-5.4Zm-26.19-11.34h7a7.76,7.76,0,0,0,.09-1.53c0-4.86-.72-6.84-3.06-6.84S211.92,537.4,211.56,544.15Z"/><path class="cls-2" d="M282.39,550.09a41.5,41.5,0,0,1,.72,7.2c0,11.34-5.85,15.84-19.17,15.84-13.14,0-18.54-5.85-18.54-15.48l.09-20.79h-5.13V525h7.74c2.61-2.25,4.59-5.85,5.4-12.33h12.15V525H281v11.88h-15.3v18.45c0,3.69.54,5.67,2.16,5.67,1.35,0,1.8-1.35,1.8-3.69a41,41,0,0,0-.45-5.58Z"/><path class="cls-2" d="M306.15,516.43c0,10.8-6.39,19.26-17.28,23.76l-3.15-6.48c5.4-2.43,9-5.67,10.62-9.18h-.54c-6.39,0-10.35-4.41-10.35-10.53s4-10.62,10.35-10.62C302.82,503.38,306.15,508.15,306.15,516.43Z"/><path class="cls-2" d="M357,557c0,10.17-6.57,16.11-17,16.11-7.29,0-11.79-2-14.22-8.64l.09,7.74H311V558.46h15.21c.27,2.88,2.79,4.14,6.57,4.14s5.31-1,5.31-2.34c0-6.21-27.45,2.34-27.45-20.07,0-10.44,6.21-16.11,17.19-16.11,6.21,0,11,1.89,13,8.1l-.09-7.2h14.85v13.5H340.35c-.27-2.7-2.52-3.87-6-3.87s-4.77,1.08-4.77,2.43C329.55,542.62,357,533.8,357,557Z"/><path class="cls-2" d="M415.59,550.09a41.5,41.5,0,0,1,.72,7.2c0,11.34-5.85,15.84-19.17,15.84-13.14,0-18.54-5.85-18.54-15.48l.09-20.79h-5.13V525h7.74c2.61-2.25,4.59-5.85,5.4-12.33h12.15V525h15.3v11.88h-15.3v18.45c0,3.69.54,5.67,2.16,5.67,1.35,0,1.8-1.35,1.8-3.69a41,41,0,0,0-.45-5.58Z"/><path class="cls-2" d="M474.27,554.05c-.09,12.06-3.15,19.08-15.57,19.08-8.82,0-12.06-4-13.14-8.91-2.16,6.66-8.73,8.91-13.05,8.91-8.46,0-13.95-4.86-13.95-13.86,0-10.08,6.66-14.31,20.25-14.31a34.42,34.42,0,0,1,6.75.63c0-5.4-2.16-7.29-5-7.29-2.7,0-4,1.08-4,4H420.9V524.71h15.84v10.71c1.44-7.65,7.74-11.34,14.85-11.34,10.17,0,14.22,6.75,14.22,17.46.09,4.05-.45,11.16-.45,14.76,0,2.52.45,3.24,1.26,3.24,1.44,0,1.35-2.34,1.53-5.49Zm-29,4.77.09-6.48a12,12,0,0,0-2.52-.27c-3,0-4.41,1.53-4.41,4,0,3,1.53,4.23,3.69,4.23C443.4,560.35,445,559.72,445.29,558.82Z"/><path class="cls-2" d="M530.33,560.35h2.43v11.88H505.4V560.35h2.34l-4.94-8.64-1.71.9v7.74H503v11.88H476.52V560.35h4.32V518.41h-4.32V506.53h24.57v36.18l9.81-5.85h-5.5V525h25.65v11.88h-2.7l-8.64,5Z"/><path class="cls-2" d="M582,555.49c1.17,12.15-8.55,17.64-22.32,17.64-16.37,0-24.92-7.38-24.92-23.67,0-17.19,10-25.38,26.36-25.38,14,0,21.33,7.47,21.33,22a41.16,41.16,0,0,1-.45,6.75H555.81c.26,5.76,1.34,8.1,4.76,8.1,2.43,0,3.78-1.35,3.51-5.4Zm-26.18-11.34h7a7.76,7.76,0,0,0,.09-1.53c0-4.86-.71-6.84-3-6.84S556.16,537.4,555.81,544.15Z"/><path class="cls-2" d="M657.5,554.05c-.09,12.06-3.15,19.08-15.57,19.08-8.82,0-12.06-4-13.14-8.91-2.16,6.66-8.73,8.91-13,8.91-8.46,0-14-4.86-14-13.86,0-10.08,6.66-14.31,20.25-14.31a34.42,34.42,0,0,1,6.75.63c0-5.4-2.16-7.29-5-7.29-2.7,0-4,1.08-4,4H604.13V524.71H620v10.71c1.44-7.65,7.74-11.34,14.85-11.34,10.17,0,14.22,6.75,14.22,17.46.09,4.05-.45,11.16-.45,14.76,0,2.52.45,3.24,1.26,3.24,1.44,0,1.35-2.34,1.53-5.49Zm-29,4.77.09-6.48a12,12,0,0,0-2.52-.27c-3,0-4.41,1.53-4.41,4,0,3,1.53,4.23,3.69,4.23C626.63,560.35,628.25,559.72,628.52,558.82Z"/><path class="cls-2" d="M675.32,572.23V560.35h4.32V518.41h-4.32V506.53h24.57v53.82h4.32v11.88Z"/><path class="cls-2" d="M705.83,549.19c0-16.56,11.16-25.11,26.28-25.11,15.48,0,24.84,7.83,24.84,23.94,0,16.56-11.16,25.11-26.28,25.11C715.19,573.13,705.83,565.3,705.83,549.19Zm30.15-.54c0-8.73-1.08-12.42-4.32-12.42-3,0-4.86,2.79-4.86,12.33,0,8.73,1.08,12.42,4.32,12.42C734.09,561,736,558.19,736,548.65Z"/><path class="cls-2" d="M760,549.19c0-16.56,11.16-25.11,26.28-25.11,15.48,0,24.84,7.83,24.84,23.94,0,16.56-11.16,25.11-26.28,25.11C769.37,573.13,760,565.3,760,549.19Zm30.15-.54c0-8.73-1.08-12.42-4.32-12.42-3,0-4.86,2.79-4.86,12.33,0,8.73,1.08,12.42,4.32,12.42C788.27,561,790.16,558.19,790.16,548.65Z"/><path class="cls-2" d="M869.09,560.35h2.43v11.88H844.16V560.35h2.34l-5-8.64-1.71.9v7.74h1.89v11.88H815.27V560.35h4.32V518.41h-4.32V506.53h24.57v36.18l9.81-5.85h-5.49V525h25.65v11.88h-2.7l-8.64,5Z"/><path class="cls-2" d="M945.14,554.05c-.09,12.06-3.15,19.08-15.57,19.08-8.82,0-12.06-4-13.14-8.91-2.16,6.66-8.73,8.91-13,8.91-8.46,0-14-4.86-14-13.86,0-10.08,6.66-14.31,20.25-14.31a34.42,34.42,0,0,1,6.75.63c0-5.4-2.16-7.29-5-7.29-2.7,0-4,1.08-4,4H891.77V524.71h15.84v10.71c1.44-7.65,7.74-11.34,14.85-11.34,10.17,0,14.22,6.75,14.22,17.46.09,4.05-.45,11.16-.45,14.76,0,2.52.45,3.24,1.26,3.24,1.44,0,1.35-2.34,1.53-5.49Zm-29,4.77.09-6.48a12,12,0,0,0-2.52-.27c-3,0-4.41,1.53-4.41,4,0,3,1.53,4.23,3.69,4.23C914.27,560.35,915.89,559.72,916.16,558.82Z"/><path class="cls-2" d="M987.08,550.09a41.5,41.5,0,0,1,.72,7.2c0,11.34-5.85,15.84-19.17,15.84-13.14,0-18.54-5.85-18.54-15.48l.09-20.79h-5.13V525h7.74c2.61-2.25,4.59-5.85,5.4-12.33h12.15V525h15.3v11.88h-15.3v18.45c0,3.69.54,5.67,2.16,5.67,1.35,0,1.8-1.35,1.8-3.69a41,41,0,0,0-.45-5.58Z"/><path class="cls-2" d="M203.85,820.41v23.33H223.6v34H134.11v-34h15.47V750H134.11v-34H223.6c38.56,0,62.6,12.38,62.6,49.51,0,34.27-19.76,55-64.74,55Zm0-70.45v36.42h10.71c11.9,0,15.94-7.14,15.94-18.33,0-12.14-4.52-18.09-13.8-18.09Z"/><path class="cls-2" d="M432.09,846.35h11.42v31.42H380.44V845.64c-4.76,28.8-25.94,34.51-42.13,34.51-25,0-36.89-17.61-36.89-42.84V784.23h-9.76V752.82H355v69.26c0,14.75,3.81,20.47,10.95,20.47,8.09,0,12.62-7.14,12.62-20.23V784.23H367.35V752.82h64.74Z"/><path class="cls-2" d="M450.41,877.77V846.35h11.42V735.44H450.41V704h65V846.35h11.42v31.42Z"/><path class="cls-2" d="M676.75,811.6c0,36.9-14.76,68.55-48.08,68.55-16.66,0-28.08-7.62-32.37-25V888h12.62v31.42H531.56V888H543V784.23H531.56V752.82H594.4v28.32c4.52-22.14,20.23-30.7,38.08-30.7C664.13,750.44,676.75,778.76,676.75,811.6Zm-55.46,4.53c0-20.71-5.71-29.75-14.51-29.75-6.19,0-10.48,3.33-10.48,13.8v31.89c0,7.14,5.24,12.14,11.67,12.14C614.87,844.21,621.29,838,621.29,816.13Z"/><path class="cls-2" d="M727.91,877.77v-34h15.47V750H727.91v-34H865.24v51.89h-39V750H798.12v36.42h13.57V774.71h33.08v57.36H811.69V820.41H798.12v23.33h21v34Z"/><path class="cls-2" d="M872.61,877.77V846.35H884V784.23H872.61V752.82h65v93.53H949v31.42ZM879.75,720c0-16.9,13.33-27.37,30-27.37,19.52,0,30,10.95,30,27.37,0,16.9-13.56,27.37-30,27.37C890.23,747.34,879.75,736.63,879.75,720Z"/><path class="cls-2" d="M1068.49,826.12c4.28,38.56-22.85,54-56.89,54-40.22,0-61.16-20-61.16-64.5,0-43.79,17.85-65.21,48.55-65.21,16,0,26.66,7.61,29.75,26.65v-25h37.13v52.36h-38.32c.24-16.18-3.33-20.7-10-20.7-7.37,0-11.66,4.76-11.66,28.56,0,29,2.86,35.46,10.71,35.46s10-6.9,8.57-21.66Z"/><path class="cls-2" d="M1179.16,819.22a109.69,109.69,0,0,1,1.9,19c0,30-15.47,41.89-50.69,41.89-34.75,0-49-15.47-49-40.94l.23-55H1068V752.82h20.47c6.9-6,12.13-15.47,14.28-32.61h32.13v32.61h40.46v31.41h-40.46V833c0,9.76,1.43,15,5.71,15,3.57,0,4.76-3.57,4.76-9.76a109.28,109.28,0,0,0-1.19-14.76Z"/><path class="cls-2" d="M1186.05,877.77V846.35h11.43V784.23h-11.43V752.82h65v93.53h11.43v31.42ZM1193.2,720c0-16.9,13.32-27.37,30-27.37,19.52,0,30,10.95,30,27.37,0,16.9-13.56,27.37-30,27.37C1203.67,747.34,1193.2,736.63,1193.2,720Z"/><path class="cls-2" d="M1263.88,816.84c0-43.79,29.51-66.4,69.5-66.4,40.93,0,65.69,20.7,65.69,63.31,0,43.79-29.52,66.4-69.5,66.4C1288.63,880.15,1263.88,859.44,1263.88,816.84Zm79.73-1.43c0-23.08-2.86-32.84-11.42-32.84-7.86,0-12.86,7.38-12.86,32.6,0,23.09,2.86,32.85,11.43,32.85C1338.61,848,1343.61,840.64,1343.61,815.41Z"/><path class="cls-2" d="M1550.67,846.35h9.76v31.42h-72.59V846.35h9.28V808.51c0-14.76-4-20.47-11.66-20.47-8.57,0-13.33,7.14-13.33,20.23v38.08h9.28v31.42h-74.26V846.35h11.43V784.23h-11.43V752.82h63.07v32.36c4.76-29,26.66-34.74,42.85-34.74,25.46,0,37.6,17.61,37.6,42.84Z"/></svg>