<svg id="Layer_1" data-name="Layer 1" xmlns="http://www.w3.org/2000/svg" viewBox="0 0 1800 1000"><defs><style>.cls-1{fill:#ff10e7;}.cls-2{fill:none;}.cls-3{fill:#fff;}</style></defs><rect x="0.39" y="-0.48" width="1805.65" height="1005.88"/><path class="cls-1" d="M1057.48,507.05c0-247,153-362,344-362,164,0,215,56,215,135,0,14-1,26-4,44l-175,14c1-45-21-65-59-65-75,0-97,63-97,225,22-86,88-116,177-116,120,0,183,91,183,209,0,125-86,254-296,254C1159.48,845.05,1057.48,742.05,1057.48,507.05Zm363,113c0-53-22-95-67-95-37,0-67,30-67,91,0,72,25,101,67,101S1420.48,685.05,1420.48,620.05Z"/><rect class="cls-2" x="165.87" y="-53.39" width="3101.99" height="1232.99"/><path class="cls-3" d="M119.79,646.28c0-16.56,11.16-25.11,26.28-25.11,15.48,0,24.84,7.83,24.84,23.94,0,16.56-11.16,25.11-26.28,25.11C129.15,670.22,119.79,662.39,119.79,646.28Zm30.15-.54c0-8.73-1.08-12.42-4.32-12.42-3,0-4.86,2.79-4.86,12.33,0,8.73,1.08,12.42,4.32,12.42C148.05,658.07,149.94,655.28,149.94,645.74Z"/><path class="cls-3" d="M203,619.37c.36-3.24-.63-4.41-2.43-4.41-2.88,0-3.51,2.79-3.51,5.31a12.2,12.2,0,0,0,.18,1.8h11.07V634h-8.1v23.49H206v11.88H175.23V657.44H180V634h-6.93V622.07H180c.63-13.05,8.46-19.35,21.6-19.35,11.34,0,15.39,5.13,15.39,11.43a14.08,14.08,0,0,1-.36,3.15Z"/><path class="cls-3" d="M266.13,647.18a41.5,41.5,0,0,1,.72,7.2c0,11.34-5.85,15.84-19.17,15.84-13.14,0-18.54-5.85-18.54-15.48l.09-20.79H224.1V622.07h7.74c2.61-2.25,4.59-5.85,5.4-12.33h12.15v12.33h15.3V634h-15.3V652.4c0,3.69.54,5.67,2.16,5.67,1.35,0,1.8-1.35,1.8-3.69a41,41,0,0,0-.45-5.58Z"/><path class="cls-3" d="M324.09,657.44h3.69v11.88H300.33V657.44h3.51V643.13c0-5.58-1.53-7.74-4.41-7.74-3.24,0-5,2.7-5,7.65v14.4h3.51v11.88H269.82V657.44h4.32V615.5h-4.32V603.62h24.57v29.25c2.25-9.72,9.72-11.7,15.48-11.7,9.63,0,14.22,6.66,14.22,16.2Z"/><path class="cls-3" d="M330.84,669.32V657.44h4.32V634h-4.32V622.07h24.57v35.37h4.32v11.88Zm2.7-59.67c0-6.39,5-10.35,11.34-10.35,7.38,0,11.34,4.14,11.34,10.35,0,6.39-5.13,10.35-11.34,10.35C337.5,620,333.54,616,333.54,609.65Z"/><path class="cls-3" d="M408.06,654.11c0,10.17-6.57,16.11-17,16.11-7.29,0-11.79-2-14.22-8.64l.09,7.74H362.07V655.55h15.21c.27,2.88,2.79,4.14,6.57,4.14s5.31-1,5.31-2.34c0-6.21-27.45,2.34-27.45-20.07,0-10.44,6.21-16.11,17.19-16.11,6.21,0,11,1.89,13,8.1l-.09-7.2h14.85v13.5H391.41c-.27-2.7-2.52-3.87-6-3.87s-4.77,1.08-4.77,2.43C380.61,639.71,408.06,630.89,408.06,654.11Z"/><path class="cls-3" d="M456.2,644.3a38.91,38.91,0,0,0,.37-4.5c0-2.52-.54-4.41-2.16-4.41s-2.88,1.44-2.88,7.47v14.58h7.11v11.88H427V657.44h4.32V633.86H427V622.07h23v12.51c1-11.16,8.27-13.41,13.58-13.41,7.11,0,10.53,3.87,10.53,11.43a51.9,51.9,0,0,1-.81,8.19Z"/><path class="cls-3" d="M522.08,652.58c1.17,12.15-8.55,17.64-22.32,17.64-16.37,0-24.92-7.38-24.92-23.67,0-17.19,10-25.38,26.36-25.38,14,0,21.33,7.47,21.33,22a41.16,41.16,0,0,1-.45,6.75H495.89c.27,5.76,1.35,8.1,4.77,8.1,2.43,0,3.78-1.35,3.51-5.4Zm-26.19-11.34h7a7.76,7.76,0,0,0,.09-1.53c0-4.86-.72-6.84-3.06-6.84S496.25,634.49,495.89,641.24Z"/><path class="cls-3" d="M555,619.37c.36-3.24-.63-4.41-2.42-4.41-2.88,0-3.52,2.79-3.52,5.31a13.72,13.72,0,0,0,.18,1.8h11.07V634h-8.1v23.49H558v11.88H527.22V657.44H532V634h-6.93V622.07H532c.63-13.05,8.46-19.35,21.59-19.35,11.34,0,15.39,5.13,15.39,11.43a14.08,14.08,0,0,1-.36,3.15Z"/><path class="cls-3" d="M609,652.58c1.17,12.15-8.55,17.64-22.32,17.64-16.37,0-24.92-7.38-24.92-23.67,0-17.19,10-25.38,26.36-25.38,14,0,21.33,7.47,21.33,22a41.16,41.16,0,0,1-.45,6.75H582.83c.27,5.76,1.35,8.1,4.77,8.1,2.43,0,3.78-1.35,3.51-5.4Zm-26.19-11.34h7a7.76,7.76,0,0,0,.09-1.53c0-4.86-.72-6.84-3.06-6.84S583.19,634.49,582.83,641.24Z"/><path class="cls-3" d="M643.22,644.3a41.14,41.14,0,0,0,.36-4.5c0-2.52-.54-4.41-2.16-4.41s-2.88,1.44-2.88,7.47v14.58h7.11v11.88H614V657.44h4.32V633.86H614V622.07h22.94v12.51c1-11.16,8.28-13.41,13.59-13.41,7.11,0,10.53,3.87,10.53,11.43a51.9,51.9,0,0,1-.81,8.19Z"/><path class="cls-3" d="M709.1,652.58c1.17,12.15-8.55,17.64-22.32,17.64-16.38,0-24.93-7.38-24.93-23.67,0-17.19,10-25.38,26.37-25.38,14,0,21.33,7.47,21.33,22a41.16,41.16,0,0,1-.45,6.75H682.91c.27,5.76,1.35,8.1,4.77,8.1,2.43,0,3.78-1.35,3.51-5.4Zm-26.19-11.34h7a7.76,7.76,0,0,0,.09-1.53c0-4.86-.72-6.84-3.06-6.84S683.27,634.49,682.91,641.24Z"/><path class="cls-3" d="M768.32,657.44H772v11.88H744.56V657.44h3.51V643.13c0-5.58-1.53-7.74-4.41-7.74-3.24,0-5,2.7-5,7.65v14.4h3.51v11.88H714.06V657.44h4.31V634h-4.31V622.07H737.9v12.24c1.8-11,10.08-13.14,16.2-13.14,9.63,0,14.22,6.66,14.22,16.2Z"/><path class="cls-3" d="M818.63,649.79c1.62,14.58-8.64,20.43-21.51,20.43-15.21,0-23.13-7.56-23.13-24.39,0-16.56,6.75-24.66,18.36-24.66,6,0,10.08,2.88,11.25,10.08V621.8h14v19.8H803.15c.09-6.12-1.26-7.83-3.78-7.83-2.79,0-4.41,1.8-4.41,10.8,0,11,1.08,13.41,4,13.41s3.78-2.61,3.24-8.19Z"/><path class="cls-3" d="M868,652.58c1.17,12.15-8.55,17.64-22.32,17.64-16.38,0-24.93-7.38-24.93-23.67,0-17.19,10-25.38,26.37-25.38,14,0,21.33,7.47,21.33,22a41.16,41.16,0,0,1-.45,6.75H841.85c.27,5.76,1.35,8.1,4.77,8.1,2.43,0,3.78-1.35,3.51-5.4Zm-26.19-11.34h7a7.76,7.76,0,0,0,.09-1.53c0-4.86-.72-6.84-3.06-6.84S842.21,634.49,841.85,641.24Z"/><path class="cls-3" d="M918.62,654.11c0,10.17-6.57,16.11-17,16.11-7.29,0-11.79-2-14.22-8.64l.09,7.74H872.63V655.55h15.21c.27,2.88,2.79,4.14,6.57,4.14s5.31-1,5.31-2.34c0-6.21-27.45,2.34-27.45-20.07,0-10.44,6.21-16.11,17.19-16.11,6.21,0,11,1.89,13,8.1l-.09-7.2h14.85v13.5H902c-.27-2.7-2.52-3.87-6-3.87s-4.77,1.08-4.77,2.43C891.17,639.71,918.62,630.89,918.62,654.11Z"/><path class="cls-3" d="M937.52,669.32V657.44h4.32V634h-4.32V622.07h24.57v35.37h4.32v11.88Zm2.7-59.67c0-6.39,5-10.35,11.34-10.35,7.38,0,11.34,4.14,11.34,10.35,0,6.39-5.13,10.35-11.34,10.35C944.18,620,940.22,616,940.22,609.65Z"/><path class="cls-3" d="M1023.38,657.44h3.69v11.88H999.62V657.44h3.51V643.13c0-5.58-1.53-7.74-4.41-7.74-3.24,0-5,2.7-5,7.65v14.4h3.51v11.88H969.11V657.44h4.32V634h-4.32V622.07H993v12.24c1.8-11,10.08-13.14,16.2-13.14,9.63,0,14.22,6.66,14.22,16.2Z"/><path class="cls-3" d="M174.44,580.36H123.6V567.49h5.84V532H123.6V519.16h33V532h-6.48v35.46h9.54V552.64h14.76Z"/><path class="cls-3" d="M226.28,563.62c1.17,12.15-8.55,17.64-22.32,17.64-16.38,0-24.92-7.38-24.92-23.67,0-17.19,10-25.38,26.36-25.38,14,0,21.33,7.47,21.33,22a41.16,41.16,0,0,1-.45,6.75H200.09c.27,5.76,1.35,8.1,4.77,8.1,2.43,0,3.78-1.35,3.51-5.4Zm-26.19-11.34h7a7.76,7.76,0,0,0,.09-1.53c0-4.86-.72-6.84-3.06-6.84S200.45,545.53,200.09,552.28Z"/><path class="cls-3" d="M270.92,558.22a41.5,41.5,0,0,1,.72,7.2c0,11.34-5.85,15.84-19.17,15.84-13.14,0-18.54-5.85-18.54-15.48L234,545H228.9V533.11h7.74c2.6-2.25,4.58-5.85,5.39-12.33h12.15v12.33h15.3V545h-15.3v18.45c0,3.69.54,5.67,2.16,5.67,1.35,0,1.8-1.35,1.8-3.69a41,41,0,0,0-.45-5.58Z"/><path class="cls-3" d="M294.68,524.56c0,10.8-6.39,19.26-17.28,23.76l-3.14-6.48c5.39-2.43,9-5.67,10.61-9.18h-.54c-6.39,0-10.34-4.41-10.34-10.53s3.95-10.62,10.34-10.62C291.35,511.51,294.68,516.28,294.68,524.56Z"/><path class="cls-3" d="M345.53,565.15c0,10.17-6.57,16.11-17,16.11-7.29,0-11.79-2-14.22-8.64l.09,7.74H299.54V566.59h15.21c.27,2.88,2.79,4.14,6.57,4.14s5.31-1,5.31-2.34c0-6.21-27.45,2.34-27.45-20.07,0-10.44,6.21-16.11,17.19-16.11,6.21,0,11,1.89,13,8.1l-.09-7.2h14.85v13.5H328.88c-.27-2.7-2.52-3.87-6-3.87s-4.77,1.08-4.77,2.43C318.08,550.75,345.53,541.93,345.53,565.15Z"/><path class="cls-3" d="M404.12,558.22a41.5,41.5,0,0,1,.72,7.2c0,11.34-5.85,15.84-19.17,15.84-13.14,0-18.54-5.85-18.54-15.48l.09-20.79h-5.13V533.11h7.74c2.61-2.25,4.59-5.85,5.4-12.33h12.15v12.33h15.3V545h-15.3v18.45c0,3.69.54,5.67,2.16,5.67,1.35,0,1.8-1.35,1.8-3.69a41,41,0,0,0-.45-5.58Z"/><path class="cls-3" d="M462.8,562.18c-.09,12.06-3.15,19.08-15.57,19.08-8.82,0-12.06-4-13.14-8.91-2.16,6.66-8.73,8.91-13,8.91-8.46,0-14-4.86-14-13.86,0-10.08,6.66-14.31,20.25-14.31a34.42,34.42,0,0,1,6.75.63c0-5.4-2.16-7.29-5-7.29-2.7,0-4,1.08-4.05,4H409.43V532.84h15.84v10.71c1.44-7.65,7.74-11.34,14.85-11.34,10.17,0,14.22,6.75,14.22,17.46.09,4.05-.45,11.16-.45,14.76,0,2.52.45,3.24,1.26,3.24,1.44,0,1.35-2.34,1.53-5.49Zm-29,4.77.09-6.48a12,12,0,0,0-2.52-.27c-3,0-4.41,1.53-4.41,4,0,3,1.53,4.23,3.69,4.23C431.93,568.48,433.55,567.85,433.82,567Z"/><path class="cls-3" d="M518.87,568.48h2.43v11.88H493.94V568.48h2.34l-4.95-8.64-1.71.9v7.74h1.89v11.88H465.05V568.48h4.32V526.54h-4.32V514.66h24.57v36.18l9.81-5.85h-5.49V533.11h25.65V545h-2.7l-8.64,5Z"/><path class="cls-3" d="M570.53,563.62c1.17,12.15-8.55,17.64-22.32,17.64-16.38,0-24.93-7.38-24.93-23.67,0-17.19,10-25.38,26.37-25.38,14,0,21.33,7.47,21.33,22a41.16,41.16,0,0,1-.45,6.75H544.34c.27,5.76,1.35,8.1,4.77,8.1,2.43,0,3.78-1.35,3.51-5.4Zm-26.19-11.34h7a7.76,7.76,0,0,0,.09-1.53c0-4.86-.72-6.84-3.06-6.84S544.7,545.53,544.34,552.28Z"/><path class="cls-3" d="M646,562.18c-.09,12.06-3.15,19.08-15.57,19.08-8.82,0-12.06-4-13.14-8.91-2.16,6.66-8.73,8.91-13.05,8.91-8.46,0-13.95-4.86-13.95-13.86,0-10.08,6.66-14.31,20.25-14.31a34.42,34.42,0,0,1,6.75.63c0-5.4-2.16-7.29-5-7.29-2.7,0-4,1.08-4,4H592.67V532.84h15.84v10.71c1.44-7.65,7.74-11.34,14.85-11.34,10.17,0,14.22,6.75,14.22,17.46.09,4.05-.45,11.16-.45,14.76,0,2.52.45,3.24,1.26,3.24,1.44,0,1.35-2.34,1.53-5.49Zm-29,4.77.09-6.48a12,12,0,0,0-2.52-.27c-3,0-4.41,1.53-4.41,4,0,3,1.53,4.23,3.69,4.23C615.17,568.48,616.79,567.85,617.06,567Z"/><path class="cls-3" d="M663.86,580.36V568.48h4.32V526.54h-4.32V514.66h24.57v53.82h4.32v11.88Z"/><path class="cls-3" d="M694.37,557.32c0-16.56,11.16-25.11,26.28-25.11,15.48,0,24.84,7.83,24.84,23.94,0,16.56-11.16,25.11-26.28,25.11C703.73,581.26,694.37,573.43,694.37,557.32Zm30.15-.54c0-8.73-1.08-12.42-4.32-12.42-3,0-4.86,2.79-4.86,12.33,0,8.73,1.08,12.42,4.32,12.42C722.63,569.11,724.52,566.32,724.52,556.78Z"/><path class="cls-3" d="M748.55,557.32c0-16.56,11.16-25.11,26.28-25.11,15.48,0,24.84,7.83,24.84,23.94,0,16.56-11.16,25.11-26.28,25.11C757.91,581.26,748.55,573.43,748.55,557.32Zm30.15-.54c0-8.73-1.08-12.42-4.32-12.42-3,0-4.86,2.79-4.86,12.33,0,8.73,1.08,12.42,4.32,12.42C776.81,569.11,778.7,566.32,778.7,556.78Z"/><path class="cls-3" d="M857.62,568.48h2.44v11.88H832.7V568.48H835l-4.95-8.64-1.71.9v7.74h1.89v11.88H803.81V568.48h4.32V526.54h-4.32V514.66h24.57v36.18l9.81-5.85H832.7V533.11h25.65V545h-2.71L847,550Z"/><path class="cls-3" d="M933.67,562.18c-.09,12.06-3.15,19.08-15.57,19.08-8.82,0-12.06-4-13.14-8.91-2.16,6.66-8.73,8.91-13.05,8.91-8.46,0-13.94-4.86-13.94-13.86,0-10.08,6.65-14.31,20.24-14.31a34.42,34.42,0,0,1,6.75.63c0-5.4-2.16-7.29-5-7.29-2.7,0-4,1.08-4,4H880.31V532.84h15.83v10.71c1.44-7.65,7.74-11.34,14.85-11.34,10.17,0,14.22,6.75,14.22,17.46.09,4.05-.45,11.16-.45,14.76,0,2.52.45,3.24,1.26,3.24,1.44,0,1.35-2.34,1.53-5.49Zm-29,4.77.09-6.48a12,12,0,0,0-2.52-.27c-3,0-4.41,1.53-4.41,4,0,3,1.53,4.23,3.69,4.23C902.8,568.48,904.42,567.85,904.69,567Z"/><path class="cls-3" d="M975.61,558.22a41.5,41.5,0,0,1,.72,7.2c0,11.34-5.85,15.84-19.17,15.84-13.14,0-18.54-5.85-18.54-15.48l.09-20.79h-5.13V533.11h7.74c2.61-2.25,4.59-5.85,5.4-12.33h12.15v12.33h15.3V545h-15.3v18.45c0,3.69.54,5.67,2.16,5.67,1.35,0,1.8-1.35,1.8-3.69a41,41,0,0,0-.45-5.58Z"/><path class="cls-3" d="M192.38,828.54v23.33h19.76v34H122.65v-34h15.47V758.09H122.65v-34h89.49c38.55,0,62.59,12.38,62.59,49.51,0,34.27-19.75,55-64.74,55Zm0-70.45v36.42h10.71c11.9,0,15.95-7.14,15.95-18.33,0-12.14-4.52-18.09-13.81-18.09Z"/><path class="cls-3" d="M420.62,854.48h11.43V885.9H369V853.77c-4.76,28.8-26,34.51-42.13,34.51-25,0-36.89-17.61-36.89-42.84V792.36H280.2V761h63.31v69.26c0,14.75,3.81,20.47,10.95,20.47,8.09,0,12.61-7.14,12.61-20.23V792.36H355.89V761h64.73Z"/><path class="cls-3" d="M439,885.9V854.48h11.42V743.57H439V712.16h65V854.48h11.43V885.9Z"/><path class="cls-3" d="M665.29,819.73c0,36.9-14.76,68.55-48.08,68.55-16.66,0-28.09-7.62-32.37-25v32.84h12.61v31.42H520.1V896.13h11.43V792.36H520.1V761h62.83v28.32c4.53-22.14,20.23-30.7,38.09-30.7C652.67,758.57,665.29,786.89,665.29,819.73Zm-55.46,4.53c0-20.71-5.71-29.75-14.52-29.75-6.19,0-10.47,3.33-10.47,13.8V840.2c0,7.14,5.24,12.14,11.66,12.14C603.4,852.34,609.83,846.15,609.83,824.26Z"/><path class="cls-3" d="M716.45,885.9v-34h15.47V758.09H716.45v-34H853.78v51.89h-39V758.09H786.66v36.42h13.57V782.84h33.08V840.2H800.23V828.54H786.66v23.33h21v34Z"/><path class="cls-3" d="M861.15,885.9V854.48h11.42V792.36H861.15V761h65v93.53h11.43V885.9Zm7.14-157.8c0-16.9,13.33-27.37,30-27.37,19.51,0,30,10.95,30,27.37,0,16.9-13.57,27.37-30,27.37C878.76,755.47,868.29,744.76,868.29,728.1Z"/><path class="cls-3" d="M1057,834.25c4.29,38.56-22.85,54-56.88,54-40.22,0-61.17-20-61.17-64.5,0-43.79,17.85-65.21,48.56-65.21,15.94,0,26.65,7.61,29.75,26.65v-25h37.13v52.36h-38.32c.23-16.18-3.34-20.7-10-20.7-7.38,0-11.66,4.76-11.66,28.56,0,29,2.85,35.46,10.71,35.46s10-6.9,8.57-21.66Z"/><path class="cls-3" d="M1167.69,827.35a109.74,109.74,0,0,1,1.91,19c0,30-15.47,41.89-50.7,41.89-34.75,0-49-15.47-49-40.94l.24-55h-13.57V761H1077c6.9-6,12.14-15.47,14.28-32.61h32.13V761h40.46v31.41h-40.46v48.79c0,9.76,1.43,15,5.71,15,3.57,0,4.77-3.57,4.77-9.76a107.75,107.75,0,0,0-1.2-14.76Z"/><path class="cls-3" d="M1174.59,885.9V854.48H1186V792.36h-11.42V761h65v93.53H1251V885.9Zm7.14-157.8c0-16.9,13.33-27.37,30-27.37,19.52,0,30,10.95,30,27.37,0,16.9-13.57,27.37-30,27.37C1192.2,755.47,1181.73,744.76,1181.73,728.1Z"/><path class="cls-3" d="M1252.41,825c0-43.79,29.52-66.4,69.5-66.4,40.94,0,65.69,20.7,65.69,63.31,0,43.79-29.51,66.4-69.5,66.4C1277.17,888.28,1252.41,867.57,1252.41,825Zm79.74-1.43c0-23.08-2.86-32.84-11.43-32.84-7.85,0-12.85,7.38-12.85,32.6,0,23.09,2.85,32.85,11.42,32.85C1327.15,856.15,1332.15,848.77,1332.15,823.54Z"/><path class="cls-3" d="M1539.21,854.48H1549V885.9h-72.59V854.48h9.29V816.64c0-14.76-4.05-20.47-11.67-20.47-8.57,0-13.33,7.14-13.33,20.23v38.08H1470V885.9h-74.26V854.48h11.42V792.36h-11.42V761h63.07v32.36c4.76-29,26.66-34.74,42.84-34.74,25.47,0,37.61,17.61,37.61,42.84Z"/></svg>